<svg id="Capa_1" data-name="Capa 1" xmlns="http://www.w3.org/2000/svg" viewBox="0 0 440.67 133.13"><defs><style>.cls-1{fill:#575756;}.cls-2{fill:#ff8300;}</style></defs><title>kairos</title><path class="cls-1" d="M72.2,375.08V358.15h7.44a9.51,9.51,0,0,1,2.4.3,9.18,9.18,0,0,1,2.17.86A9.32,9.32,0,0,1,86,360.64a8.51,8.51,0,0,1,1.42,1.71,8.25,8.25,0,0,1,.92,2,7.93,7.93,0,0,1,0,4.5,8.3,8.3,0,0,1-.92,2A8.56,8.56,0,0,1,86,372.61a9.3,9.3,0,0,1-1.84,1.32,9.58,9.58,0,0,1-4.57,1.15H72.2Zm7.44-3.87a5,5,0,0,0,1.89-.36,5.25,5.25,0,0,0,1.58-1,4.73,4.73,0,0,0,1.09-1.46,4.16,4.16,0,0,0,0-3.57,4.77,4.77,0,0,0-1.09-1.47,5.23,5.23,0,0,0-1.58-1,5.07,5.07,0,0,0-1.89-.36H76.3v9.18h3.34Z" transform="translate(-72.2 -242.12)"/><path class="cls-1" d="M108,375.08h-4.12V358.15H108v16.93Z" transform="translate(-72.2 -242.12)"/><path class="cls-1" d="M139.42,365.58v7.36a6.8,6.8,0,0,1-1.54,1.14,8.69,8.69,0,0,1-1.71.7,10.51,10.51,0,0,1-1.83.35,16.86,16.86,0,0,1-1.89.1,9.82,9.82,0,0,1-2.45-.31,9.65,9.65,0,0,1-2.2-.87,9.42,9.42,0,0,1-1.87-1.35,8.46,8.46,0,0,1-1.44-1.75,8.32,8.32,0,0,1-.93-2.06,8.07,8.07,0,0,1,0-4.6,8.3,8.3,0,0,1,.93-2.06,8.56,8.56,0,0,1,1.44-1.75,9.45,9.45,0,0,1,4.08-2.21,9.73,9.73,0,0,1,2.45-.31,8.67,8.67,0,0,1,2,.24,10.11,10.11,0,0,1,1.93.67,10.63,10.63,0,0,1,1.81,1.06,12.66,12.66,0,0,1,1.64,1.41l-1,1a2.68,2.68,0,0,1-2,.77,2.75,2.75,0,0,1-1.52-.44,6.1,6.1,0,0,0-1.34-.62,4.83,4.83,0,0,0-1.5-.23,5.18,5.18,0,0,0-2,.38,5.33,5.33,0,0,0-1.62,1,4.82,4.82,0,0,0-1.11,1.51,4.37,4.37,0,0,0,0,3.75,4.81,4.81,0,0,0,1.15,1.5,5.43,5.43,0,0,0,1.67,1,5.51,5.51,0,0,0,2,.36,7.86,7.86,0,0,0,1.43-.13,5.71,5.71,0,0,0,1.3-.39v-1.63a3.46,3.46,0,0,1-1.11-.19,2.72,2.72,0,0,1-.86-0.48,2.22,2.22,0,0,1-.56-0.71,2,2,0,0,1-.2-0.9v-1.36h6.84Z" transform="translate(-72.2 -242.12)"/><path class="cls-1" d="M159.33,375.08h-4.12V358.15h4.12v16.93Z" transform="translate(-72.2 -242.12)"/><path class="cls-1" d="M173.93,361.76v-3.62H188v3.62h-5v13.33h-4.11V361.76h-5Z" transform="translate(-72.2 -242.12)"/><path class="cls-1" d="M205.57,358.15h3.54L217,375.08h-2.65a3.13,3.13,0,0,1-.79-0.1,2.72,2.72,0,0,1-1.3-.77,2.42,2.42,0,0,1-.43-0.63l-0.88-1.88h-7.15l-0.85,1.88a2.2,2.2,0,0,1-.42.59,3.28,3.28,0,0,1-.61.48,2.89,2.89,0,0,1-.73.32,2.76,2.76,0,0,1-.78.11h-2.66Zm-0.16,10h3.84l-1.57-3.54a3.25,3.25,0,0,1-.18-0.46c0-.14-0.08-0.27-0.1-0.38a1.84,1.84,0,0,1-.06-0.35c0,0.11,0,.23-0.08.37s-0.06.24-.11,0.38-0.1.29-.17,0.45Z" transform="translate(-72.2 -242.12)"/><path class="cls-1" d="M230.13,375.08V358.15h4.11v13.32h7.1v3.62H230.13Z" transform="translate(-72.2 -242.12)"/><path class="cls-1" d="M280,361.86a3.87,3.87,0,0,0-.63.05,2,2,0,0,0-.55.17,1.12,1.12,0,0,0-.38.29,0.65,0.65,0,0,0-.15.42,0.85,0.85,0,0,0,.2.59,1.72,1.72,0,0,0,.61.37,9.87,9.87,0,0,0,1,.32c0.4,0.11.88,0.25,1.43,0.42a10.5,10.5,0,0,1,1.9.81,6.3,6.3,0,0,1,1.47,1.12,4.74,4.74,0,0,1,.95,1.45,4.58,4.58,0,0,1,.34,1.79,4.69,4.69,0,0,1-.55,2.25,5.74,5.74,0,0,1-1.48,1.76,7.07,7.07,0,0,1-2.13,1.14,7.8,7.8,0,0,1-2.5.41,7.09,7.09,0,0,1-3.93-1.16,6.48,6.48,0,0,1-1.46-1.31,6.11,6.11,0,0,1-1-1.66l1.31-.71a3.33,3.33,0,0,1,.67-0.27,2.72,2.72,0,0,1,.72-0.1,2.2,2.2,0,0,1,1,.21q0.43,0.21.85,0.46a9.62,9.62,0,0,0,.85.46,2.26,2.26,0,0,0,1,.22,3.29,3.29,0,0,0,.82-0.11,3.42,3.42,0,0,0,.83-0.33,2.05,2.05,0,0,0,.63-0.53,1.11,1.11,0,0,0,.25-0.73,0.89,0.89,0,0,0-.23-0.64,2,2,0,0,0-.62-0.43,7,7,0,0,0-.91-0.33c-0.34-.1-0.7-0.23-1.08-0.37-0.62-.22-1.23-0.46-1.83-0.72a6.91,6.91,0,0,1-1.62-1,4.49,4.49,0,0,1-1.16-1.39,4.24,4.24,0,0,1-.45-2,4.12,4.12,0,0,1,.5-2,4.78,4.78,0,0,1,1.31-1.51,6,6,0,0,1,1.87-.94A7.24,7.24,0,0,1,280,358a4.85,4.85,0,0,1,1.56.26,7.18,7.18,0,0,1,1.44.66,8.39,8.39,0,0,1,1.27.93,12,12,0,0,1,1.07,1.06l-1.27,1a2.42,2.42,0,0,1-.79.44,3,3,0,0,1-.91.13,2.31,2.31,0,0,1-.7-0.1,5.74,5.74,0,0,1-.57-0.21L280.6,362A1.64,1.64,0,0,0,280,361.86Z" transform="translate(-72.2 -242.12)"/><path class="cls-1" d="M299.73,366.61a8,8,0,0,1,.33-2.29,8.29,8.29,0,0,1,.94-2.06,8.75,8.75,0,0,1,1.44-1.75,9.48,9.48,0,0,1,1.87-1.35,9.78,9.78,0,0,1,9.32,0,9.25,9.25,0,0,1,1.87,1.35,8.94,8.94,0,0,1,1.45,1.75,8.45,8.45,0,0,1,.93,2.06,8.09,8.09,0,0,1,0,4.6,8.47,8.47,0,0,1-.93,2.06,8.83,8.83,0,0,1-1.45,1.75,9.14,9.14,0,0,1-1.87,1.35,9.88,9.88,0,0,1-7.11.87,9.93,9.93,0,0,1-2.2-.87,9.37,9.37,0,0,1-1.87-1.35A8.64,8.64,0,0,1,301,371a8.31,8.31,0,0,1-.94-2.06A8,8,0,0,1,299.73,366.61Zm4.1,0a4.31,4.31,0,0,0,.41,1.85,5,5,0,0,0,1.12,1.52,5.34,5.34,0,0,0,5.56,1,5.34,5.34,0,0,0,1.64-1,5,5,0,0,0,1.12-1.52,4.32,4.32,0,0,0,0-3.7,4.91,4.91,0,0,0-1.12-1.51,5.46,5.46,0,0,0-1.64-1,5.32,5.32,0,0,0-3.94,0,5.38,5.38,0,0,0-1.63,1,4.87,4.87,0,0,0-1.12,1.51A4.3,4.3,0,0,0,303.84,366.61Z" transform="translate(-72.2 -242.12)"/><path class="cls-1" d="M333,375.08V358.15h4.1v13.32h7.11v3.62H333Z" transform="translate(-72.2 -242.12)"/><path class="cls-1" d="M362.18,368.27a2.75,2.75,0,0,0,.28,1.21,3.31,3.31,0,0,0,.74,1,3.55,3.55,0,0,0,1.07.67,3.46,3.46,0,0,0,2.57,0,3.68,3.68,0,0,0,1.08-.67,3.19,3.19,0,0,0,.75-1,2.68,2.68,0,0,0,.28-1.21V358.15h4.11v10.11a6.37,6.37,0,0,1-.59,2.73,7.07,7.07,0,0,1-1.6,2.22,7.94,7.94,0,0,1-7.28,1.79,7.56,7.56,0,0,1-1.78-.7,7.88,7.88,0,0,1-1.52-1.09,7,7,0,0,1-1.18-1.41,6.58,6.58,0,0,1-.76-1.67,6.27,6.27,0,0,1-.28-1.86V358.15h4.12v10.11Z" transform="translate(-72.2 -242.12)"/><path class="cls-1" d="M386.85,361.76v-3.62H401v3.62h-5v13.33h-4.11V361.76h-5Z" transform="translate(-72.2 -242.12)"/><path class="cls-1" d="M419.73,375.08h-4.12V358.15h4.12v16.93Z" transform="translate(-72.2 -242.12)"/><path class="cls-1" d="M434.94,366.61a8,8,0,0,1,.33-2.29,8.35,8.35,0,0,1,.93-2.06,8.92,8.92,0,0,1,1.44-1.75,9.27,9.27,0,0,1,1.87-1.35,9.79,9.79,0,0,1,9.32,0,9.31,9.31,0,0,1,1.87,1.35,8.78,8.78,0,0,1,1.45,1.75,8.5,8.5,0,0,1,.94,2.06,8.07,8.07,0,0,1,0,4.6,8.52,8.52,0,0,1-.94,2.06,8.68,8.68,0,0,1-1.45,1.75,9.19,9.19,0,0,1-1.87,1.35,9.76,9.76,0,0,1-9.32,0,9.16,9.16,0,0,1-1.87-1.35A8.8,8.8,0,0,1,436.2,371a8.37,8.37,0,0,1-.93-2.06A8,8,0,0,1,434.94,366.61Zm4.1,0a4.24,4.24,0,0,0,.41,1.85,4.9,4.9,0,0,0,1.12,1.52,5.36,5.36,0,0,0,7.21,0,5,5,0,0,0,1.11-1.52,4.32,4.32,0,0,0,0-3.7,4.89,4.89,0,0,0-1.11-1.51,5.43,5.43,0,0,0-1.64-1,5.32,5.32,0,0,0-3.93,0,5.38,5.38,0,0,0-1.63,1,4.8,4.8,0,0,0-1.12,1.51A4.23,4.23,0,0,0,439,366.61Z" transform="translate(-72.2 -242.12)"/><path class="cls-1" d="M485,375.08h-4.08l-8.6-11.71v11.71H468.2V358.15h4a3.24,3.24,0,0,1,1.07.17,1.45,1.45,0,0,1,.71.51l6.29,8.68a1.88,1.88,0,0,1,.24.41c0.07,0.15.13,0.29,0.18,0.42a3.49,3.49,0,0,1,.11.34,1,1,0,0,1,0,.18v-10.7H485v16.93Z" transform="translate(-72.2 -242.12)"/><path class="cls-1" d="M506.2,361.86a3.91,3.91,0,0,0-.64.05,1.93,1.93,0,0,0-.54.17,1.09,1.09,0,0,0-.39.29,0.66,0.66,0,0,0-.14.42,0.83,0.83,0,0,0,.2.59,1.66,1.66,0,0,0,.61.37,9.69,9.69,0,0,0,1,.32c0.41,0.11.88,0.25,1.43,0.42a10.33,10.33,0,0,1,1.9.81,6.13,6.13,0,0,1,1.47,1.12,4.83,4.83,0,0,1,.95,1.45,4.87,4.87,0,0,1-.22,4,5.59,5.59,0,0,1-1.47,1.76,7,7,0,0,1-2.13,1.14,7.79,7.79,0,0,1-2.5.41,7.08,7.08,0,0,1-3.94-1.16,6.44,6.44,0,0,1-1.46-1.31,6.08,6.08,0,0,1-1-1.66l1.31-.71a3.19,3.19,0,0,1,.67-0.27,2.7,2.7,0,0,1,.72-0.1,2.17,2.17,0,0,1,1,.21q0.43,0.21.85,0.46a9.66,9.66,0,0,0,.85.46,2.24,2.24,0,0,0,1,.22,3.31,3.31,0,0,0,.82-0.11,3.45,3.45,0,0,0,.83-0.33,2.16,2.16,0,0,0,.63-0.53,1.12,1.12,0,0,0,.25-0.73,0.9,0.9,0,0,0-.23-0.64,2,2,0,0,0-.63-0.43,6.86,6.86,0,0,0-.91-0.33c-0.34-.1-0.7-0.23-1.08-0.37-0.62-.22-1.23-0.46-1.83-0.72a6.87,6.87,0,0,1-1.62-1,4.5,4.5,0,0,1-1.16-1.39,4.24,4.24,0,0,1-.44-2,4.08,4.08,0,0,1,.5-2,4.71,4.71,0,0,1,1.31-1.51,6,6,0,0,1,1.86-.94,7.27,7.27,0,0,1,2.16-.33,4.82,4.82,0,0,1,1.56.26,7.1,7.1,0,0,1,1.44.66,8.26,8.26,0,0,1,1.27.93,11.9,11.9,0,0,1,1.07,1.06l-1.27,1a2.44,2.44,0,0,1-.79.44,3,3,0,0,1-.91.13,2.34,2.34,0,0,1-.7-0.1,6,6,0,0,1-.56-0.21l-0.53-.21A1.66,1.66,0,0,0,506.2,361.86Z" transform="translate(-72.2 -242.12)"/><path class="cls-2" d="M189.3,250.45H175.81L137.63,338h9.2a10.71,10.71,0,0,0,5.92-1.73,10.32,10.32,0,0,0,3.93-4.66l5.4-12.43H203l5.45,12.44a10.49,10.49,0,0,0,4,4.68,10.66,10.66,0,0,0,5.88,1.7h9.2Zm-6.75,21.81,14,32h-27.9Z" transform="translate(-72.2 -242.12)"/><rect class="cls-2" x="169.61" y="8.33" width="14.91" height="87.56"/><path class="cls-2" d="M315.51,300.92a25.86,25.86,0,0,0,5.2-2.9,26.64,26.64,0,0,0,5.79-5.67,26.34,26.34,0,0,0,3.08-25.89,26.22,26.22,0,0,0-13.94-13.94,25.79,25.79,0,0,0-10.26-2.07H273.5V338h14.91V303h10.08L320,332a12.69,12.69,0,0,0,4.93,4.5,14.86,14.86,0,0,0,6.77,1.5H343Zm-27.1-35.56h17a11,11,0,0,1,4.41.89,11.59,11.59,0,0,1,6.07,6.07,11.33,11.33,0,0,1,0,8.81,11.72,11.72,0,0,1-2.45,3.62,11.21,11.21,0,0,1-8,3.29h-17V265.36Z" transform="translate(-72.2 -242.12)"/><path class="cls-2" d="M503.47,292a26.08,26.08,0,0,0-3.9-2.48c-1.3-.67-2.65-1.31-4-1.89s-2.74-1.12-4.16-1.62-2.81-1-4.17-1.57c-2.73-.92-5.09-1.8-7-2.61a21,21,0,0,1-4.46-2.46,7.21,7.21,0,0,1-2.25-2.66,8.87,8.87,0,0,1-.7-3.74,6.48,6.48,0,0,1,.91-3.37,9.36,9.36,0,0,1,2.58-2.82,13.45,13.45,0,0,1,3.91-1.93,16.12,16.12,0,0,1,4.81-.71,10.26,10.26,0,0,1,3.91.88,21.91,21.91,0,0,1,4.45,2.55,10.41,10.41,0,0,0,5.64,1.57,9.72,9.72,0,0,0,6.48-2.38l4.1-3.05-0.87-1.06a39.67,39.67,0,0,0-4.14-4.26,37.22,37.22,0,0,0-5.61-4.14,34.38,34.38,0,0,0-6.67-3.12,22.41,22.41,0,0,0-7.31-1.25,31.43,31.43,0,0,0-9.7,1.53,27.08,27.08,0,0,0-8.47,4.48,22.82,22.82,0,0,0-6,7.27,20.84,20.84,0,0,0-2.29,9.85,21.67,21.67,0,0,0,2.12,10,21.19,21.19,0,0,0,5.58,6.83,34.47,34.47,0,0,0,7.7,4.62c2.75,1.21,5.63,2.41,8.54,3.55,2.13,0.85,4.09,1.6,6,2.31A25.88,25.88,0,0,1,493.7,303a12.66,12.66,0,0,1,3.61,3.46,8.54,8.54,0,0,1,1.3,4.91,10.53,10.53,0,0,1-1.43,5.53,13.75,13.75,0,0,1-3.76,4.09,18.74,18.74,0,0,1-16.55,2.49,15.74,15.74,0,0,1-4.61-2.71l-0.88-.71a9.89,9.89,0,0,0-7.35-3.11,7.73,7.73,0,0,0-4.54,1.52l-4.22,2.34,0.55,1.12c0.15,0.29.31,0.57,0.5,0.9s0.27,0.45.43,0.75c0.54,1,1.06,1.85,1.54,2.58,0.18,0.28.33,0.53,0.47,0.79A10.47,10.47,0,0,0,460,328.7a28.47,28.47,0,0,0,2.83,2.87c5.32,4.71,12,7.09,19.86,7.09a33.1,33.1,0,0,0,11.39-2,31,31,0,0,0,9.64-5.59,27.13,27.13,0,0,0,6.67-8.62,24.89,24.89,0,0,0,2.49-11.11A23.1,23.1,0,0,0,503.47,292Z" transform="translate(-72.2 -242.12)"/><path class="cls-2" d="M104.77,293.67c-0.18-.24-0.36-0.45-0.54-0.64,0.18-.2.37-0.43,0.57-0.68l30.86-41.89H124.43a14.92,14.92,0,0,0-6.77,1.5,12.64,12.64,0,0,0-4.93,4.5l-23.56,32A11.61,11.61,0,0,1,87.85,290l-0.08.08V250.45H72.86V338H87.77V296.11l0.11,0.1a11.62,11.62,0,0,1,1.3,1.44L114.67,332a12.63,12.63,0,0,0,4.93,4.5,14.84,14.84,0,0,0,6.77,1.5h11.24Z" transform="translate(-72.2 -242.12)"/><path class="cls-2" d="M438.69,311a43.8,43.8,0,0,0-4-41l6.93-4.64a52.37,52.37,0,0,0-43.33-23.16v8.33a43.76,43.76,0,0,0-38.34,22.67l-7.37-4A52.37,52.37,0,0,0,352,318.2l7.42-3.85a43.55,43.55,0,0,0,7.93,10.83l-5.89,5.89s14.32,15.65,36.82,15.24c22-.4,39.67-12.31,48.14-32.15Zm-31.88-59.67a44.6,44.6,0,0,1,22.42,12s-10.48,6.15-12.68,8.38a28.79,28.79,0,0,0-9.76-5.21Zm-37.16,48.13-13.46,7a44.62,44.62,0,0,1,.3-25.42s10.29,6.46,13.28,7.39A28.81,28.81,0,0,0,369.66,299.42Zm10.52-15.17-7.33-4a29,29,0,0,1,25.43-15v8.44a20.76,20.76,0,0,1,17.13,9.16l7-4.67a29,29,0,0,1,2.65,27.23l-7.79-3.22a20.6,20.6,0,0,1-33.57,6.66l-6,6a28.88,28.88,0,0,1-5.27-7.2l7.46-3.88A20.77,20.77,0,0,1,380.18,284.24Zm26.63,52.88C386.78,341,374,330.6,374,330.6s9.49-9,10.66-10.79c8.26,4.86,19.31,2.87,19.31,2.87,12-2.83,16.84-10.1,16.84-10.1l13.9,5.91C429.77,325.44,421.71,334.24,406.81,337.13Z" transform="translate(-72.2 -242.12)"/></svg>