<svg id="Ebene_2" data-name="Ebene 2" xmlns="http://www.w3.org/2000/svg" xmlns:xlink="http://www.w3.org/1999/xlink" viewBox="0 0 607.75 562.45"><defs><style>.cls-1{fill:#ef4438;}.cls-2{fill:#38a4dd;}.cls-3{fill:#fec111;}.cls-4{fill:#f1592b;}.cls-5{fill:url(#Unbenannter_Verlauf_302);}.cls-6{fill:url(#Unbenannter_Verlauf_302-2);}.cls-7{fill:url(#Unbenannter_Verlauf_302-3);}.cls-8{fill:url(#Unbenannter_Verlauf_302-4);}.cls-9{fill:url(#Unbenannter_Verlauf_302-5);}.cls-10{fill:url(#Unbenannter_Verlauf_302-6);}.cls-11{fill:url(#Unbenannter_Verlauf_302-7);}.cls-12{fill:url(#Unbenannter_Verlauf_302-8);}.cls-13{fill:url(#Unbenannter_Verlauf_302-9);}.cls-14{fill:url(#Unbenannter_Verlauf_302-10);}.cls-15{fill:url(#Unbenannter_Verlauf_302-11);}.cls-16{fill:url(#Unbenannter_Verlauf_302-12);}.cls-17{fill:url(#Unbenannter_Verlauf_302-13);}.cls-18{fill:url(#Unbenannter_Verlauf_302-14);}.cls-19{fill:url(#Unbenannter_Verlauf_302-15);}.cls-20{fill:url(#Unbenannter_Verlauf_302-16);}.cls-21{fill:url(#Unbenannter_Verlauf_302-17);}.cls-22{fill:url(#Unbenannter_Verlauf_302-18);}.cls-23{fill:url(#Unbenannter_Verlauf_302-19);}.cls-24,.cls-27{fill:#e81f64;}.cls-24{stroke:#e81f64;}.cls-24,.cls-25{stroke-linecap:round;stroke-linejoin:round;stroke-width:2px;}.cls-25,.cls-26{fill:#881a51;}.cls-25{stroke:#881a51;}.cls-28{fill:#333;}</style><linearGradient id="Unbenannter_Verlauf_302" x1="214.32" y1="223.32" x2="563.42" y2="284.88" gradientUnits="userSpaceOnUse"><stop offset="0" stop-color="#ef4538"/><stop offset="0.07" stop-color="#e82264"/><stop offset="0.13" stop-color="#904098"/><stop offset="0.2" stop-color="#664a9e"/><stop offset="0.27" stop-color="#4655a5"/><stop offset="0.33" stop-color="#488fcc"/><stop offset="0.4" stop-color="#39a4dd"/><stop offset="0.47" stop-color="#0dbcd4"/><stop offset="0.53" stop-color="#009789"/><stop offset="0.6" stop-color="#4daf4f"/><stop offset="0.67" stop-color="#8cc34a"/><stop offset="0.73" stop-color="#cedd38"/><stop offset="0.8" stop-color="#feea3a"/><stop offset="0.87" stop-color="#fdc113"/><stop offset="0.93" stop-color="#f8981d"/><stop offset="1" stop-color="#f15a2c"/></linearGradient><linearGradient id="Unbenannter_Verlauf_302-2" x1="217.94" y1="224.39" x2="567.06" y2="285.95" xlink:href="#Unbenannter_Verlauf_302"/><linearGradient id="Unbenannter_Verlauf_302-3" x1="221.48" y1="225.99" x2="570.6" y2="287.55" xlink:href="#Unbenannter_Verlauf_302"/><linearGradient id="Unbenannter_Verlauf_302-4" x1="225.11" y1="227.08" x2="574.23" y2="288.64" xlink:href="#Unbenannter_Verlauf_302"/><linearGradient id="Unbenannter_Verlauf_302-5" x1="228.73" y1="228.24" x2="577.84" y2="289.79" xlink:href="#Unbenannter_Verlauf_302"/><linearGradient id="Unbenannter_Verlauf_302-6" x1="232.36" y1="229.3" x2="581.48" y2="290.86" xlink:href="#Unbenannter_Verlauf_302"/><linearGradient id="Unbenannter_Verlauf_302-7" x1="235.9" y1="230.9" x2="585.02" y2="292.46" xlink:href="#Unbenannter_Verlauf_302"/><linearGradient id="Unbenannter_Verlauf_302-8" x1="239.53" y1="231.99" x2="588.64" y2="293.54" xlink:href="#Unbenannter_Verlauf_302"/><linearGradient id="Unbenannter_Verlauf_302-9" x1="243.14" y1="232" x2="592.25" y2="293.55" xlink:href="#Unbenannter_Verlauf_302"/><linearGradient id="Unbenannter_Verlauf_302-10" x1="246.75" y1="232" x2="595.86" y2="293.56" xlink:href="#Unbenannter_Verlauf_302"/><linearGradient id="Unbenannter_Verlauf_302-11" x1="250.34" y1="230.9" x2="599.45" y2="292.46" xlink:href="#Unbenannter_Verlauf_302"/><linearGradient id="Unbenannter_Verlauf_302-12" x1="254.02" y1="229.33" x2="603.13" y2="290.89" xlink:href="#Unbenannter_Verlauf_302"/><linearGradient id="Unbenannter_Verlauf_302-13" x1="257.61" y1="228.18" x2="606.72" y2="289.74" xlink:href="#Unbenannter_Verlauf_302"/><linearGradient id="Unbenannter_Verlauf_302-14" x1="261.2" y1="227.08" x2="610.31" y2="288.64" xlink:href="#Unbenannter_Verlauf_302"/><linearGradient id="Unbenannter_Verlauf_302-15" x1="264.79" y1="225.98" x2="613.91" y2="287.54" xlink:href="#Unbenannter_Verlauf_302"/><linearGradient id="Unbenannter_Verlauf_302-16" x1="268.51" y1="224.18" x2="617.62" y2="285.74" xlink:href="#Unbenannter_Verlauf_302"/><linearGradient id="Unbenannter_Verlauf_302-17" x1="272.06" y1="223.29" x2="621.17" y2="284.85" xlink:href="#Unbenannter_Verlauf_302"/><linearGradient id="Unbenannter_Verlauf_302-18" x1="275.65" y1="222.23" x2="624.76" y2="283.79" xlink:href="#Unbenannter_Verlauf_302"/><linearGradient id="Unbenannter_Verlauf_302-19" x1="279.24" y1="221.07" x2="628.36" y2="282.63" xlink:href="#Unbenannter_Verlauf_302"/></defs><title>SeaSide_logo</title><path class="cls-1" d="M218.54,391c-19.33,0-30.43-10.14-30.59-10.3a3,3,0,0,1,4.15-4.42c1,0.89,23.44,21,61.84-2.79a3,3,0,1,1,3.2,5.15C242.11,388,229.1,391,218.54,391Z" transform="translate(-113.04 -94)"/><path class="cls-2" d="M346.23,391.08c-20.58,0-32.32-9.64-33.07-10.28a3,3,0,0,1,3.88-4.59c1.06,0.89,26.09,21.11,68.78-2.73a3,3,0,1,1,2.93,5.25C372.06,388.05,357.76,391.08,346.23,391.08Z" transform="translate(-113.04 -94)"/><path class="cls-3" d="M528.92,391.07c-21.21,0-33.3-9.61-34.07-10.24a3,3,0,0,1,3.81-4.66h0c1.08,0.88,27,21.19,71.26-2.72a3,3,0,1,1,2.86,5.29C555.56,388.06,540.81,391.07,528.92,391.07Z" transform="translate(-113.04 -94)"/><path class="cls-4" d="M607.14,192.41c-19.16,0-30.17-10-30.34-10.21a3,3,0,0,1,4.12-4.38c1,0.88,23.25,20.86,61.32-2.77a3,3,0,1,1,3.17,5.11C630.51,189.41,617.61,192.41,607.14,192.41Z" transform="translate(-113.04 -94)"/><path class="cls-5" d="M501.1,382.54q-0.47,0-.94,0c-12.77-.9-23.35-20-32.33-58.26a543.37,543.37,0,0,1-9.55-54.88c-7.63-59.94-15.83-104.28-24.34-132.45C424.67,106.27,417.06,102,413.35,102h0c-4.92,0-18.12,7.77-34.84,82.62-9.4,42.09-15.23,84.56-15.29,85s-4.48,28.38-11.76,55.74C341.18,363.89,330.6,383,319.08,383h0c-10,0-25.22-11.8-41.79-112.72C267.78,212.61,258.18,206,254.5,206h-0.1c-10,0-22.58,36.88-28.37,63.42-0.09.35-6.88,27.77-14.32,55-15.64,57.25-18.58,57.16-21.7,57.16a3,3,0,0,1-1.22-5.82c4.56-5.81,19.47-59.6,31.39-108.05,2.48-11.4,15.86-68.43,34.26-68.43h0.23c7.4,0.19,18.41,8,28.54,69.67,15.95,97.11,30.38,108,35.86,108h0c3.76,0,13.87-5.6,26.56-53.28,7.2-27.06,11.58-54.68,11.63-55s5.91-43.37,15.37-85.7c5.57-24.95,11.3-44.55,17-58.85C397.29,105,405,96,413.33,96h0c12.37,0,31.1,17.72,50.88,173,4.64,41.06,18.6,106.43,36.32,107.67,0.16,0,.32-0.07.49-0.07,8.29,0,25.37-14.66,49.53-108.29L575.47,182a3,3,0,1,1,5.78,1.65l-24.86,86.21c-10.25,39.72-20.28,69.27-29.78,87.76C518,374.37,509.65,382.54,501.1,382.54Z" transform="translate(-113.04 -94)"/><path class="cls-6" d="M504.71,383.74q-0.47,0-.94,0c-12.77-.9-23.35-20-32.33-58.26a543.37,543.37,0,0,1-9.55-54.88q-11.45-89.91-24.34-132.05C428.28,107.87,420.67,104,417,104h0c-4.92,0-18.12,7.37-34.84,82.22-9.4,42.09-15.23,84.36-15.29,84.79s-4.48,28.18-11.76,55.54C344.79,365.09,334.21,384,322.69,384h0c-10,0-25.22-12-41.79-113-9.47-57.67-19.07-64.27-22.76-64.37-10-.29-22.66,37.06-28.48,63.69-0.09.35-6.88,27.91-14.32,55.15-15.64,57.25-18.58,57.23-21.7,57.23a3,3,0,0,1-1.22-5.77c4.56-5.81,19.47-59.59,31.39-108,2.48-11.4,15.86-68.43,34.26-68.43h0.23c7.4,0.19,18.41,7.9,28.54,69.57C302.75,367.17,317.19,378,322.66,378h0c3.76,0,13.87-5.5,26.56-53.18,7.2-27.06,11.58-54.63,11.63-54.9s5.91-43.34,15.37-85.68c5.57-24.95,11.3-44.64,17-58.94,7.66-19.19,15.41-28.3,23.7-28.3h0c12.37,0,31.1,17.82,50.88,173.11,4.64,41.06,18.6,106.48,36.32,107.73,0.16,0,.32,0,0.49,0,8.29,0,25.37-14.65,49.53-108.27l24.88-86.31a3,3,0,1,1,5.78,1.66L560,271.07c-10.25,39.72-20.28,69.27-29.78,87.76C521.61,375.58,513.26,383.74,504.71,383.74Z" transform="translate(-113.04 -94)"/><path class="cls-7" d="M508.32,384.94q-0.47,0-.94,0C494.6,384,484,365,475,326.66a543.37,543.37,0,0,1-9.55-54.88q-11.45-89.91-24.34-132.15C431.89,109,424.28,105,420.57,105h0c-4.92,0-18.12,7.47-34.84,82.33-9.4,42.09-15.23,84.41-15.29,84.84s-4.48,28.1-11.76,55.46C348.4,366.17,337.82,385,326.3,385h0c-10,0-25.22-11.8-41.79-112.72C275,214.61,265.4,208,261.71,208h-0.1c-10,0-22.58,37.08-28.37,63.62-0.09.35-6.88,27.87-14.32,55.12C203.27,384,200.33,384,197.22,384a3,3,0,0,1-1.22-5.78c4.56-5.81,19.47-59.59,31.39-108,2.48-11.4,15.86-68.43,34.26-68.43h0.23c7.4,0.19,18.41,7.79,28.54,69.47C306.36,368.27,320.79,379,326.27,379h0c3.76,0,13.87-5.4,26.56-53.08,7.2-27.06,11.58-54.58,11.63-54.85s5.91-43.32,15.37-85.65c5.57-24.95,11.3-44.22,17-58.53C404.51,107.7,412.26,99,420.55,99h0c12.37,0,31.1,17.43,50.88,172.71,4.64,41.06,18.6,106.28,36.32,107.53,0.16,0,.32-0.15.49-0.15,8.29,0,25.37-14.7,49.53-108.32l24.88-86.34a3,3,0,1,1,5.78,1.64l-24.86,86.21C553.36,312,543.34,341.55,533.83,360,525.22,376.78,516.87,384.94,508.32,384.94Z" transform="translate(-113.04 -94)"/><path class="cls-8" d="M511.93,386.15q-0.47,0-.94,0c-12.77-.9-23.35-20-32.33-58.26A543.37,543.37,0,0,1,469.11,273q-11.45-89.91-24.34-132.25C435.5,110.07,427.89,106,424.18,106h0c-4.92,0-18.12,7.57-34.84,82.43-9.4,42.09-15.23,84.47-15.29,84.89s-4.48,28-11.76,55.38C352,367.25,341.42,386,329.91,386h0c-10,0-25.22-11.84-41.79-112.77C278.61,215.56,269,209.06,265.32,209c-10-.28-22.66,37.11-28.48,63.74-0.09.35-6.88,27.93-14.32,55.18-15.64,57.25-18.58,57.24-21.7,57.24a3,3,0,0,1-1.22-5.76c4.56-5.81,19.47-59.59,31.39-108,2.48-11.4,15.86-68.42,34.26-68.42h0.23c7.4,0.19,18.41,7.69,28.54,69.37C310,369.38,324.4,380,329.88,380h0c3.76,0,13.87-5.29,26.56-53,7.2-27.06,11.58-54.53,11.63-54.8s5.91-43.29,15.37-85.63c5.57-24.95,11.3-44.31,17-58.62,7.66-19.19,15.41-28,23.7-28h0c12.37,0,31.1,17.53,50.88,172.81,4.64,41.06,18.6,106.33,36.32,107.58,8.07,0.56,25.37-12.87,50-108.36l24.88-86.36a3,3,0,0,1,3.72-2.09,3,3,0,0,1,2.06,3.71l-24.86,86.21c-10.25,39.72-20.28,69.27-29.78,87.75C528.83,378,520.48,386.15,511.93,386.15Z" transform="translate(-113.04 -94)"/><path class="cls-9" d="M515.54,387.35q-0.47,0-.94,0c-12.77-.9-23.35-20-32.33-58.26a543.37,543.37,0,0,1-9.55-54.88C465.09,214.25,456.9,170,448.38,141.83,439.11,111.18,431.5,107,427.79,107h0c-4.92,0-18.12,7.67-34.84,82.53-9.4,42.09-15.23,84.52-15.29,84.94s-4.48,27.95-11.76,55.31C355.62,368.32,345,387,333.52,387h0c-10,0-25.22-11.3-41.79-112.22C282.22,217.11,272.62,211,268.93,211h-0.1c-10,0-22.58,36.78-28.37,63.33-0.09.35-6.88,27.73-14.32,55-15.64,57.25-18.58,57.14-21.7,57.14a3.06,3.06,0,0,1-1.22-5.84c4.56-5.81,19.47-59.6,31.39-108.06,2.48-11.4,15.86-68.43,34.26-68.43h0.23c7.4,0.19,18.41,7.59,28.54,69.26C313.58,370.48,328,381,333.49,381h0c3.76,0,13.87-5.19,26.56-52.87,7.2-27.06,11.58-54.47,11.63-54.75s5.91-43.27,15.37-85.6c5.57-24.95,11.3-44.4,17-58.71,7.66-19.19,15.41-28.07,23.7-28.07h0c12.37,0,31.1,17.63,50.88,172.91C483.33,315,497.29,380.3,515,381.54c8.06,0.55,25.37-12.84,50-108.34l24.88-86.35a3,3,0,0,1,3.72-2.08,3,3,0,0,1,2.06,3.71l-24.86,86.21c-10.25,39.72-20.28,69.27-29.78,87.75C532.44,379.19,524.08,387.35,515.54,387.35Z" transform="translate(-113.04 -94)"/><path class="cls-10" d="M519.15,388.55q-0.47,0-.94,0c-12.77-.9-23.35-20-32.33-58.26a543.37,543.37,0,0,1-9.55-54.88C468.7,215.45,460.5,171.09,452,142.93,442.71,112.28,435.11,108,431.4,108h0c-4.92,0-18.12,7.78-34.84,82.63-9.4,42.09-15.23,84.57-15.29,85s-4.48,28.37-11.76,55.73C359.23,369.9,348.64,389,337.13,389h0c-10,0-25.22-12.14-41.79-113.06-9.47-57.67-19.07-64.32-22.76-64.42-10-.27-22.66,37-28.48,63.67-0.09.35-6.88,27.9-14.32,55.14-15.64,57.25-18.58,57.23-21.7,57.23a3,3,0,0,1-1.22-5.77c4.56-5.81,19.47-59.59,31.39-108,2.48-11.4,15.86-68.43,34.26-68.43h0.23c7.4,0.19,18.41,8,28.54,69.66,15.95,97.11,30.38,108,35.86,108h0c3.76,0,13.87-5.59,26.56-53.27,7.2-27.06,11.58-54.67,11.63-54.95s5.91-43.37,15.37-85.7c5.57-24.95,11.3-44.55,17-58.86C415.33,111,423.09,102,431.38,102h0c12.37,0,31.1,17.73,50.88,173,4.64,41.06,18.6,106.43,36.32,107.68,8.05,0.55,25.37-12.82,50-108.31L593.52,188a3,3,0,1,1,5.78,1.63l-24.86,86.21c-10.25,39.72-20.28,69.27-29.78,87.75C536,380.39,527.69,388.55,519.15,388.55Z" transform="translate(-113.04 -94)"/><path class="cls-11" d="M522.76,389.76q-0.47,0-.94,0c-12.77-.9-23.35-20-32.33-58.26a543.37,543.37,0,0,1-9.55-54.88q-11.45-89.91-24.34-132.06C446.32,113.88,438.72,110,435,110h0c-4.92,0-18.12,7.38-34.84,82.23-9.4,42.09-15.23,84.37-15.29,84.79s-4.48,28.17-11.76,55.53C362.84,371.1,352.25,390,340.74,390h0c-10,0-25.22-11.8-41.79-112.72C289.44,219.61,279.84,213,276.15,213H276c-10,0-22.58,37-28.37,63.53-0.09.35-6.88,27.83-14.32,55.07-15.64,57.25-18.58,57.19-21.7,57.19a3,3,0,0,1-1.22-5.8c4.56-5.81,19.47-59.59,31.39-108.05,2.48-11.4,15.86-68.43,34.26-68.43h0.23c7.4,0.19,18.41,7.89,28.54,69.56C320.79,373.18,335.23,384,340.71,384h0c3.76,0,13.87-5.49,26.56-53.17,7.2-27.06,11.58-54.62,11.63-54.9s5.91-43.34,15.37-85.68c5.57-24.95,11.3-44.14,17-58.45C418.94,112.62,426.7,104,435,104h0c12.37,0,31.1,17.33,50.88,172.62,4.64,41.06,18.6,106.24,36.32,107.48,8,0.55,25.37-12.92,50-108.41l24.88-86.39a3,3,0,0,1,3.72-2.1,3,3,0,0,1,2.06,3.7L578,277.1c-10.25,39.72-20.28,69.27-29.78,87.75C539.66,381.6,531.3,389.76,522.76,389.76Z" transform="translate(-113.04 -94)"/><path class="cls-12" d="M526.37,391q-0.47,0-.94,0c-12.77-.9-23.35-20-32.33-58.26a543.37,543.37,0,0,1-9.55-54.88Q472.1,187.89,459.2,145.63C449.93,115,442.32,111,438.62,111h0c-4.92,0-18.12,7.48-34.84,82.33-9.4,42.09-15.23,84.42-15.29,84.84S384,306.27,376.7,333.63C366.45,372.18,355.86,391,344.35,391h0c-10,0-25.22-11.94-41.79-112.86-9.47-57.67-19.07-64.22-22.76-64.31-9.93-.26-22.66,37.08-28.48,63.72-0.09.35-6.88,27.92-14.32,55.16-15.64,57.25-18.58,57.24-21.7,57.24a3,3,0,0,1-1.22-5.76c4.56-5.81,19.47-59.59,31.39-108,2.48-11.4,15.86-68.43,34.26-68.43h0.23c7.4,0.19,18.41,7.79,28.54,69.46C324.4,374.28,338.84,385,344.32,385h0c3.76,0,13.87-5.39,26.56-53.07,7.2-27.06,11.58-54.57,11.63-54.85s5.91-43.32,15.37-85.65c5.57-24.95,11.3-44.23,17-58.54,7.66-19.19,15.41-27.9,23.7-27.9h0c12.37,0,31.1,17.43,50.88,172.72,4.64,41.06,18.6,106.29,36.32,107.53,0.16,0,.32-0.14.49-0.14,8.29,0,25.37-14.7,49.53-108.32l24.88-86.34a3,3,0,1,1,5.78,1.64l-24.86,86.21C571.41,318,561.38,347.56,551.88,366,543.27,382.8,534.91,391,526.37,391Z" transform="translate(-113.04 -94)"/><path class="cls-13" d="M530,391q-0.47,0-.94,0c-12.77-.9-23.35-20-32.33-58.26a543.37,543.37,0,0,1-9.55-54.88q-11.45-89.91-24.34-132.16C453.54,115,445.93,111,442.22,111h0c-4.92,0-18.12,7.48-34.84,82.33-9.4,42.09-15.23,84.42-15.29,84.84s-4.48,28.09-11.76,55.45C370.05,372.18,359.47,391,348,391h0c-10,0-25.22-11.8-41.79-112.72C296.66,220.61,287.06,214,283.37,214h-0.1c-10,0-22.58,37.09-28.37,63.63-0.09.35-6.88,27.88-14.32,55.12C224.93,390,222,390,218.87,390a3,3,0,0,1-1.22-5.78c4.56-5.81,19.47-59.59,31.39-108,2.48-11.4,15.86-68.43,34.26-68.43h0.23c7.4,0.19,18.41,7.79,28.54,69.46C328,374.28,342.45,385,347.93,385h0c3.76,0,13.87-5.39,26.56-53.07,7.2-27.06,11.58-54.57,11.63-54.85s5.91-43.32,15.37-85.65c5.57-24.95,11.3-44.23,17-58.54,7.66-19.19,15.41-27.9,23.7-27.9h0c12.37,0,31.1,17.43,50.88,172.72,4.64,41.06,18.6,106.29,36.32,107.53,0.16,0,.32-0.14.49-0.14,8.29,0,25.37-14.7,49.53-108.32l24.88-86.34a3,3,0,1,1,5.78,1.64l-24.86,86.21C575,318,565,347.56,555.49,366,546.88,382.8,538.52,391,530,391Z" transform="translate(-113.04 -94)"/><path class="cls-14" d="M533.58,391q-0.47,0-.94,0c-12.77-.9-23.35-20-32.33-58.26a543.37,543.37,0,0,1-9.55-54.88q-11.45-89.91-24.34-132.16C457.15,115,449.54,111,445.83,111h0c-4.92,0-18.12,7.48-34.84,82.33-9.4,42.09-15.23,84.42-15.29,84.84s-4.48,28.09-11.76,55.45C373.66,372.18,363.08,391,351.56,391h0c-10,0-25.22-11.8-41.79-112.72C300.26,220.61,290.67,214,287,214h-0.1c-10,0-22.58,37.09-28.37,63.63-0.09.35-6.88,27.88-14.32,55.12C228.53,390,225.59,390,222.48,390a3,3,0,0,1-1.22-5.78c4.56-5.81,19.47-59.59,31.39-108,2.5-11.45,16-68.86,34.49-68.42,7.4,0.19,18.41,7.79,28.54,69.46C331.62,374.28,346.06,385,351.53,385h0c3.76,0,13.87-5.39,26.56-53.07,7.2-27.06,11.58-54.57,11.63-54.85s5.91-43.32,15.37-85.65c5.57-24.95,11.3-44.23,17-58.54,7.66-19.19,15.41-27.9,23.7-27.9h0c12.37,0,31.1,17.43,50.88,172.72,4.64,41.06,18.6,106.29,36.32,107.53,8.07,0.55,25.37-12.89,50-108.39L608,190.49a3,3,0,0,1,3.72-2.1,3,3,0,0,1,2.06,3.7l-24.86,86.2C578.62,318,568.6,347.57,559.1,366,550.49,382.8,542.13,391,533.58,391Z" transform="translate(-113.04 -94)"/><path class="cls-15" d="M537.19,389.76q-0.47,0-.94,0c-12.77-.9-23.35-20-32.33-58.26a543.37,543.37,0,0,1-9.55-54.88Q482.93,186.68,470,144.53C460.76,113.88,453.15,110,449.44,110h0c-4.92,0-18.12,7.38-34.84,82.23-9.4,42.09-15.23,84.37-15.29,84.79s-4.48,28.17-11.76,55.53C377.27,371.1,366.69,390,355.17,390h0c-10,0-25.22-11.8-41.79-112.72C303.87,219.61,294.27,213,290.59,213h-0.1c-10,0-22.58,37-28.37,63.53-0.09.35-6.88,27.83-14.32,55.07-15.64,57.25-18.58,57.19-21.7,57.19a3,3,0,0,1-1.22-5.8c4.56-5.81,19.47-59.59,31.39-108.05,2.48-11.4,15.86-68.43,34.26-68.43h0.23c7.4,0.19,18.41,7.89,28.54,69.56C335.23,373.18,349.67,384,355.14,384h0c3.76,0,13.87-5.49,26.56-53.17,7.2-27.06,11.58-54.62,11.63-54.9s5.91-43.34,15.37-85.68c5.57-24.95,11.3-44.14,17-58.45,7.66-19.19,15.41-27.81,23.7-27.81h0c12.37,0,31.1,17.33,50.88,172.62,4.64,41.06,18.6,106.24,36.32,107.48,8.06,0.55,25.37-12.92,50-108.41l24.88-86.39a3,3,0,0,1,3.72-2.1,3,3,0,0,1,2.06,3.7l-24.86,86.2c-10.25,39.72-20.28,69.27-29.78,87.75C554.09,381.6,545.74,389.76,537.19,389.76Z" transform="translate(-113.04 -94)"/><path class="cls-16" d="M540.8,388.55q-0.47,0-.94,0c-12.77-.9-23.35-20-32.33-58.26A543.37,543.37,0,0,1,498,275.39c-7.63-59.94-15.83-104.29-24.34-132.46C464.37,112.28,456.76,108,453.05,108h0c-4.92,0-18.12,7.78-34.84,82.63-9.4,42.09-15.23,84.57-15.29,85s-4.48,28.37-11.76,55.73C380.88,369.9,370.3,389,358.78,389h0c-10,0-25.22-11.8-41.79-112.72C307.48,218.61,297.88,212,294.19,212h-0.1c-10,0-22.58,36.88-28.37,63.43-0.09.35-6.88,27.78-14.32,55-15.64,57.25-18.58,57.17-21.7,57.17a3,3,0,0,1-1.22-5.82c4.56-5.81,19.47-59.6,31.39-108.05,2.48-11.4,15.86-68.43,34.26-68.43h0.23c7.4,0.19,18.41,8,28.54,69.66,15.95,97.11,30.38,108,35.86,108h0c3.76,0,13.87-5.59,26.56-53.27,7.2-27.06,11.58-54.67,11.63-54.95s5.91-43.37,15.37-85.7c5.57-24.95,11.3-44.55,17-58.86C437,111,444.74,102,453,102h0c12.37,0,31.1,17.73,50.88,173,4.64,41.06,18.6,106.43,36.32,107.68,8.06,0.55,25.37-12.82,50-108.31L615.17,188a3,3,0,1,1,5.78,1.63l-24.86,86.21c-10.25,39.72-20.28,69.27-29.78,87.75C557.7,380.39,549.35,388.55,540.8,388.55Z" transform="translate(-113.04 -94)"/><path class="cls-17" d="M544.41,387.35q-0.47,0-.94,0c-12.77-.9-23.35-20-32.33-58.26a543.37,543.37,0,0,1-9.55-54.88C494,214.25,485.77,170,477.25,141.83,468,111.18,460.37,107,456.66,107h0c-4.92,0-18.12,7.67-34.84,82.53-9.4,42.09-15.23,84.52-15.29,84.94s-4.48,27.95-11.76,55.31C384.49,368.32,373.91,387,362.39,387h0c-10,0-25.22-11.74-41.79-112.66-9.47-57.67-19.07-64.12-22.76-64.22-10-.27-22.66,37.13-28.48,63.77-0.09.35-6.88,27.95-14.32,55.19-15.64,57.25-18.58,57.25-21.7,57.25a3,3,0,0,1-1.22-5.76c4.56-5.81,19.47-59.59,31.39-108,2.48-11.4,15.86-68.42,34.26-68.42H298c7.4,0.19,18.41,7.59,28.54,69.26C342.45,370.48,356.88,381,362.36,381h0c3.76,0,13.87-5.19,26.56-52.87,7.2-27.06,11.58-54.47,11.63-54.75s5.91-43.27,15.37-85.6c5.57-24.95,11.3-44.4,17-58.71,7.66-19.19,15.41-28.07,23.7-28.07h0c12.37,0,31.1,17.63,50.88,172.91,4.64,41.06,18.6,106.38,36.32,107.63,8,0.55,25.37-12.84,50-108.34l24.88-86.35a3,3,0,0,1,3.72-2.08,3,3,0,0,1,2.06,3.71L599.7,274.68c-10.25,39.72-20.28,69.27-29.78,87.75C561.31,379.19,553,387.35,544.41,387.35Z" transform="translate(-113.04 -94)"/><path class="cls-18" d="M548,386.15q-0.47,0-.94,0c-12.77-.9-23.35-20-32.33-58.26A543.37,543.37,0,0,1,505.2,273q-11.45-89.91-24.34-132.25C471.59,110.07,464,106,460.27,106h0c-4.92,0-18.12,7.57-34.84,82.43-9.4,42.09-15.23,84.47-15.29,84.89s-4.48,28-11.76,55.38C388.1,367.25,377.51,386,366,386h0c-10,0-25.22-11.8-41.79-112.72C314.7,215.61,305.1,209,301.41,209h-0.1c-10,0-22.58,37.18-28.37,63.73-0.09.35-6.88,27.93-14.32,55.17C243,385.14,240,385.13,236.92,385.13a3,3,0,0,1-1.22-5.76c4.56-5.81,19.47-59.59,31.39-108,2.48-11.4,15.86-68.43,34.26-68.43h0.23c7.4,0.19,18.41,7.69,28.54,69.37C346.06,369.38,360.49,380,366,380h0c3.76,0,13.87-5.29,26.56-53,7.2-27.06,11.58-54.53,11.63-54.8s5.91-43.29,15.37-85.63c5.57-24.95,11.3-44.31,17-58.62,7.66-19.19,15.41-28,23.7-28h0c12.37,0,31.1,17.53,50.88,172.81,4.64,41.06,18.6,106.33,36.32,107.58,0.16,0,.32-0.12.49-0.12,8.29,0,25.37-14.69,49.53-108.31l24.88-86.33a3,3,0,1,1,5.78,1.64l-24.86,86.21c-10.25,39.72-20.28,69.27-29.78,87.76C564.92,378,556.57,386.15,548,386.15Z" transform="translate(-113.04 -94)"/><path class="cls-19" d="M551.63,384.94q-0.47,0-.94,0c-12.77-.9-23.35-20-32.33-58.26a543.37,543.37,0,0,1-9.55-54.88q-11.45-89.91-24.34-132.15C475.2,109,467.59,105,463.88,105h0c-4.92,0-18.12,7.47-34.84,82.33-9.4,42.09-15.23,84.41-15.29,84.84s-4.48,28.1-11.76,55.46C391.71,366.17,381.12,385,369.61,385h0c-10,0-25.22-11.94-41.79-112.87-9.47-57.67-19.07-64.22-22.76-64.32-10-.28-22.66,37.08-28.48,63.72-0.09.35-6.88,27.92-14.32,55.16-15.64,57.25-18.58,57.24-21.7,57.24a3,3,0,0,1-1.22-5.77c4.56-5.81,19.47-59.59,31.39-108,2.48-11.4,15.86-68.43,34.26-68.43h0.23c7.4,0.19,18.41,7.79,28.54,69.47C349.67,368.27,364.1,379,369.58,379h0c3.76,0,13.87-5.4,26.56-53.08,7.2-27.06,11.58-54.58,11.63-54.85s5.91-43.32,15.37-85.65c5.57-24.95,11.3-44.22,17-58.53C447.81,107.7,455.57,99,463.86,99h0c12.37,0,31.1,17.43,50.88,172.71,4.64,41.06,18.6,106.28,36.32,107.53,0.16,0,.32-0.15.49-0.15,8.29,0,25.37-14.7,49.53-108.32L626,184.43a3,3,0,1,1,5.78,1.64l-24.86,86.21C596.67,312,586.64,341.55,577.14,360,568.53,376.78,560.17,384.94,551.63,384.94Z" transform="translate(-113.04 -94)"/><path class="cls-20" d="M555.24,383.74q-0.47,0-.94,0c-12.77-.9-23.35-20-32.33-58.26a543.37,543.37,0,0,1-9.55-54.88Q501,180.67,488.08,138.52C478.8,107.87,471.2,104,467.49,104h0c-4.92,0-18.12,7.37-34.84,82.22-9.4,42.09-15.23,84.36-15.29,84.79s-4.48,28.18-11.76,55.54C395.32,365.09,384.73,384,373.22,384h0c-10,0-25.22-11.8-41.79-112.72C321.92,213.61,312.32,207,308.63,207h-0.1c-10,0-22.58,37-28.37,63.52-0.09.35-6.88,27.82-14.32,55.07-15.64,57.25-18.58,57.19-21.7,57.19a3,3,0,0,1-1.22-5.8c4.56-5.81,19.47-59.59,31.39-108.05,2.48-11.4,15.86-68.43,34.26-68.43h0.23c7.4,0.19,18.41,7.89,28.54,69.57C353.27,367.17,367.71,378,373.19,378h0c3.76,0,13.87-5.5,26.56-53.18,7.2-27.06,11.58-54.63,11.63-54.9s5.91-43.34,15.37-85.68c5.57-24.95,11.3-44.89,17-59.19,7.67-19.22,15.46-28.63,23.75-28.54,12.37,0.05,31.1,18.07,50.88,173.35,4.64,41.06,18.6,106.6,36.32,107.85h0.49c8.29,0,25.37-14.62,49.53-108.24l24.88-86.3a3,3,0,0,1,5.78,1.67l-24.86,86.21c-10.25,39.72-20.28,69.27-29.78,87.76C572.14,375.58,563.78,383.74,555.24,383.74Z" transform="translate(-113.04 -94)"/><path class="cls-21" d="M558.85,382.54q-0.47,0-.94,0c-12.77-.9-23.35-20-32.33-58.26A543.37,543.37,0,0,1,516,269.37c-7.63-59.94-15.83-104.28-24.34-132.45C482.41,106.27,474.81,102,471.1,102h0c-4.92,0-18.12,7.77-34.84,82.62-9.4,42.09-15.23,84.56-15.29,85s-4.48,28.38-11.76,55.74C398.93,363.89,388.34,383,376.83,383h0c-10,0-25.22-12.15-41.79-113.07-9.47-57.67-19.07-64.32-22.76-64.42-10-.29-22.66,37-28.48,63.67-0.09.35-6.88,27.9-14.32,55.14-15.64,57.25-18.58,57.23-21.7,57.23a3,3,0,0,1-1.22-5.77c4.56-5.81,19.47-59.59,31.39-108,2.48-11.4,15.86-68.43,34.26-68.43h0.23c7.4,0.19,18.41,8,28.54,69.67,15.95,97.11,30.38,108,35.86,108h0c3.76,0,13.87-5.6,26.56-53.28,7.2-27.06,11.58-54.68,11.63-55s5.91-43.37,15.37-85.7c5.57-24.95,11.3-44.55,17-58.85C455,105,462.79,96,471.08,96h0c12.37,0,31.1,17.72,50.88,173,4.64,41.06,18.6,106.43,36.32,107.67,8.07,0.54,25.37-12.82,50-108.31L633.22,182a3,3,0,1,1,5.78,1.63l-24.86,86.21c-10.25,39.72-20.28,69.27-29.78,87.75C575.75,374.38,567.39,382.54,558.85,382.54Z" transform="translate(-113.04 -94)"/><path class="cls-22" d="M562.46,381.34q-0.47,0-.94,0c-12.77-.9-23.35-20-32.33-58.26a543.37,543.37,0,0,1-9.55-54.88C512,208.23,503.81,164,495.29,135.82,486,105.17,478.41,101,474.71,101h0c-4.92,0-18.12,7.67-34.84,82.52-9.4,42.09-15.23,84.51-15.29,84.94s-4.48,28-11.76,55.31C402.54,362.32,392,381,380.43,381h0c-10,0-25.22-11.3-41.79-112.22C329.14,211.11,319.54,205,315.85,205h-0.1c-10,0-22.58,36.78-28.37,63.32-0.09.35-6.88,27.72-14.32,55-15.64,57.25-18.58,57.14-21.7,57.14a3.06,3.06,0,0,1-1.22-5.84c4.56-5.81,19.47-59.6,31.39-108.06,2.48-11.4,15.86-68.43,34.26-68.43H316c7.4,0.19,18.41,7.6,28.54,69.27C360.49,364.47,374.93,375,380.41,375h0c3.76,0,13.87-5.2,26.56-52.88,7.2-27.06,11.58-54.48,11.63-54.75s5.91-43.27,15.37-85.6c5.57-24.95,11.3-44.4,17-58.7C458.64,103.87,466.39,95,474.68,95h0c12.37,0,31.1,17.62,50.88,172.91,4.64,41.06,18.6,106.38,36.32,107.62,8.06,0.54,25.37-12.85,50-108.34l24.88-86.35a3,3,0,0,1,3.72-2.09,3,3,0,0,1,2.06,3.71l-24.86,86.21c-10.25,39.72-20.28,69.27-29.78,87.75C579.36,373.17,571,381.34,562.46,381.34Z" transform="translate(-113.04 -94)"/><path class="cls-23" d="M566.06,380.13q-0.47,0-.94,0c-12.77-.9-23.35-20-32.33-58.26A543.37,543.37,0,0,1,523.25,267Q511.8,177.06,498.9,134.72C489.63,104.07,482,100,478.31,100h0c-4.92,0-18.12,7.56-34.84,82.42-9.4,42.09-15.23,84.46-15.29,84.89s-4.48,28-11.76,55.39C406.14,361.24,395.56,380,384,380h0c-10,0-25.22-11.85-41.79-112.77-9.47-57.67-19.07-64.18-22.76-64.27-10-.3-22.66,37.1-28.48,63.74-0.09.35-6.88,27.93-14.32,55.17C261,379.12,258.08,379.11,255,379.11a3,3,0,0,1-1.22-5.76c4.56-5.81,19.47-59.59,31.39-108,2.48-11.4,15.86-68.42,34.26-68.42h0.23c7.4,0.19,18.41,7.7,28.54,69.37C364.1,363.37,378.54,374,384,374h0c3.76,0,13.87-5.3,26.56-53,7.2-27.06,11.58-54.53,11.63-54.8s5.91-43.29,15.37-85.63c5.57-24.95,11.3-44.31,17-58.61,7.66-19.19,15.41-28,23.7-28h0c12.37,0,31.1,17.52,50.88,172.81,4.64,41.06,18.6,106.33,36.32,107.57,8,0.54,25.37-12.87,50-108.36l24.88-86.37a3,3,0,0,1,3.72-2.09,3,3,0,0,1,2.06,3.71l-24.86,86.2c-10.25,39.72-20.28,69.27-29.78,87.75C583,372,574.61,380.13,566.06,380.13Z" transform="translate(-113.04 -94)"/><path class="cls-24" d="M169.28,496.3c-2-8.83-11.5-12.62-20-12.48-6.59.14-13.88,2.38-17.8,7.43a12.85,12.85,0,0,0-2.38,9.11c0.7,10.09,11.78,11.36,22.29,12.34,13.46,1.68,30.14,5.19,33.93,20.89A34.84,34.84,0,0,1,186,540c0,18.93-18.79,29.86-36.45,29.86-15.14,0-33.51-9-35.33-26.5L114,540.74l14.3-.28,0.14,2.1V542c1,9.11,12.06,13.88,21.17,13.88,10.51,0,22-5.89,22-16a15.72,15.72,0,0,0-.42-3.36c-1.68-7.43-11.78-8.69-21.59-9.67-15.28-1.54-33.23-4.91-34.77-25.38v0.14A26.54,26.54,0,0,1,120.21,483c6.59-8.55,18.37-13,29.72-13,15.14,0,30.84,7.85,33.37,25.8Z" transform="translate(-113.04 -94)"/><path class="cls-24" d="M208.13,554.9H253.7v14.16H193.83v-98h59.72v14.16H208.13v27.62h44.44v14.3H208.13V554.9Z" transform="translate(-113.04 -94)"/><path class="cls-24" d="M321.89,540.18H286.7c-3.79,9-8.69,20.75-11.78,28.88H259.64l39.4-99.4h10.37l39.4,99.4H333.66ZM292,526.86h24.39l-12.06-34.63Z" transform="translate(-113.04 -94)"/><path class="cls-24" d="M402,496.3c-2-8.83-11.5-12.62-20-12.48-6.59.14-13.88,2.38-17.8,7.43a12.85,12.85,0,0,0-2.38,9.11c0.7,10.09,11.78,11.36,22.29,12.34,13.46,1.68,30.14,5.19,33.93,20.89a34.84,34.84,0,0,1,.7,6.45c0,18.93-18.79,29.86-36.45,29.86-15.14,0-33.51-9-35.33-26.5l-0.14-2.66,14.3-.28,0.14,2.1V542c1,9.11,12.06,13.88,21.17,13.88,10.51,0,22-5.89,22-16a15.72,15.72,0,0,0-.42-3.36c-1.68-7.43-11.78-8.69-21.59-9.67-15.28-1.54-33.23-4.91-34.77-25.38v0.14A26.54,26.54,0,0,1,352.94,483c6.59-8.55,18.37-13,29.72-13,15.14,0,30.84,7.85,33.37,25.8Z" transform="translate(-113.04 -94)"/><path class="cls-24" d="M474.7,485.08H456.48V554.9H474.7v14.16H424.09V554.9h18.23V485.08H424.09v-14H474.7v14Z" transform="translate(-113.04 -94)"/><path class="cls-25" d="M579.57,567h52.15v2.1h-54.4v-98h54.12v2.1H579.57v45.7h50.75v2.24H579.57V567Z" transform="translate(-113.04 -94)"/><path class="cls-25" d="M717.4,471.06h2.38l-39.4,99.54H678l-39.4-99.54H641l38.13,96.74Z" transform="translate(-113.04 -94)"/><path class="cls-26" d="M519.22,468.24H485.06a1.11,1.11,0,0,0-1.11,1.11v1.89a1,1,0,0,0,1,1h34.27c31.66,0,46.08,24.13,46.08,46.68,0,12.29-4.09,23.86-11.52,32.35-8.36,9.56-20.31,15-34.56,15H485a1,1,0,0,0-1,1v1.69a1.32,1.32,0,0,0,1.31,1.31h34c15.5,0,28.53-5.84,37.67-16.28,8.1-9.25,12.55-21.54,12.55-34.88C569.45,494.53,553.73,468.24,519.22,468.24Z" transform="translate(-113.04 -94)"/><path class="cls-27" d="M519.52,481H485.83c-0.83,0-1.83-.5-1.83.33v75.19c0,0.83,1,2.48,1.83,2.48h33.69a37.51,37.51,0,0,0,28.89-12.87A39.58,39.58,0,0,0,558,519.69C558,500.89,546,481,519.52,481Z" transform="translate(-113.04 -94)"/><path class="cls-28" d="M145.05,632.38a9.8,9.8,0,0,1-3.83,8.22q-3.83,3-10.38,3-7.1,0-10.93-1.83v-4.48a28.78,28.78,0,0,0,5.36,1.64,28.18,28.18,0,0,0,5.74.6q4.65,0,7-1.76a5.78,5.78,0,0,0,2.35-4.9,6.3,6.3,0,0,0-.83-3.4,7.74,7.74,0,0,0-2.79-2.45,39,39,0,0,0-5.94-2.54q-5.57-2-8-4.73a10.44,10.44,0,0,1-2.39-7.13,8.87,8.87,0,0,1,3.47-7.35,14.42,14.42,0,0,1,9.18-2.73,27.06,27.06,0,0,1,11,2.19l-1.45,4a24.76,24.76,0,0,0-9.62-2.08,9.31,9.31,0,0,0-5.77,1.58,5.22,5.22,0,0,0-2.08,4.4,6.74,6.74,0,0,0,.77,3.4,7.2,7.2,0,0,0,2.58,2.43A32.08,32.08,0,0,0,134,620.9q6.28,2.24,8.65,4.81A9.46,9.46,0,0,1,145.05,632.38Z" transform="translate(-113.04 -94)"/><path class="cls-28" d="M178.39,628q0,7.32-3.69,11.44t-10.19,4.11a13.5,13.5,0,0,1-7.13-1.89,12.44,12.44,0,0,1-4.81-5.41,18.85,18.85,0,0,1-1.69-8.25q0-7.32,3.66-11.41t10.16-4.08a12.67,12.67,0,0,1,10,4.18Q178.39,620.87,178.39,628Zm-22.82,0q0,5.74,2.3,8.74a9.11,9.11,0,0,0,13.51,0q2.31-3,2.31-8.76t-2.31-8.68a8.11,8.11,0,0,0-6.82-3,8,8,0,0,0-6.72,2.92Q155.57,622.21,155.57,628Z" transform="translate(-113.04 -94)"/><path class="cls-28" d="M199.84,616.58h-7.62V643h-4.54V616.58h-5.36v-2l5.36-1.64v-1.67q0-11,9.65-11a19.85,19.85,0,0,1,5.57,1l-1.17,3.63a15,15,0,0,0-4.48-.85,4.37,4.37,0,0,0-3.8,1.71q-1.23,1.71-1.23,5.48v1.94h7.62v3.52Z" transform="translate(-113.04 -94)"/><path class="cls-28" d="M215,639.81a14.82,14.82,0,0,0,2.32-.18,15,15,0,0,0,1.78-.37v3.47a8.29,8.29,0,0,1-2.17.59,16.31,16.31,0,0,1-2.58.23q-8.69,0-8.69-9.15V616.58h-4.29V614.4l4.29-1.89,1.91-6.39h2.62v6.94h8.69v3.52h-8.69v17.62a6.06,6.06,0,0,0,1.28,4.15A4.47,4.47,0,0,0,215,639.81Z" transform="translate(-113.04 -94)"/><path class="cls-28" d="M249.51,643L244,625.44q-0.52-1.61-1.94-7.32h-0.22q-1.09,4.78-1.91,7.38L234.29,643H229l-8.17-29.95h4.75L230,630.24a69.64,69.64,0,0,1,1.74,8H232q0.3-1.56,1-4t1.16-3.92l5.49-17.19h4.92l5.36,17.19a58,58,0,0,1,2.08,7.9h0.22a29,29,0,0,1,.59-3q0.48-2,5.7-22.05h4.7L254.9,643h-5.38Z" transform="translate(-113.04 -94)"/><path class="cls-28" d="M287,643l-0.9-4.26h-0.22a12.6,12.6,0,0,1-4.47,3.81,13.62,13.62,0,0,1-5.56,1,10,10,0,0,1-7-2.3,8.37,8.37,0,0,1-2.53-6.53q0-9.07,14.51-9.51l5.08-.16v-1.86q0-3.52-1.52-5.21t-4.85-1.68a19.76,19.76,0,0,0-8.47,2.3l-1.39-3.47a21.31,21.31,0,0,1,4.85-1.89,21,21,0,0,1,5.29-.68q5.36,0,7.94,2.38t2.58,7.62V643H287Zm-10.25-3.2a9.21,9.21,0,0,0,6.65-2.32,8.59,8.59,0,0,0,2.42-6.5v-2.71l-4.54.19q-5.41.19-7.8,1.68a5.07,5.07,0,0,0-2.39,4.63,4.67,4.67,0,0,0,1.49,3.74A6.18,6.18,0,0,0,276.75,639.81Z" transform="translate(-113.04 -94)"/><path class="cls-28" d="M313.37,612.51a17.75,17.75,0,0,1,3.58.33L316.32,617a15.45,15.45,0,0,0-3.28-.41,8,8,0,0,0-6.22,3,10.76,10.76,0,0,0-2.58,7.35V643h-4.54V613.06h3.74L304,618.6h0.22a13.16,13.16,0,0,1,4-4.51A9,9,0,0,1,313.37,612.51Z" transform="translate(-113.04 -94)"/><path class="cls-28" d="M335.2,643.55q-6.64,0-10.48-4t-3.84-11.23q0-7.24,3.57-11.5a11.84,11.84,0,0,1,9.58-4.26,11.29,11.29,0,0,1,8.91,3.7q3.28,3.7,3.28,9.77v2.87H325.58q0.14,5.27,2.66,8a9.21,9.21,0,0,0,7.12,2.73,24.12,24.12,0,0,0,9.56-2v4a24,24,0,0,1-4.55,1.49A25.57,25.57,0,0,1,335.2,643.55ZM334,616.31a7.41,7.41,0,0,0-5.75,2.35,10.83,10.83,0,0,0-2.53,6.5h15.66q0-4.29-1.91-6.57A6.73,6.73,0,0,0,334,616.31Z" transform="translate(-113.04 -94)"/><path class="cls-28" d="M401.05,622.65q0,9.89-5.37,15.12T380.23,643H369.16V603.06h12.24q9.32,0,14.48,5.16T401.05,622.65Zm-4.92.16q0-7.81-3.92-11.78t-11.65-4h-6.75V639h5.66q8.31,0,12.49-4.08T396.13,622.81Z" transform="translate(-113.04 -94)"/><path class="cls-28" d="M421.93,643.55q-6.64,0-10.48-4t-3.84-11.23q0-7.24,3.57-11.5a11.84,11.84,0,0,1,9.58-4.26,11.29,11.29,0,0,1,8.91,3.7q3.28,3.7,3.28,9.77v2.87H412.31q0.14,5.27,2.66,8a9.21,9.21,0,0,0,7.12,2.73,24.12,24.12,0,0,0,9.56-2v4a24,24,0,0,1-4.55,1.49A25.57,25.57,0,0,1,421.93,643.55Zm-1.23-27.24a7.41,7.41,0,0,0-5.75,2.35,10.83,10.83,0,0,0-2.53,6.5h15.66q0-4.29-1.91-6.57A6.73,6.73,0,0,0,420.7,616.31Z" transform="translate(-113.04 -94)"/><path class="cls-28" d="M447.23,643l-11.37-29.95h4.86l6.45,17.76a84.06,84.06,0,0,1,2.57,8.09H450a61.09,61.09,0,0,1,1.9-6q1.6-4.55,7.17-19.85h4.86L452.53,643h-5.3Z" transform="translate(-113.04 -94)"/><path class="cls-28" d="M481.36,643.55q-6.64,0-10.48-4T467,628.28q0-7.24,3.57-11.5a11.84,11.84,0,0,1,9.58-4.26,11.29,11.29,0,0,1,8.91,3.7q3.28,3.7,3.28,9.77v2.87H471.74q0.14,5.27,2.66,8a9.21,9.21,0,0,0,7.12,2.73,24.12,24.12,0,0,0,9.56-2v4a24,24,0,0,1-4.55,1.49A25.57,25.57,0,0,1,481.36,643.55Zm-1.23-27.24a7.41,7.41,0,0,0-5.75,2.35,10.83,10.83,0,0,0-2.53,6.5h15.66q0-4.29-1.91-6.57A6.73,6.73,0,0,0,480.13,616.31Z" transform="translate(-113.04 -94)"/><path class="cls-28" d="M504.64,643H500.1V600.49h4.54V643Z" transform="translate(-113.04 -94)"/><path class="cls-28" d="M540.1,628q0,7.32-3.69,11.44t-10.19,4.11a13.5,13.5,0,0,1-7.13-1.89,12.44,12.44,0,0,1-4.81-5.41,18.85,18.85,0,0,1-1.69-8.25q0-7.32,3.66-11.41t10.16-4.08a12.67,12.67,0,0,1,10,4.18Q540.1,620.87,540.1,628Zm-22.82,0q0,5.74,2.3,8.74a9.11,9.11,0,0,0,13.51,0q2.31-3,2.31-8.76t-2.31-8.68a8.11,8.11,0,0,0-6.82-3,8,8,0,0,0-6.72,2.92Q517.29,622.21,517.29,628Z" transform="translate(-113.04 -94)"/><path class="cls-28" d="M562,643.55a13,13,0,0,1-5.34-1.08,10,10,0,0,1-4.06-3.32h-0.33a40.17,40.17,0,0,1,.33,5v12.32h-4.54V613.06h3.69l0.63,4.1h0.22a10.53,10.53,0,0,1,4.07-3.55,12.38,12.38,0,0,1,5.33-1.09q6,0,9.19,4.07T574.42,628q0,7.38-3.29,11.46A11.09,11.09,0,0,1,562,643.55Zm-0.66-27.19q-4.59,0-6.64,2.54t-2.1,8.09v1q0,6.31,2.1,9t6.75,2.72a7,7,0,0,0,6.08-3.14q2.2-3.14,2.2-8.66t-2.2-8.59A7.23,7.23,0,0,0,561.34,616.36Z" transform="translate(-113.04 -94)"/><path class="cls-28" d="M620.52,643V623.52a8.09,8.09,0,0,0-1.53-5.37,5.92,5.92,0,0,0-4.75-1.79q-4.24,0-6.26,2.43t-2,7.49V643h-4.54V623.52a8.09,8.09,0,0,0-1.53-5.37,6,6,0,0,0-4.78-1.79q-4.26,0-6.24,2.55t-2,8.37V643h-4.54V613.06H586l0.74,4.1H587a8.91,8.91,0,0,1,3.62-3.42,11.06,11.06,0,0,1,5.23-1.23q7,0,9.18,5.08h0.22a9.55,9.55,0,0,1,3.88-3.72,12,12,0,0,1,5.79-1.37q5.08,0,7.61,2.61t2.53,8.35V643h-4.54Z" transform="translate(-113.04 -94)"/><path class="cls-28" d="M647.05,643.55q-6.64,0-10.48-4t-3.84-11.23q0-7.24,3.57-11.5a11.84,11.84,0,0,1,9.58-4.26,11.29,11.29,0,0,1,8.91,3.7q3.28,3.7,3.28,9.77v2.87H637.43q0.14,5.27,2.66,8a9.21,9.21,0,0,0,7.12,2.73,24.12,24.12,0,0,0,9.56-2v4a24,24,0,0,1-4.55,1.49A25.57,25.57,0,0,1,647.05,643.55Zm-1.23-27.24a7.41,7.41,0,0,0-5.75,2.35,10.83,10.83,0,0,0-2.53,6.5H653.2q0-4.29-1.91-6.57A6.73,6.73,0,0,0,645.82,616.31Z" transform="translate(-113.04 -94)"/><path class="cls-28" d="M686.29,643V623.63q0-3.66-1.67-5.46t-5.22-1.8q-4.7,0-6.89,2.54t-2.19,8.39V643H665.8V613.06h3.69l0.74,4.1h0.22a9.26,9.26,0,0,1,3.91-3.43,12.7,12.7,0,0,1,5.6-1.22q5.41,0,8.14,2.61t2.73,8.35V643h-4.54Z" transform="translate(-113.04 -94)"/><path class="cls-28" d="M709.82,639.81a14.82,14.82,0,0,0,2.32-.18,15,15,0,0,0,1.78-.37v3.47a8.29,8.29,0,0,1-2.17.59,16.31,16.31,0,0,1-2.58.23q-8.69,0-8.69-9.15V616.58h-4.29V614.4l4.29-1.89,1.91-6.39H705v6.94h8.69v3.52H705v17.62a6.06,6.06,0,0,0,1.28,4.15A4.47,4.47,0,0,0,709.82,639.81Z" transform="translate(-113.04 -94)"/></svg>