<svg width="86" height="70" xmlns="http://www.w3.org/2000/svg" xmlns:xlink="http://www.w3.org/1999/xlink"><defs><path d="M36.172.165a2 2 0 0 0 .16 3.392c-3.36.389-6.63 1.456-9.606 3.158a25.351 25.351 0 0 0-10.8 12.236 25.464 25.464 0 0 0-1.125 16.306 25.386 25.386 0 0 0 9.014 13.613 25.233 25.233 0 0 0 15.418 5.275h40.035l-8.588-8.62a1.683 1.683 0 0 1-.363-1.834 1.684 1.684 0 0 1 .907-.91 1.668 1.668 0 0 1 1.823.363l11.434 11.509c.177.153.302.338.388.543a1.686 1.686 0 0 1-.377 1.858L73.048 68.508a1.672 1.672 0 0 1-2.859-1.19 1.69 1.69 0 0 1 .491-1.191l8.588-8.62H39.233a28.581 28.581 0 0 1-17.467-5.97A28.76 28.76 0 0 1 11.55 36.114a28.852 28.852 0 0 1 1.274-18.478A28.72 28.72 0 0 1 25.058 3.772 28.575 28.575 0 0 1 35.677.224Zm-17.11 53.98c.444 0 .87.177 1.183.492a1.686 1.686 0 0 1-1.017 2.863l-.165.008H1.673a1.67 1.67 0 0 1-1.182-.492 1.685 1.685 0 0 1 1.017-2.863l.166-.008h17.389ZM43.179.272a28.61 28.61 0 0 1 16.487 8.316 28.84 28.84 0 0 1 4.233 34.809c-.235.394-.477.78-.732 1.167a1.677 1.677 0 0 1-1.72.75 1.67 1.67 0 0 1-1.081-.714 1.685 1.685 0 0 1 .01-1.891c.222-.335.437-.676.645-1.027a25.454 25.454 0 0 0 3.333-15.998 25.416 25.416 0 0 0-7.077-14.721 25.258 25.258 0 0 0-15.27-7.427A2 2 0 0 0 41.623.1c.518.043 1.037.1 1.555.172Z" id="a"/></defs><g fill="none" fill-rule="evenodd"><use fill="#2C2C2C" fill-rule="nonzero" xlink:href="#a" transform="translate(.5 .5)"/><path d="M39.75 6C52.59 6 63 16.41 63 29.25S52.59 52.5 39.75 52.5 16.5 42.09 16.5 29.25 26.91 6 39.75 6Zm.25 9c-7.72 0-14 6.28-14 14s6.28 14 14 14 14-6.28 14-14-6.28-14-14-14Zm-.999 2.049V19h2v-1.949l.402.04c2.267.266 4.34 1.161 6.042 2.512l.297.243-1.376 1.376 1.414 1.414 1.376-1.376.231.281a11.934 11.934 0 0 1 2.524 6.057l.04.403H50v2L51.949 30l-.04.402a11.936 11.936 0 0 1-2.512 6.042l-.243.297-1.376-1.376-1.414 1.414 1.376 1.376-.281.231a11.934 11.934 0 0 1-6.057 2.524l-.403.04V39h-2v1.949l-.402-.04a11.936 11.936 0 0 1-6.042-2.512l-.297-.243 1.376-1.376-1.414-1.414-1.376 1.376-.231-.281a11.934 11.934 0 0 1-2.524-6.057L28.05 30H30v-2h-1.949l.04-.402a11.936 11.936 0 0 1 2.512-6.042l.243-.297 1.376 1.376 1.414-1.414-1.376-1.376.281-.231a11.935 11.935 0 0 1 6.46-2.564ZM35.461 23 34 24.453l3.11 3.09a3.017 3.017 0 0 0-.312 1.32c0 1.338.867 2.468 2.067 2.893V34h2.068v-2.244c1.2-.425 2.067-1.555 2.067-2.893 0-1.7-1.391-3.082-3.101-3.082-.477 0-.924.116-1.328.31L35.46 23Zm4.438 4.836c.57 0 1.034.461 1.034 1.027 0 .566-.464 1.027-1.034 1.027-.57 0-1.034-.46-1.034-1.027 0-.566.465-1.027 1.034-1.027ZM42.819.75l1.094.115a1.65 1.65 0 0 1-.203 3.29l-.142-.008-1.094-.115a1.65 1.65 0 0 1 .203-3.29l.142.008ZM36.18.775a1.65 1.65 0 0 1 .487 3.261l-.141.021-1.094.115a1.65 1.65 0 0 1-.486-3.26l.14-.022 1.095-.115Z" fill="#2C2C2C" fill-rule="nonzero"/></g></svg>