<svg width="101" height="65" xmlns="http://www.w3.org/2000/svg"><path d="M68.5 0C86.45 0 101 14.55 101 32.5S86.45 65 68.5 65a32.349 32.349 0 0 1-18-5.435A32.356 32.356 0 0 1 32.5 65C14.55 65 0 50.45 0 32.5S14.55 0 32.5 0a32.349 32.349 0 0 1 18 5.436A32.346 32.346 0 0 1 68.5 0Zm-18 5.436C41.759 11.26 36 21.207 36 32.5s5.759 21.239 14.5 27.064C59.241 53.739 65 43.792 65 32.5S59.241 11.26 50.5 5.436Zm-39.024 31.36a.694.694 0 0 0-.379.17l-.073.077a.693.693 0 0 0-.002.878l.073.078.006.004 7.295 5.99a.693.693 0 0 0 .801.055l.078-.055 7.296-5.99.008-.007a.693.693 0 0 0-.877-1.07l-.008.006-6.857 5.63-6.857-5.63-.006-.004a.693.693 0 0 0-.498-.133Zm72.165-7.2a1 1 0 0 0-.993.884l-.007.117V41l.007.117a1 1 0 0 0 1.986 0l.007-.117V30.597l-.007-.117a1 1 0 0 0-.993-.883Zm-3.926 2.611a1 1 0 0 0-.993.883l-.007.117v7.792l.007.117a1 1 0 0 0 1.986 0l.007-.117v-7.792l-.007-.117a1 1 0 0 0-.993-.883Zm8-5.224a1 1 0 0 0-.993.884l-.007.116v13.015l.007.117a1 1 0 0 0 1.986 0l.007-.117V27.983l-.007-.116a1 1 0 0 0-.993-.884Zm-11.783 7.833a1 1 0 0 0-.994.884l-.006.116v5.181l.006.117a1 1 0 0 0 1.987 0l.007-.116v-5.182l-.007-.116a1 1 0 0 0-.993-.884Zm-50.238-2.46-6.857 5.63-6.857-5.63-.009-.006a.693.693 0 0 0-.876 1.07l.008.007 7.295 5.99a.693.693 0 0 0 .802.055l.078-.055 7.295-5.99a.695.695 0 0 0 .148-.903l-.053-.074a.693.693 0 0 0-.974-.094ZM18.836 21.85a.693.693 0 0 0-.362.102l-.078.055-7.293 5.99a.693.693 0 0 0-.074 1l.074.07 7.295 5.99a.693.693 0 0 0 .802.056l.078-.055 7.293-5.99a.692.692 0 0 0 .074-1l-.074-.07-7.296-5.99a.693.693 0 0 0-.44-.158Zm0 1.588 6.204 5.094-6.203 5.095-6.201-5.095 6.2-5.094Zm67.406-.99-.104.052-11.271 6.508-.098.064a1 1 0 0 0 .994 1.72l.104-.053 11.271-6.507.098-.064a1 1 0 0 0-.994-1.72Z" fill="#2C2C2C" fill-rule="nonzero"/></svg>