<?xml version="1.0" encoding="UTF-8"?>
<svg width="131px" height="145px" viewBox="0 0 131 145" version="1.1" xmlns="http://www.w3.org/2000/svg" xmlns:xlink="http://www.w3.org/1999/xlink">
    <title>Group 3</title>
    <g id="Page-1" stroke="none" stroke-width="1" fill="none" fill-rule="evenodd">
        <g id="producto" fill-rule="nonzero">
            <g id="Group-3">
                <path d="M55.5,2.7735 C61.688,-0.79915 69.312,-0.79915 75.5,2.7735 L120.885,28.9765 C127.073,32.5492 130.885,39.1517 130.885,46.297 L130.885,98.703 C130.885,105.848 127.073,112.451 120.885,116.023 L75.5,142.227 C69.312,145.799 61.688,145.799 55.5,142.227 L10.1151,116.023 C3.9271,112.451 0.1151,105.848 0.1151,98.703 L0.1151,46.297 C0.1151,39.1517 3.9271,32.5492 10.1151,28.9765 L55.5,2.7735 Z" id="Path" fill="#03CCAB"></path>
                <path d="M83.5,41 C101.449254,41 116,55.5507456 116,73.5 C116,91.4492544 101.449254,106 83.5,106 C76.8431678,106 70.653781,103.998629 65.5007258,100.564773 C60.3470253,103.998368 54.1572657,106 47.5,106 C29.5507456,106 15,91.4492544 15,73.5 C15,55.5507456 29.5507456,41 47.5,41 C54.1572657,41 60.3470253,43.0016319 65.5002811,46.435898 C70.653781,43.0013712 76.8431678,41 83.5,41 Z M65.5,46.4355 C56.7589,52.2607 51,62.2077 51,73.4998 C51,84.7919 56.7589,94.739 65.5,100.564 C74.2411,94.739 80,84.7919 80,73.4998 C80,62.2077 74.2411,52.2607 65.5,46.4355 Z M26.4758,77.7951 C26.33412,77.8123 26.202104,77.872636 26.0970064,77.966636 L26.0235,78.0433 C25.9103,78.1812 25.8546,78.3574 25.868,78.5353 C25.87864,78.67762 25.932928,78.812196 26.0221088,78.9214664 L26.0953,78.9985 L26.1006,79.0028 L33.3964,84.9929 C33.5203,85.0945 33.6756,85.15 33.8358,85.15 C33.96404,85.15 34.08908,85.11448 34.1974032,85.0482528 L34.2754,84.9928 L41.5711,79.0028 L41.5713,79.0031 L41.5786,78.9963 C41.7067,78.876 41.7843,78.7116 41.7958,78.5363 C41.8073,78.3609 41.7518,78.1878 41.6405,78.0518 C41.5292,77.9159 41.3704,77.8272 41.1963,77.8039 C41.0221,77.7805 40.8456,77.8242 40.7024,77.926 L40.7022,77.9257 L40.6942,77.9323 L33.8369,83.5617 L26.9797,77.9322 L26.9743,77.9282 C26.8315,77.8213 26.6529,77.7737 26.4758,77.7951 Z M98.641,70.5967 C98.1275,70.5967 97.705398,70.982727 97.6477176,71.4800761 L97.641,71.5967 L97.641,82.0003 L97.6477176,82.1169239 C97.705398,82.614273 98.1275,83.0003 98.641,83.0003 C99.1535714,83.0003 99.5764694,82.614273 99.6342682,82.1169239 L99.641,82.0003 L99.641,71.5967 L99.6342682,71.4800761 C99.5764694,70.982727 99.1535714,70.5967 98.641,70.5967 Z M94.715,73.207 C94.2024286,73.207 93.7795306,73.593027 93.7217318,74.0903761 L93.715,74.207 L93.715,81.9994 L93.7217318,82.1160239 C93.7795306,82.613373 94.2024286,82.9994 94.715,82.9994 C95.2275714,82.9994 95.6504694,82.613373 95.7082682,82.1160239 L95.715,81.9994 L95.715,74.207 L95.7082682,74.0903761 C95.6504694,73.593027 95.2275714,73.207 94.715,73.207 Z M102.715,67.9834 C102.202429,67.9834 101.779531,68.369427 101.721732,68.8667761 L101.715,68.9834 L101.715,81.9983 L101.721732,82.1149239 C101.779531,82.612273 102.202429,82.9983 102.715,82.9983 C103.227571,82.9983 103.650469,82.612273 103.708268,82.1149239 L103.715,81.9983 L103.715,68.9834 L103.708268,68.8667761 C103.650469,68.369427 103.227571,67.9834 102.715,67.9834 Z M90.932,75.8164 C90.4185,75.8164 89.9960531,76.202427 89.9383234,76.6997761 L89.9316,76.8164 L89.9316,81.9975 L89.9383234,82.1141055 C89.9960531,82.6113867 90.4185,82.9975 90.932,82.9975 C91.4445714,82.9975 91.8674694,82.6113867 91.9252682,82.1141055 L91.932,81.9975 L91.932,76.8164 L91.9252682,76.6997761 C91.8674694,76.202427 91.4445714,75.8164 90.932,75.8164 Z M40.6943,73.356 L40.6942,73.3561 L33.8369,78.9855 L26.9796,73.3561 L26.9799,73.3558 L26.9714,73.3498 C26.8282,73.248 26.6517,73.2043 26.4776,73.2277 C26.3034,73.251 26.1446,73.3396 26.0333,73.4756 C25.922,73.6116 25.8665,73.7847 25.878,73.96 C25.8895,74.1354 25.9671,74.2998 26.0953,74.42 L26.095,74.4203 L26.1027,74.4266 L33.3985,80.4167 C33.5225,80.5183 33.6778,80.5738 33.838,80.5738 C33.96624,80.5738 34.091216,80.53828 34.1995648,80.4720528 L34.2776,80.4166 L41.5734,74.4265 C41.6437,74.3686 41.7019,74.2974 41.7447,74.2171 C41.7875,74.1367 41.814,74.0487 41.8228,73.958 C41.8315,73.8674 41.8223,73.7759 41.7957,73.6888 C41.7779667,73.6308 41.7527222,73.5754667 41.7207074,73.5241926 L41.6675,73.4503 C41.5507,73.3091 41.3827,73.22 41.2004,73.2023 C41.018,73.1847 40.8361,73.2399 40.6943,73.356 Z M33.8358,62.85 C33.70764,62.85 33.582616,62.88552 33.474296,62.9517472 L33.3963,63.0072 L26.1026,68.9973 C26.0236,69.0623 25.96,69.144 25.9163,69.2365 C25.8726,69.3291 25.85,69.4301 25.85,69.5324 C25.85,69.6347 25.8726,69.7358 25.9163,69.8283 C25.9454333,69.8899667 25.9834111,69.9468333 26.0289,69.9971519 L26.1027,70.0677 L33.3985,76.0577 C33.5225,76.1593 33.6778,76.2148 33.838,76.2148 C33.96624,76.2148 34.091216,76.17928 34.1995648,76.1130528 L34.2776,76.0576 L41.5713,70.0675 C41.6503,70.0025 41.7139,69.9208 41.7575,69.8283 C41.8012,69.7358 41.8238,69.6347 41.8238,69.5324 C41.8238,69.4301 41.8012,69.3291 41.7575,69.2365 C41.7284333,69.1748333 41.6904778,69.1179667 41.6449963,69.0676481 L41.5711,68.9972 L34.2753,63.0071 C34.1514,62.9055 33.9961,62.85 33.8358,62.85 Z M33.8369,64.4383 L40.0403,69.5324 L33.8369,74.6265 L27.6357,69.5324 L33.8369,64.4383 Z M101.242308,63.4475232 L101.138,63.5 L89.8666,70.0075 L89.7689666,70.0716286 C89.3671444,70.3702913 89.2442214,70.9293643 89.5006,71.3735 C89.7569786,71.8176357 90.3023816,71.9906816 90.7625025,71.7919953 L90.867,71.7395 L102.138,65.2321 L102.235577,65.1679514 C102.637184,64.8692087 102.760286,64.3101357 102.504,63.866 C102.247714,63.4218643 101.701714,63.2489046 101.242308,63.4475232 Z" id="Combined-Shape" fill="#2C2C2C"></path>
            </g>
        </g>
    </g>
</svg>