<svg width="80" height="80" xmlns="http://www.w3.org/2000/svg"><g fill="none" fill-rule="evenodd"><g fill="#2C2C2C" fill-rule="nonzero"><path d="M68.263 20.13a1.612 1.612 0 0 1 1.324-.19c.43.126.817.43 1.057.884.238.45.286.962.172 1.427a1.873 1.873 0 0 1-.807 1.147l-3.523 2.221a1.612 1.612 0 0 1-1.324.19 1.759 1.759 0 0 1-1.056-.883 2.028 2.028 0 0 1-.172-1.427c.114-.467.393-.886.807-1.147l3.522-2.221Zm-57.1-.19a1.612 1.612 0 0 1 1.324.19l3.522 2.222c.414.261.692.68.807 1.147.114.465.065.978-.172 1.427a1.76 1.76 0 0 1-1.056.884 1.612 1.612 0 0 1-1.325-.19l-3.522-2.222a1.872 1.872 0 0 1-.807-1.147 2.027 2.027 0 0 1 .172-1.427 1.76 1.76 0 0 1 1.056-.884ZM57.49 7.935a2.037 2.037 0 0 1 1.44.174c.452.24.755.626.88 1.055.125.429.072.902-.188 1.316l-2.212 3.524a1.876 1.876 0 0 1-1.15.811 2.037 2.037 0 0 1-1.44-.174 1.76 1.76 0 0 1-.88-1.055 1.608 1.608 0 0 1 .188-1.316l2.212-3.524a1.876 1.876 0 0 1 1.15-.811Zm-35.67.174c.454-.24.971-.29 1.44-.174.468.115.889.395 1.15.81l2.212 3.525c.26.414.313.887.188 1.316a1.76 1.76 0 0 1-.88 1.055c-.454.24-.971.29-1.44.174a1.877 1.877 0 0 1-1.15-.81l-2.212-3.525a1.608 1.608 0 0 1-.188-1.316 1.76 1.76 0 0 1 .88-1.055Zm18.055-5.234c.553 0 1.054.207 1.416.54.36.334.584.793.584 1.3v4.32c0 .507-.223.966-.584 1.3-.362.333-.863.54-1.416.54a2.083 2.083 0 0 1-1.416-.54 1.765 1.765 0 0 1-.584-1.3v-4.32c0-.507.223-.966.584-1.3.362-.333.863-.54 1.416-.54ZM10.875 57.406v18.911h9.88v-18.91h-9.88Zm5.95 6.375c0 .53-.532 1.062-1.063 1.062-.531 0-1.062-.531-1.062-1.063v-1.487c0-.531.53-1.062 1.062-1.062.531 0 1.062.531 1.062 1.062v1.488ZM63.147 59.319c-.531 0-1.063.106-1.487.318l-.425.213-13.174 5.737c.106.212.213.424.213.637.318 1.275.212 2.55-.532 3.612-.637 1.169-1.7 1.912-2.868 2.231-.425.106-.85.213-1.275.213-.85 0-1.7-.213-2.443-.638l-13.599-7.861c-.531-.32-.637-.957-.425-1.488.319-.531.956-.637 1.488-.425l13.598 7.862c.637.319 1.381.425 2.019.319.637-.213 1.274-.638 1.593-1.275a3.393 3.393 0 0 0 .319-2.019c-.213-.637-.638-1.275-1.275-1.593l-13.386-7.756h-8.605v18.911l14.98 1.699 6.267-2.549 20.504-9.03c1.913-.85 2.762-2.975 1.913-4.887-.532-1.382-1.913-2.231-3.4-2.231ZM35.802 20.72v7.927h-7.927V53.03h25.994V20.72H35.802Zm7.896 13.563 1.487-1.17 4.452 5.657-4.452 5.658-1.487-1.171 3.53-4.487-3.53-4.487Zm-3.773-1.196h1.893v11.366h-1.893V33.087Zm-3.367.025 1.488 1.17-3.53 4.488 3.53 4.487-1.488 1.17-4.452-5.657 4.452-5.658Z"/><path d="M33.908 26.754v-4.848l-4.848 4.848zM46.783 63.78l12.43-5.418c-.637-.956-1.806-1.487-2.975-1.487-.53 0-1.062.106-1.487.319l-10.942 4.78 2.23 1.275c.213.213.532.319.744.532Z"/></g><path d="M0 0h80v80H0z"/></g></svg>