<?xml version="1.0" encoding="UTF-8"?>
<svg width="131px" height="145px" viewBox="0 0 131 145" version="1.1" xmlns="http://www.w3.org/2000/svg" xmlns:xlink="http://www.w3.org/1999/xlink">
    <title>legacy</title>
    <g id="Page-1" stroke="none" stroke-width="1" fill="none" fill-rule="evenodd">
        <g id="legacy">
            <path d="M55.3849,2.6794875 C61.5729,-0.8931625 69.1969,-0.8931625 75.3849,2.6794875 L120.7699,28.8824875 C126.9579,32.4551875 130.7699,39.0576875 130.7699,46.2029875 L130.7699,98.6089875 C130.7699,105.753987 126.9579,112.356987 120.7699,115.928988 L75.3849,142.132988 C69.1969,145.704988 61.5729,145.704988 55.3849,142.132988 L10,115.928988 C3.812,112.356987 0,105.753987 0,98.6089875 L0,46.2029875 C0,39.0576875 3.812,32.4551875 10,28.8824875 L55.3849,2.6794875 Z" id="Path" fill="#03CCAB" fill-rule="nonzero"></path>
            <g id="Group-3" transform="translate(26.000000, 32.000000)">
                <g id="Group-2" transform="translate(9.000000, 2.000000)" fill="#2C2C2C" fill-rule="nonzero">
                    <g id="Group">
                        <path d="M59.2628848,18.1307634 C59.6803584,17.8673089 60.1559479,17.8141074 60.5873887,17.9402695 C61.017281,18.0659788 61.4038639,18.3700284 61.6439322,18.8238976 C61.8815207,19.2734167 61.9301376,19.7857682 61.8159929,20.2507772 C61.7013307,20.7178941 61.4228194,21.1365771 61.0090396,21.3976379 L61.0090396,21.3976379 L57.4862687,23.6192989 C57.0687828,23.8827128 56.593177,23.9358892 56.1618348,23.8097096 C55.7321315,23.6840095 55.3458291,23.380046 55.1061686,22.9261722 C54.8685,22.4765016 54.8196887,21.9639578 54.9338648,21.4988035 C55.0484777,21.0318703 55.3269433,20.6133743 55.7410757,20.3523165 L55.7410757,20.3523165 L59.2628848,18.1307634 Z M2.16206571,17.9402668 C2.59345479,17.8141026 3.06907837,17.8673178 3.4867082,18.1307854 L3.4867082,18.1307854 L7.00890574,20.3523189 C7.42282964,20.6134065 7.70132709,21.0320276 7.81598537,21.4990774 C7.93016045,21.9641588 7.88148965,22.4765975 7.64391076,22.9261755 C7.40404327,23.3800241 7.01763055,23.6840234 6.58782845,23.8097235 C6.15643569,23.9358888 5.68080777,23.8826986 5.26318736,23.6192854 L5.26318736,23.6192854 L1.74088744,21.3976416 C1.32700867,21.1366031 1.04853774,20.7180047 0.933894253,20.2509687 C0.819734236,19.7859022 0.868406631,19.2734686 1.10598773,18.8238864 C1.34585437,18.3699912 1.73226463,18.0659666 2.16206571,17.9402668 Z M48.4901227,5.93469034 C48.9588812,5.81924751 49.4756802,5.86806774 49.9294789,6.10903838 C50.3815761,6.34916129 50.6851207,6.7345335 50.8103008,7.16389867 C50.9353792,7.59291509 50.8822716,8.0656625 50.6219317,8.48040845 L50.6219317,8.48040845 L48.4101396,12.0041381 C48.1488113,12.420492 47.7281767,12.699953 47.2597682,12.8153097 C46.7910097,12.9307525 46.2742107,12.8819323 45.820412,12.6409616 C45.3683148,12.4008387 45.0647702,12.0154665 44.9395901,11.5861013 C44.8145117,11.1570849 44.8676193,10.6843375 45.1279592,10.2695916 L45.1279592,10.2695916 L47.3397513,6.74586193 C47.6010796,6.32950804 48.0217142,6.05004699 48.4901227,5.93469034 Z M12.8203958,6.1090467 C13.2742107,5.8680674 13.7910097,5.81924716 14.2597682,5.93469 C14.7281767,6.05004666 15.1488113,6.32950774 15.4101413,6.7458644 L15.4101413,6.7458644 L17.6219333,10.2695942 C17.8822715,10.6843377 17.9353791,11.1570851 17.8103007,11.5861016 C17.6851206,12.0154668 17.381576,12.400839 16.9294951,12.6409533 C16.4756811,12.8819322 15.9588834,12.9307524 15.4901138,12.815311 C15.0216849,12.6999536 14.6010196,12.4204873 14.3396473,12.0041387 L14.3396473,12.0041387 L12.1279576,8.48040582 C11.8676194,8.06566238 11.8145118,7.59291492 11.9395902,7.16389846 C12.0647703,6.73453325 12.3683149,6.349161 12.8203958,6.1090467 Z M30.8749454,0.875 C31.4283559,0.875 31.9289436,1.08153958 32.2911699,1.4158916 C32.6516452,1.74862721 32.8749454,2.20810366 32.8749454,2.71522749 L32.8749454,2.71522749 L32.8749454,7.03477251 C32.8749454,7.54189634 32.6516452,8.00137279 32.2911699,8.3341084 C31.9289436,8.66846042 31.4283559,8.875 30.8749454,8.875 C30.321535,8.875 29.8209473,8.66846042 29.458721,8.3341084 C29.0982457,8.00137279 28.8749454,7.54189634 28.8749454,7.03477251 L28.8749454,7.03477251 L28.8749454,2.71522749 C28.8749454,2.20810366 29.0982457,1.74862721 29.458721,1.4158916 C29.8209473,1.08153958 30.321535,0.875 30.8749454,0.875 Z" id="Shape"></path>
                        <path d="M1.87494545,55.4062 L1.87494545,74.317 L11.7550454,74.317 L11.7550454,55.4062 L1.87494545,55.4062 Z M7.82424545,61.7805 C7.82424545,62.3117 7.29304545,62.8429 6.76184545,62.8429 C6.23064545,62.8429 5.69954545,62.3117 5.69954545,61.7805 L5.69954545,60.2932 C5.69954545,59.762 6.23064545,59.2308 6.76184545,59.2308 C7.29304545,59.2308 7.82424545,59.762 7.82424545,60.2932 L7.82424545,61.7805 Z" id="Shape"></path>
                        <path d="M54.1468454,57.3185 C53.6156454,57.3185 53.0844454,57.4248 52.6595454,57.6372 L52.2345454,57.8497 L39.0611454,63.5866 C39.1673454,63.799 39.2735454,64.0115 39.2735454,64.224 C39.5922454,65.4988 39.4860454,66.7737 38.7423454,67.8361 C38.1049454,69.005 37.0425454,69.748 35.8739454,70.067 C35.4490454,70.173 35.0240454,70.28 34.5991454,70.28 C33.7492454,70.28 32.8993454,70.067 32.1556454,69.642 L18.5572454,61.7805 C18.0260454,61.4618 17.9197454,60.8244 18.1322454,60.2932 C18.4509454,59.762 19.0884454,59.6558 19.6196454,59.8682 L33.2180454,67.7298 C33.8554454,68.049 34.5991454,68.155 35.2365454,68.049 C35.8739454,67.8361 36.5113454,67.4111 36.8301454,66.7737 C37.1488454,66.1363 37.2550454,65.3926 37.1488454,64.7552 C36.9363454,64.1177 36.5114454,63.4803 35.8739454,63.1616 L22.4880454,55.4062 L13.8827454,55.4062 L13.8827454,74.317 L28.8622454,76.016 L35.1303454,73.467 L55.6339454,64.4365 C57.5469454,63.5866 58.3959454,61.4618 57.5469454,59.5495 C57.0149454,58.1684 55.6339454,57.3185 54.1468454,57.3185 Z" id="Path"></path>
                        <path d="M26.8016454,18.7207 L26.8016454,26.6474 L18.8749454,26.6474 L18.8749454,51.0299 L44.8688454,51.0299 L44.8688454,18.7207 L26.8016454,18.7207 Z M34.6975454,32.2829 L36.1854454,31.1122 L40.6371454,36.7699 L36.1854454,42.4276 L34.6975454,41.2569 L38.2283454,36.7699 L34.6975454,32.2829 Z M30.9253454,31.0871 L32.8184454,31.0871 L32.8184454,42.4527 L30.9253454,42.4527 L30.9253454,31.0871 Z M27.5584454,31.1122 L29.0460454,32.2829 L25.5154454,36.7699 L29.0460454,41.2569 L27.5584454,42.4276 L23.1063454,36.7699 L27.5584454,31.1122 Z" id="Shape"></path>
                        <polygon id="Path" points="24.9079454 24.7537 24.9079454 19.9062 20.0604454 24.7537"></polygon>
                    </g>
                    <path d="M37.7832454,61.7805 L50.2130454,56.3623 C49.5755454,55.4062 48.4069454,54.875 47.2383454,54.875 C46.7071454,54.875 46.1759454,54.9812 45.7510454,55.1937 L34.8085454,59.9744 L37.0395454,61.2493 C37.2520454,61.4617 37.5707454,61.568 37.7832454,61.7805 Z" id="Path"></path>
                </g>
                <rect id="Rectangle" x="0" y="0" width="80" height="80"></rect>
            </g>
        </g>
    </g>
</svg>