<?xml version="1.0" encoding="UTF-8"?>
<svg width="80px" height="80px" viewBox="0 0 80 80" version="1.1" xmlns="http://www.w3.org/2000/svg" xmlns:xlink="http://www.w3.org/1999/xlink">
    <title>Group 4</title>
    <g id="Page-1" stroke="none" stroke-width="1" fill="none" fill-rule="evenodd">
        <g id="refectoring" transform="translate(-176.000000, -30.000000)">
            <g id="Group-4" transform="translate(176.000000, 30.000000)">
                <g id="Group-3" transform="translate(9.000000, 2.000000)" fill="#2C2C2C" fill-rule="nonzero">
                    <g id="Group-2">
                        <path d="M35,32 L34.999,40 L28.9062,40 L28.906,32 L35,32 Z M61.088,0 L61.088,40 L36.999,40 L37,30 L28.906,30 L28.9062,9.8135 L38.7198,9.8135 L38.7198,0 L61.088,0 Z M46.1688,15.3101 L43.8251,15.3101 L43.8251,29.3811 L46.1688,29.3811 L46.1688,15.3101 Z M50.3372,15.3412 L48.4952,16.7905 L52.8665,22.3456 L48.4952,27.9007 L50.3372,29.35 L55.849,22.3456 L50.3372,15.3412 Z M39.6567,15.3412 L34.1449,22.3456 L39.6567,29.35 L41.4984,27.9007 L37.1274,22.3456 L41.4984,16.7905 L39.6567,15.3412 Z" id="Shape"></path>
                        <path d="M18.749,11.2917 C18.7462,10.4633 18.0724,9.8023 17.2441,9.8153 L3.7455,10.0266 C2.9172,10.0395 2.248,10.7216 2.25079125,11.5499 C2.2536,12.3783 2.9274,13.0393 3.7558,13.0263 L15.7545,12.8385 L15.7955,24.8377 C15.7984,25.666 16.4722,26.3271 17.3005,26.3141 C18.1288,26.3011 18.7981,25.6191 18.7952094,24.7907 L18.749,11.2917 Z M10.1599,20.669 L18.3134,12.3591 L16.185,10.2712 L8.0315,18.581 L10.1599,20.669 Z" id="Shape"></path>
                        <path d="M40.5928,61.6488 C40.5956,62.4771 41.2694,63.1381 42.0977,63.1252 L55.596,62.9139 C56.425,62.9009 57.094,62.2189 57.0910101,61.3905 C57.088,60.5621 56.414,59.9011 55.586,59.9141 L43.5873,60.1019 L43.5463,48.1027 C43.5434,47.2744 42.8696,46.6134 42.0413,46.6263 C41.2129,46.6393 40.5437,47.3213 40.5465906,48.1497 L40.5928,61.6488 Z M49.1819,52.2714 L41.0284,60.5813 L43.1568,62.6693 L51.3103,54.3594 L49.1819,52.2714 Z" id="Shape"></path>
                        <g id="Group" transform="translate(0.000000, 31.000000)">
                            <path d="M10.9285,0.4893 L10.9285,11.1677 L0.25,11.1677 L0.25,44.015 L35.2678,44.015 L35.2678,0.4893 L10.9285,0.4893 Z M21.5654,18.7596 L23.5698,17.1826 L29.5671,24.8043 L23.5698,32.426 L21.5654,30.849 L26.322,24.8043 L21.5654,18.7596 Z M16.4837,17.1487 L19.034,17.1487 L19.034,32.4599 L16.4837,32.4599 L16.4837,17.1487 Z M11.9479,17.1826 L13.952,18.7596 L9.1957,24.8043 L13.952,30.849 L11.9479,32.426 L5.9504,24.8043 L11.9479,17.1826 Z" id="Shape"></path>
                            <polygon id="Path" points="8.3798 8.6171 8.3798 2.0869 1.8496 8.6171"></polygon>
                        </g>
                    </g>
                    <polygon id="Path" points="36.3763 7.47 36.3763 1.4688 30.375 7.47"></polygon>
                </g>
                <rect id="Rectangle" x="0" y="0" width="80" height="80"></rect>
            </g>
        </g>
    </g>
</svg>