<svg width="80" height="80" xmlns="http://www.w3.org/2000/svg"><g fill="none" fill-rule="evenodd"><g fill="#2C2C2C" fill-rule="nonzero"><path d="m44 34-.001 8h-6.093v-8H44ZM70.088 2v40H45.999L46 32h-8.094V11.813h9.814V2h22.368Zm-14.92 15.31h-2.343v14.071h2.344v-14.07Zm4.17.031-1.843 1.45 4.372 5.555-4.372 5.555 1.842 1.449 5.512-7.004-5.512-7.005Zm-10.681 0-5.512 7.005 5.512 7.004 1.841-1.45-4.37-5.554 4.37-5.555-1.841-1.45ZM27.749 13.292a1.478 1.478 0 0 0-1.505-1.477l-13.498.212a1.522 1.522 0 0 0-1.495 1.523c.003.828.676 1.49 1.505 1.476l11.998-.188.041 12c.003.828.677 1.49 1.505 1.476a1.522 1.522 0 0 0 1.495-1.523l-.046-13.5Zm-8.59 9.377 8.154-8.31-2.128-2.088-8.153 8.31 2.128 2.088ZM49.593 63.649c.003.828.676 1.49 1.505 1.476l13.498-.211a1.522 1.522 0 0 0 1.495-1.523 1.478 1.478 0 0 0-1.505-1.477l-11.999.188-.04-12a1.478 1.478 0 0 0-1.506-1.476 1.522 1.522 0 0 0-1.494 1.524l.046 13.499Zm8.589-9.378-8.154 8.31 2.129 2.088 8.153-8.31-2.128-2.088Z"/><path d="M19.928 33.49v10.678H9.25v32.847h35.018V33.489h-24.34Zm10.637 18.27 2.005-1.577 5.997 7.621-5.997 7.622-2.005-1.577 4.757-6.045-4.757-6.044Zm-5.081-1.611h2.55v15.31h-2.55V50.15Zm-4.536.034 2.004 1.577-4.756 6.044 4.756 6.045-2.004 1.577-5.998-7.622 5.998-7.621Z"/><path d="M17.38 41.617v-6.53l-6.53 6.53zM45.376 9.47V3.469L39.375 9.47z"/></g><path d="M0 0h80v80H0z"/></g></svg>