<svg width="81" height="73" fill="none" xmlns="http://www.w3.org/2000/svg"><ellipse cx="39.875" cy="15.595" rx="15.851" ry="15.595" fill="#2C2C2C"/><ellipse cx="64.15" cy="56.777" rx="15.851" ry="15.595" fill="#2C2C2C"/><ellipse cx="15.851" cy="56.656" rx="15.851" ry="15.595" fill="#2C2C2C"/><path d="M54.37 42.971a1.5 1.5 0 0 0 1.843-1.052l3.437-12.956a1.5 1.5 0 0 0-1.079-1.827 1.5 1.5 0 0 0-1.842 1.052l-3.055 11.517-11.68-3.099a1.5 1.5 0 0 0-1.842 1.052 1.5 1.5 0 0 0 1.078 1.827l13.14 3.486Zm-6.567-10.264 5.647 9.569 2.605-1.489-5.647-9.568-2.605 1.488ZM31.124 31.588c-.107-.814-.866-1.393-1.695-1.292L15.923 31.94c-.829.1-1.414.843-1.306 1.658.107.815.866 1.394 1.695 1.293l12.005-1.463 1.556 11.804c.107.815.866 1.394 1.695 1.293a1.482 1.482 0 0 0 1.306-1.659l-1.75-13.278Zm-7.191 9.843 6.89-8.746-2.398-1.828-6.89 8.746 2.398 1.828ZM33.606 57.33a1.478 1.478 0 0 0 .005 2.108l9.628 9.464c.591.581 1.547.579 2.134-.005a1.478 1.478 0 0 0-.005-2.108l-8.558-8.412 8.516-8.454a1.478 1.478 0 0 0-.005-2.108 1.522 1.522 0 0 0-2.135.005l-9.58 9.51Zm12.312-.466-11.246.027.008 2.982 11.246-.028-.008-2.981Z" fill="#2C2C2C"/></svg>