<?xml version="1.0" encoding="UTF-8"?>
<svg width="360" height="270" viewBox="0 0 360 270" xmlns="http://www.w3.org/2000/svg">
  <defs>
    <mask id="cutout" maskUnits="userSpaceOnUse">
      <rect width="360" height="270" fill="white"/>
      <!-- Scaled and centered dots -->
      <circle cx="112.5" cy="85.5" r="4.5" fill="black"/>
      <circle cx="127.5" cy="85.5" r="4.5" fill="black"/>
      <circle cx="142.5" cy="85.5" r="4.5" fill="black"/>
      <!-- Top card lines (only two kept) -->
      <rect x="210" y="150" width="60" height="6" fill="black"/>
      <rect x="210" y="165" width="60" height="6" fill="black"/>
      <!-- Lower card lines -->
      <rect x="165" y="195" width="60" height="6" fill="black"/>
      <rect x="165" y="210" width="60" height="6" fill="black"/>
      <rect x="165" y="225" width="60" height="6" fill="black"/>
    </mask>
  </defs>

  <g mask="url(#cutout)">
    <!-- User icon -->
    <circle cx="75" cy="180" r="22.5" fill="#0f4c5c"/>
    <path d="M52.5,225 Q75,202.5 97.5,225 Q75,255 52.5,225 Z" fill="#0f4c5c"/>

    <!-- Speech bubble -->
    <path d="M90,52.5 h75 a15,15 0 0 1 15,15 v37.5 a15,15 0 0 1 -15,15 h-15 l-15,15 v-15 h-45 a15,15 0 0 1 -15,-15 v-37.5 a15,15 0 0 1 15,-15 z" fill="#0f4c5c"/>

    <!-- Main card (top right, shifted left) -->
    <rect x="195" y="135" width="105" height="75" rx="6" ry="6" fill="#0f4c5c"/>

    <!-- Overlapping card (bottom left, shifted left) -->
    <rect x="150" y="180" width="105" height="75" rx="6" ry="6" fill="#0f4c5c"/>
  </g>
</svg>