<svg width="100" height="26" fill="none" xmlns="http://www.w3.org/2000/svg"><g clip-path="url(#a)" fill-rule="evenodd" clip-rule="evenodd" fill="#000"><path d="M99.79 18.562c-.294.161-.67.3-1.13.416-.46.117-.938.175-1.434.175-.92 0-1.71-.228-2.372-.685-.662-.456-1.094-1.096-1.296-1.92-.883.949-1.72 1.643-2.51 2.081a5.148 5.148 0 0 1-2.537.658c-1.58 0-2.799-.532-3.653-1.598-.855-1.065-1.283-2.636-1.283-4.713v-3.49h-2.234V6.288h6.426v6.687c0 .788.175 1.406.524 1.853.35.448.947.672 1.792.672 1.03 0 2.142-.636 3.337-1.907V9.485h-2.04V6.29h6.232v8.728c0 .52.23.779.689.779.257 0 .478-.036.662-.107l.827 2.873ZM76.492 5.032c-.76 0-1.4-.236-1.919-.706a2.279 2.279 0 0 1-.779-1.762c0-.748.26-1.362.779-1.843.52-.48 1.159-.721 1.919-.721.816 0 1.478.24 1.988.721.51.48.765 1.095.765 1.843 0 .705-.26 1.292-.779 1.762s-1.177.705-1.974.705Zm4.85 10.658v3.178h-9.225V15.69h2.543V9.467h-2.543V6.29h6.655v9.4h2.57ZM70.86 9.485h-1.684l-5.665 9.802h-2.383l-5.861-9.802-1.599-3.196h7.74v2.847h-1.682l3.028 5.478 2.889-5.478h-1.851V6.289h7.067v3.196Z"/><path d="m52.636 9.456-4.825 10.06c-.933 1.969-1.943 3.401-3.03 4.297-1.088.896-2.353 1.344-3.797 1.344-.768 0-1.458-.107-2.07-.32-.613-.212-1.284-.54-2.016-.984l1.59-3.06c.933.55 1.764.825 2.496.825.767 0 1.42-.2 1.96-.6.54-.398 1.046-1.077 1.522-2.035l-5.264-9.527h-1.563V6.289h7.731v2.82h-1.782l2.77 5.776 2.659-5.775h-1.7V6.29h6.772l-1.453 3.166Z"/><path d="M37.317 18.562c-.295.16-.672.3-1.131.416-.46.116-.938.175-1.434.175-.92 0-1.71-.229-2.372-.685-.662-.457-1.094-1.097-1.296-1.92-.882.949-1.719 1.642-2.51 2.08a5.147 5.147 0 0 1-2.536.659c-1.581 0-2.8-.533-3.654-1.598-.855-1.065-1.282-2.636-1.282-4.713V9.485h-2.234V6.289h6.425v6.687c0 .788.175 1.405.524 1.853.35.447.947.671 1.793.671 1.03 0 2.141-.635 3.336-1.906v-4.11h-2.04V6.29h6.232v8.728c0 .52.23.779.69.779.257 0 .477-.036.661-.108l.828 2.874ZM15.154 9.385c2.476.734 3.714 2.256 3.714 4.566 0 1.687-.637 2.998-1.911 3.933-1.275.935-3.122 1.403-5.543 1.403H0v-3.493h3.058V3.912H0V.419h10.813c2.13 0 3.754.468 4.874 1.403 1.12.935 1.68 2.163 1.68 3.685 0 1.65-.738 2.943-2.213 3.878ZM7.547 3.773v4.612h2.31c1.02 0 1.798-.181 2.335-.544.537-.363.806-.964.806-1.805 0-.802-.233-1.38-.698-1.733-.466-.353-1.012-.53-1.638-.53H7.547Zm3.758 11.74c2.247 0 3.37-.712 3.37-2.136 0-.712-.249-1.233-.746-1.563-.497-.329-1.27-.494-2.32-.494H7.546v4.193h3.758Z"/></g><defs><clipPath id="a"><path fill="#fff" d="M0 0h100v25.157H0z"/></clipPath></defs></svg>