<svg width="106" height="16" fill="none" xmlns="http://www.w3.org/2000/svg"><path fill-rule="evenodd" clip-rule="evenodd" d="M11.337 6.872V14H9.875a10.194 10.194 0 0 0-.46-1.533c-.976 1.159-2.218 1.739-3.728 1.739-1.783 0-3.17-.622-4.162-1.866C.533 11.097.037 9.488.037 7.516c0-2.122.53-3.828 1.587-5.117C2.683 1.109 4.121.466 5.938.466c1.522 0 2.75.416 3.686 1.249.934.833 1.505 1.943 1.713 3.33l-3.046.39c-.246-1.614-1.032-2.42-2.353-2.42-.869 0-1.525.381-1.97 1.146-.444.765-.665 1.857-.665 3.277 0 1.367.24 2.412.721 3.134.48.723 1.165 1.084 2.054 1.084.574 0 1.086-.182 1.537-.546.451-.365.676-.947.676-1.748H5.717v-2.49h5.62Zm5.75 1.845V14h-3.225V.67h6.01c1.108 0 1.998.126 2.67.376.67.25 1.227.712 1.668 1.382.44.67.66 1.416.66 2.236 0 1.602-.79 2.75-2.374 3.448L25.021 14h-3.536L19.38 8.717h-2.294Zm0-5.673v3.398h1.963c.642 0 1.108-.044 1.398-.132.29-.088.55-.283.776-.586.227-.303.34-.65.34-1.04 0-.371-.113-.703-.34-.996-.227-.294-.474-.474-.741-.542-.267-.068-.768-.103-1.503-.103h-1.893ZM38.124.67v8.3c0 1.342-.157 2.34-.47 2.994-.315.654-.894 1.191-1.739 1.611-.844.42-1.925.63-3.24.63-1.317 0-2.363-.189-3.141-.566-.778-.377-1.361-.915-1.748-1.611-.388-.697-.581-1.716-.581-3.057V.67h3.476v8.3c0 .716.061 1.243.185 1.582.123.338.37.606.741.806.371.198.827.297 1.368.297.601 0 1.09-.097 1.468-.293.377-.195.628-.454.75-.776.124-.322.186-.86.186-1.616V.67h2.745Zm5.79 8.379V14H40.66V.67h5.389c1.202 0 2.122.126 2.76.376.637.25 1.207.698 1.708 1.343.501.645.751 1.435.751 2.373 0 .658-.134 1.299-.4 1.924-.267.625-.645 1.116-1.132 1.474-.488.358-.96.596-1.418.714-.458.116-1.173.175-2.149.175h-2.254Zm-.11-2.422h2.083c.795 0 1.352-.179 1.673-.537.312-.337.484-.776.48-1.23 0-.54-.178-.97-.535-1.29-.357-.318-.9-.478-1.628-.478h-2.074v3.535h.001Zm14.385 7.579c-1.843 0-3.269-.675-4.277-2.022-1.009-1.348-1.513-2.978-1.513-4.892 0-1.947.51-3.572 1.533-4.874C54.953 1.116 56.409.465 58.299.465c1.91 0 3.352.695 4.323 2.085.972 1.39 1.458 2.98 1.458 4.77 0 1.934-.501 3.565-1.503 4.893-1.002 1.329-2.465 1.993-4.388 1.993Zm.09-11.192c-1.683 0-2.525 1.438-2.525 4.316 0 2.883.841 4.326 2.525 4.326 1.63 0 2.444-1.44 2.444-4.316 0-2.884-.814-4.327-2.444-4.327ZM78.013.67 82.292 14h-3.447l-.83-2.744h-4.428L72.725 14H69.92L74.298.67h3.716Zm-3.656 8.124h2.905l-1.453-4.677-1.452 4.677ZM93.21 3.6l-2.725.889c-.367-1.055-1.145-1.582-2.334-1.582-1.269 0-1.903.4-1.903 1.201 0 .32.118.59.355.81.237.222.773.414 1.608.577 1.396.273 2.417.55 3.066.83.647.28 1.193.731 1.638 1.353.444.622.666 1.316.666 2.085 0 1.204-.476 2.246-1.428 3.124-.951.88-2.362 1.32-4.233 1.32-1.402 0-2.596-.312-3.58-.934-.985-.621-1.635-1.544-1.95-2.768l2.966-.655c.334 1.244 1.262 1.866 2.785 1.866.735 0 1.282-.138 1.643-.415.36-.277.54-.607.54-.992 0-.39-.163-.693-.49-.907-.327-.216-.958-.417-1.893-.606-1.744-.352-2.986-.832-3.727-1.44-.74-.61-1.112-1.5-1.112-2.672 0-1.184.442-2.184 1.327-2.998.885-.813 2.086-1.22 3.602-1.22 2.684 0 4.411 1.045 5.18 3.134ZM105.833.67 101.716 14H98.27L94.162.67h3.406l2.736 9.531 2.834-9.53h2.695Z" fill="#191919"/></svg>