<svg width="75" height="36" fill="none" xmlns="http://www.w3.org/2000/svg"><path d="M59.603.758h-3.86v5.984h-2.06v3.089h2.06v12.842a3.96 3.96 0 0 0 1.184 2.793c.752.753 1.645 1.156 2.676 1.21.053.007.105.01.154.013h2.806v-3.604h-1.519a1.461 1.461 0 0 1-1.016-.438 1.416 1.416 0 0 1-.425-1.004V9.831h2.96V6.742h-2.96V.758ZM35.385 8.646c-1.287 1.236-1.951 2.724-1.994 4.466V20.5c.043 1.732.707 3.213 1.994 4.44 1.339 1.278 2.956 1.917 4.852 1.917 1.904 0 3.517-.64 4.838-1.918.13-.122.255-.251.374-.386v2.085c-.026 1.262-.49 2.338-1.39 3.23a4.63 4.63 0 0 1-.708.605c-.773.524-1.651.785-2.639.785-1.304 0-2.419-.464-3.346-1.39a5.357 5.357 0 0 1-.45-.515l-3.037 2.381.052.064c.221.275.458.537.708.786 1.663 1.671 3.68 2.509 6.047 2.509 1.788 0 3.375-.477 4.762-1.428.461-.32.892-.683 1.287-1.082 1.62-1.62 2.456-3.568 2.508-5.842V6.742h-3.795V9.02a9.52 9.52 0 0 0-.373-.373c-1.322-1.27-2.934-1.904-4.839-1.904-1.897 0-3.513.635-4.852 1.904Zm1.828 5.83c.024-1.09.423-2.024 1.196-2.805.807-.798 1.78-1.197 2.921-1.197 1.142 0 2.111.399 2.909 1.197.78.781 1.184 1.717 1.21 2.805v4.658a3.94 3.94 0 0 1-1.21 2.806c-.799.807-1.768 1.21-2.909 1.21-1.141 0-2.115-.404-2.92-1.21a3.958 3.958 0 0 1-1.198-2.806v-4.658Zm37.126-7.734h-2.96V.758h-3.86v5.984h-2.06v3.089h2.06v12.842c.025 1.09.42 2.02 1.184 2.793.755.756 1.647 1.162 2.677 1.223h2.96v-3.604h-1.52a1.463 1.463 0 0 1-1.016-.438 1.411 1.411 0 0 1-.424-1.004V9.831h2.96V6.742ZM13.585 6.356 11.693 8.26l6.937 6.975H.15v2.767h18.338l-6.832 6.872 1.89 1.892 10.18-10.218-10.14-10.192Z" fill="#BFBEBE"/></svg>