<?xml version="1.0" standalone="no"?>
<!DOCTYPE svg PUBLIC "-//W3C//DTD SVG 1.0//EN" "http://www.w3.org/TR/2001/REC-SVG-20010904/DTD/svg10.dtd">
<svg xmlns="http://www.w3.org/2000/svg" xmlns:xlink="http://www.w3.org/1999/xlink" id="body_1" width="248" height="41">

<defs>
                <clipPath  id="1">

                    <path clip-rule="evenodd" d="M0 0L595.276 0L595.276 841.89L0 841.89L0 0z" />                </clipPath>
</defs>

<g transform="matrix(0.70056504 0 0 0.69491524 0 0)">
	<g transform="matrix(1 0 0 1 25.663118 -268.6231)">
		<g transform="matrix(1.25 0 -0 -1.25 10.212881 296.5336)">
            <path d="M0 0L4.34 -6.883L13.07 7.0309997L13.07 -23.791L20.59 -23.791L20.59 21.043L12.916 21.043L0 0z" stroke="none" fill="#A4A4A4" fill-rule="nonzero" />
		</g>
		<g transform="matrix(1.25 0 -0 -1.25 -16.155619 270.22958)">
            <path d="M0 0L-7.606 0L-7.606 -44.834L-0.06699991 -44.834L-0.06699991 -14.011999L17.049 -41.379997L21.415 -34.395996L0 0z" stroke="none" fill="#A4A4A4" fill-rule="nonzero" />
		</g>
		<g transform="matrix(1.25 0 -0 -1.25 92.47938 308.9001)">
            <path d="M0 0L6.958 -13.897L16.027 -13.897L-6.7250004 30.936L-14.901 30.936L-14.908 30.922L-3.5159998 7.146002L-18.654 7.146002L-14.702999 14.897001L-18.824 23.320002L-37.995 -13.896997L-29.512999 -13.896997L-22.346998 -0.0029973984L0 0z" stroke="none" fill="#A4A4A4" fill-rule="nonzero" />
		</g>
		<g transform="matrix(1.25 0 -0 -1.25 175.27888 270.22958)">
            <path d="M0 0L-7.541 0L-7.541 -21.772L0 -29.345L0 0z" stroke="none" fill="#A4A4A4" fill-rule="nonzero" />
		</g>
		<g transform="matrix(1.25 0 -0 -1.25 129.78464 270.22958)">
            <path d="M0 0L-7.672 0L-7.672 -44.834L-0.12799978 -44.834L-0.12799978 -11.333L30.78 -44.834L36.395 -44.834L36.395 -39.386L0 0z" stroke="none" fill="#A4A4A4" fill-rule="nonzero" />
		</g>
		<g transform="matrix(1.25 0 -0 -1.25 -220.61848 864.2577)">
			<g clip-path="url(#1)" >
				<g transform="matrix(1 0 0 1 369.4134 462.7811)">
                    <path d="M0 0C -3.591 3.729 -9.128 6.117 -15.34 6.117C -25.254 6.117 -33.447998 0.031000137 -34.755 -7.867L-34.755 -7.867L-43.058002 -7.867C -41.973003 4.3919997 -29.429003 13.4279995 -15.238003 13.4279995C -6.798003 13.4279995 0.78499794 10.285 5.8899975 5.2279997L5.8899975 5.2279997L0 0z" stroke="none" fill="#A4A4A4" fill-rule="nonzero" />
				</g>
				<g transform="matrix(1 0 0 1 353.3726 436.6503)">
                    <path d="M0 0C -8.277 0 -15.323 4.485 -17.951 10.759L-17.951 10.759L-26.421001 10.759C -23.62 -0.055000305 -12.607001 -7.2680006 0.46899796 -7.2680006C 3.504998 -7.2680006 6.998998 -6.9680004 9.899998 -6.2480006C 16.446999 -4.6280007 23.596996 -0.37300062 23.596996 6.3439994L23.596996 6.3439994L23.596996 18.264L-0.08700371 18.264L-0.10400371 10.759L16.027996 10.759L16.027996 7.3519998C 16.028 3.59 10.407 1.414 6.967 0.65C 5.116 0.239 2.74 0 0.822 0L0.822 0L0 0z" stroke="none" fill="#A4A4A4" fill-rule="nonzero" />
				</g>
				<g transform="matrix(1 0 0 1 439.311 452.7637)">
                    <path d="M0 0C 0 13.371 -12.137 23.744 -27.045 23.744C -41.48 23.744 -54.162003 13.849999 -54.162003 0.7199993C -54.162003 -11.660001 -44.202003 -21.579 -30.785002 -23.152L-30.785002 -23.152L-30.785002 -15.662001C -39.563004 -14.216001 -46.197002 -7.658001 -46.197002 0.22899914C -46.197002 9.175999 -37.666 16.433998 -27.147003 16.433998C -16.623003 16.433998 -8.095003 9.175999 -8.095003 0.22899818C -8.095003 -7.597002 -14.625004 -14.111002 -23.301003 -15.626001L-23.301003 -15.626001L-23.301003 -23.132002C -10.427 -21.567 0 -12.018 0 0" stroke="none" fill="#A4A4A4" fill-rule="nonzero" />
				</g>
			</g>
		</g>
	</g>
</g>
</svg>