<svg width="152" height="20" fill="none" xmlns="http://www.w3.org/2000/svg"><path d="M20.845 19.473h-4.137V8.13l-6.15 8.904L4.298 8.13v11.344H.164V.391h3.324l7.03 9.965L17.53.391h3.315v19.082ZM45.856 19.451H26.908V.39h18.146V4.29H31.045V7.43h9.18v3.857h-9.18v4.306h14.81v3.858ZM71.147 19.472h-4.64l-5.141-7.783h-6.762v7.781h-4.137V.433H63.48c1.906 0 3.444.459 4.613 1.377C69.364 2.814 70 4.228 70 6.05a5.405 5.405 0 0 1-1.094 3.34 6.048 6.048 0 0 1-2.937 2.088l5.18 7.994ZM65.826 6.02a1.636 1.636 0 0 0-.519-1.264c-.394-.278-1.002-.417-1.826-.417h-8.877v3.5h8.879c.851 0 1.458-.16 1.82-.48a2.01 2.01 0 0 0 .518-1.328M95.446 19.472h-4.853l-7.2-9.505-2.957 2.473v7.032H76.3V.432h4.135v7.124l8.62-7.123h5.773l-8.478 7.033 9.095 12.006ZM117.551 19.451h-17.498V.39h4.138v15.203h13.36v3.858ZM140.244 19.451h-18.947V.39h18.146V4.29h-14.009V7.43h9.181v3.857h-9.181v4.306h14.81v3.858ZM142.342 19.472l8.892-8.556v8.556h-8.892Z" fill="#BFBEBE"/></svg>