<svg width="46" height="29" fill="none" xmlns="http://www.w3.org/2000/svg"><path d="M35.343 6.67c-5.58 0-10.077 4.85-10.077 10.8 0 5.947 4.533 10.798 10.077 10.798 6.242 0 8.753-4.638 8.753-4.638l-.698-.531c-1.36-1.027-3.173-1.169-4.638-.319a5.658 5.658 0 0 1-2.963.814c-5.057 0-5.475-4.709-5.475-4.709h13.774s1.36.142 1.36-1.416c-.035-5.984-4.568-10.8-10.113-10.8Zm-5.056 8.64s.314-4.037 4.986-4.037c4.673 0 5.336 4.036 5.336 4.036H30.287ZM7.933 3.06C6.922.05 2.738.05 2.738.05S.47.05.82.97c.348.886 1.883 4.957 3.835 10.127 0 .035.035.07.035.106.244.637 1.814 3.576 7.218 3.576A2778.145 2778.145 0 0 1 7.934 3.06Z" fill="#CFCECE"/><path d="M12.363 16.088s-5.265 1.452-3.836 5.205l2.546 6.763h.383c5.37 0 6.87-2.974 7.114-3.612 0 0 8.543-22.59 8.892-23.475.349-.92-1.918-.92-1.918-.92s-4.184 0-5.195 3.01c-.245.743-2.093 6.196-3.976 11.755l-2.232 6.55a679.556 679.556 0 0 1-1.778-5.276Z" fill="#CFCECE"/></svg>