<svg viewBox="0 0 520 64" id="icon-lc-h-positive" xmlns="http://www.w3.org/2000/svg">
    <path fill="#ED6103" fill-rule="evenodd"
          d="M6.31 35.758c.29 0 .526.235.526.526v20.771c0 .436.353.789.789.789H21.56c.29 0 .526.237.526.527v5.783a.526.526 0 0 1-.526.527H2.104A2.103 2.103 0 0 1 0 62.576V36.284c0-.29.236-.526.526-.526H6.31zm57.845 6.836c.29 0 .525.236.525.526v19.457a2.103 2.103 0 0 1-2.103 2.103H36.284a.526.526 0 0 1-.526-.525V58.37c0-.29.236-.526.526-.526h20.772a.788.788 0 0 0 .788-.788V43.12c0-.29.236-.526.527-.526h5.784zm114.43-24.715c.29 0 .526.235.526.525V32.34c0 5.799 3.767 8.414 8.414 8.414s8.413-2.615 8.413-8.414V18.404c0-.29.236-.525.527-.525h5.784c.29 0 .525.235.525.525V32.34c0 9.018-6.827 15.25-15.25 15.25-8.421 0-15.25-6.232-15.25-15.25V18.404c0-.29.236-.525.526-.525zm157.992-.778a15.212 15.212 0 0 1 15.237 15.238 15.212 15.212 0 0 1-15.237 15.237A15.212 15.212 0 0 1 321.34 32.34a15.212 15.212 0 0 1 15.237-15.24zm-32.418-.039c4.043 0 7.658 1.555 10.417 4.082a.54.54 0 0 1 0 .739l-2.254 2.254a.493.493 0 0 1-.7 0 11.086 11.086 0 0 0-7.463-2.877c-6.258 0-11.311 5.248-11 11.584.233 5.714 4.936 10.3 10.65 10.495a11.165 11.165 0 0 0 7.813-2.877.493.493 0 0 1 .7 0l2.254 2.255a.54.54 0 0 1 0 .739 15.21 15.21 0 0 1-10.69 4.081c-7.967-.155-14.537-6.491-14.925-14.42-.467-8.786 6.53-16.055 15.198-16.055zm173.463 0c4.043 0 7.658 1.555 10.418 4.082a.54.54 0 0 1 0 .739l-2.254 2.254a.493.493 0 0 1-.7 0 11.086 11.086 0 0 0-7.464-2.877c-6.258 0-11.31 5.248-11 11.584.233 5.714 4.937 10.3 10.65 10.495a11.165 11.165 0 0 0 7.814-2.877.493.493 0 0 1 .7 0l2.254 2.255a.54.54 0 0 1 0 .739 15.21 15.21 0 0 1-10.689 4.081c-7.969-.155-14.538-6.491-14.927-14.42-.466-8.786 6.53-16.055 15.198-16.055zm-352.373.817c.29 0 .526.235.526.525v27.87c0 .29-.235.527-.525.527h-5.785a.527.527 0 0 1-.526-.526v-27.87c0-.29.236-.526.526-.526h5.784zm95.231 0c.29 0 .526.235.526.526v20.771c0 .436.353.789.789.789h13.935c.29 0 .526.236.526.527v5.783c0 .29-.235.527-.526.527l-19.456-.001a2.103 2.103 0 0 1-2.104-2.103V18.405c0-.29.236-.526.526-.526h5.784zm31.746 0c.29 0 .526.235.526.526v20.771c0 .436.353.789.789.789h13.935c.29 0 .526.236.526.527v5.783c0 .29-.235.527-.526.527L248.02 46.8a2.103 2.103 0 0 1-2.104-2.103V18.405c0-.29.236-.526.526-.526h5.784zm-159.149 0c.29 0 .526.235.526.526v20.771c0 .436.353.789.788.789h13.935c.291 0 .527.236.527.527v5.783c0 .29-.236.527-.527.527L88.87 46.8a2.103 2.103 0 0 1-2.103-2.103V18.405c0-.29.235-.526.525-.526h5.785zm68.314 0c.29 0 .525.235.525.525v5.785c0 .29-.235.526-.525.526h-13.935a.789.789 0 0 0-.789.789v3.155c0 .146.117.263.263.263h14.46c.29 0 .526.235.526.526v5.785c0 .29-.235.525-.525.525H146.93a.263.263 0 0 0-.263.264v10.253c0 .29-.235.526-.526.527h-5.784a.527.527 0 0 1-.527-.527V19.983c0-1.162.942-2.104 2.104-2.104h19.457zm202.092 0c.35 0 .623.117.816.35l17.998 21.767c.039.04.194 0 .194-.077V18.384c0-.272.233-.505.505-.505h3.149c.311 0 .544.233.544.505v27.87a.53.53 0 0 1-.544.544h-3.187c-.311 0-.584-.155-.817-.388l-17.958-21.73c-.077-.076-.195 0-.195.079v21.496c0 .31-.233.543-.505.543h-3.148a.531.531 0 0 1-.544-.543v-27.87c0-.273.233-.506.544-.506h3.148zm36.896 0c.35 0 .622.117.817.35l17.997 21.767c.039.04.194 0 .194-.077V18.384c0-.272.234-.505.506-.505h3.148c.311 0 .544.233.544.505v27.87a.531.531 0 0 1-.544.544h-3.187c-.311 0-.583-.155-.817-.388L401.08 24.68c-.078-.076-.194 0-.194.079v21.496c0 .31-.234.543-.506.543h-3.148a.53.53 0 0 1-.544-.543v-27.87c0-.273.233-.506.544-.506h3.148zm53.913 0c.273 0 .505.233.505.544v3.149a.515.515 0 0 1-.505.505H438.16a.797.797 0 0 0-.817.816v7.036c0 .156.117.272.272.272h16.676c.273 0 .505.233.505.505v3.149c0 .31-.232.544-.505.544h-16.676a.265.265 0 0 0-.272.272v7.114c0 .466.35.816.817.816h16.092c.272 0 .506.233.506.505v3.149c0 .31-.234.543-.506.543h-19.007a2.09 2.09 0 0 1-2.1-2.098V19.978c0-1.166.933-2.1 2.1-2.1h19.046zm65.203 0c.272 0 .505.233.505.544v3.032a.514.514 0 0 1-.505.505h-9.485c-.155 0-.272.156-.272.272v24.023c0 .31-.233.543-.505.543h-3.148a.531.531 0 0 1-.545-.543V22.232c0-.116-.116-.272-.272-.272h-9.445c-.311 0-.544-.233-.544-.505v-3.032c0-.31.233-.544.544-.544h23.672zm-182.918 3.42a11.031 11.031 0 0 0-11.04 11.04 11.031 11.031 0 0 0 11.04 11.039 11.032 11.032 0 0 0 11.039-11.04 11.032 11.032 0 0 0-11.04-11.038zM62.577 0c1.162 0 2.103.942 2.103 2.104v26.293c0 .29-.235.525-.525.525H58.37a.526.526 0 0 1-.526-.525V7.625a.789.789 0 0 0-.788-.789H43.12a.527.527 0 0 1-.527-.526V.526c0-.29.236-.526.527-.526h19.456zm-34.18 0c.29 0 .525.235.525.526V6.31c0 .29-.235.526-.525.526H7.625a.789.789 0 0 0-.789.788V21.56c0 .29-.235.526-.526.526H.526A.526.526 0 0 1 0 21.56V2.104C0 .942.943 0 2.105 0h26.293z"></path>
</svg>