<svg xmlns="http://www.w3.org/2000/svg" viewBox="0 0 416 93.5"><path d="M129 72.4c-3.4-1-4.9-2.6-4.9-5.3 0-3.5 3.3-5.1 6.4-5.1 3.2 0 5.6 1.3 7 3.8l1.8-.7c-1.7-3.9-5.7-4.8-8.8-4.8-5 0-8.4 2.9-8.4 7 0 3.4 1.9 5.6 5.8 6.8l5.5 1.6c2.3.7 4.6 1.9 4.6 5.6 0 3.3-2.9 5.6-7.2 5.6-4 0-6.9-1.9-8.1-5.2l-1.9.7c1.2 3.9 4.9 6.2 9.9 6.2 5.6 0 9.3-3.1 9.3-7.7 0-3.7-1.8-6-5.4-7l-5.6-1.5zM152.1 60.9h-9.3v27.4h2.1V77.1h6.7c5.6 0 9.1-3.2 9.1-8.2 0-4.9-3.4-8-8.6-8zm-1.2 14.5h-6.1V62.6h7c4.1 0 6.8 2.5 6.8 6.3 0 4.2-2.7 6.5-7.7 6.5zM168.3 60.8L158 88.3h2l3.2-8.8h11.9v.1l3.1 8.6h2.1l-10.1-27.4h-1.9zm-4.5 17l.1-.3 5.4-14.7 5.3 14.9h-10.8zM183.1 60.9h1.9v27.4h-1.9zM190.6 60.8h-2.2v27.5h1.9V63.8l15.6 24.5h2.1V60.8h-2v24.1z"/><g><path d="M119.7 36l6.7-2.6c1.5 3.8 5.1 6 9.6 6 4 0 7.8-1.6 7.8-5.2 0-3-2.4-4.3-5.5-5.2l-6.7-1.6c-5.3-1.3-9.5-3.8-9.5-10.8 0-7.5 6.5-11.8 14.3-11.8 6.6 0 11.4 2.2 14 8.2l-6.1 2.7c-1.7-3.4-4.7-4.6-8.6-4.6-3.3 0-6.4 1.4-6.4 5 0 2.8 2.7 4.1 5.8 4.9l6.8 1.7c4.8 1.1 9.1 4 9.1 11.1 0 7.3-6.5 12.2-15.3 12.2-7.2-.1-13.9-3.2-16-10M155.7 32.2V19.4c0-9.4 7.2-14.7 15.9-14.7 7.6 0 15.2 4.2 15.2 13.1V19h-7v-.5c0-5.2-4.5-7.2-8.1-7.2-3.8 0-8.6 2-8.6 7.7v12.8c0 4.8 4.1 7.5 8.8 7.5 3.6 0 7.9-2 7.9-7.2v-.6h7v1.2c0 8.9-7.3 13.1-14.9 13.1-8.6.1-16.2-4.7-16.2-13.6M192.8 5.4h7.5v16.3h15.9V5.4h7.4v39.9h-7.4V28.2h-15.9v17.1h-7.5zM232.4 5.4h7.4v39.8h-7.4zM265.4 38.9c4 0 6.5-1.9 6.5-5.6 0-3.6-2.3-5.3-6.4-5.3h-9.4v10.9h9.3zm-.5-17.1c3.8 0 5.9-1.9 5.9-5.1 0-3.5-2.5-4.9-6.2-4.9h-8.5v10.1h8.8zM248.7 5.4h17.1c7.7 0 12.3 3.4 12.3 10.3 0 3.6-1.6 6.5-5.6 8.4v.1c4.6 1.2 6.9 5.1 6.9 9.6 0 7.5-6 11.5-12.6 11.5h-18.1V5.4zM282.1 36l6.7-2.6c1.5 3.8 5.1 6 9.6 6 4 0 7.8-1.6 7.8-5.2 0-3-2.4-4.3-5.5-5.2l-6.7-1.6c-5.3-1.3-9.5-3.8-9.5-10.8 0-7.5 6.5-11.8 14.2-11.8 6.7 0 11.5 2.2 14 8.2l-6.1 2.7c-1.7-3.4-4.7-4.6-8.6-4.6-3.2 0-6.4 1.4-6.4 5 0 2.8 2.7 4.1 5.8 4.9l6.8 1.7c4.8 1.1 9.1 4 9.1 11.1 0 7.3-6.5 12.2-15.3 12.2-7.1-.1-13.8-3.2-15.9-10M327.7 11.8h-11.4V5.4h30.3v6.4h-11.5v33.5h-7.4zM351 5.4h27.6v6.5h-20.2v9.8h17.9v6.5h-17.9v10.5h20.5v6.6H351zM400.1 38.7c3.8 0 8.6-2 8.6-7.7V19.5c0-4.8-4.1-7.5-8.8-7.5h-7.6v26.8h7.8zM384.8 5.4h15.5c8.6 0 15.7 5.6 15.7 14.5v10.6c0 9.4-7.8 14.7-15.6 14.7h-15.6V5.4z"/></g><g><path fill="#455985" d="M0 0h93.5v93.5H0z"/><path d="M40.5 81.9C25.7 81.9 21 71.5 21 65.2c0-6.5 3.6-10.2 8.5-10.2s9.2 3 9.2 10.4h20.8c-1.2 10.5-9.7 16.5-19 16.5m41.8-21.1c.2-1.4.4-2.9.4-4.6 0-7.1-3.4-16.4-7.1-24.1l-3-6.3c-2-4.2-4-7.8-4-11.5 0-2.6 1.5-4.5 3.9-4.5 3.1 0 4.4 2.2 4.4 7.2h5.3V8.3C79 7.2 75.9 6.5 70.7 6.5 58.6 6.5 48 11.6 48 25.3c0 11.6 10.8 22.9 11.7 35.6h-7.1C51 46.2 38.7 44.8 35.1 44.8c-11.4 0-19.4 7.8-19.4 18.9 0 13 8.6 23.4 27 23.4 17.6 0 33.3-8.5 38.4-21.7h12.4v-4.5H82.3z" fill="#fff"/></g></svg>
