<svg xmlns="http://www.w3.org/2000/svg" viewBox="0 0 160 160" role="img" aria-labelledby="title desc">
  <title id="title">Team Augmentation</title>
  <desc id="desc">Logo for the team augmentation service.</desc>
  <circle cx="36" cy="62" r="12" fill="#2C2C2C"/>
  <path d="M22 105c2-13 8-18 14-18s12 5 14 18" fill="none" stroke="#2C2C2C" stroke-width="6" stroke-linecap="round"/>
  <circle cx="62" cy="55" r="12" fill="#2C2C2C"/>
  <path d="M48 96c2-13 8-18 14-18s12 5 14 18" fill="none" stroke="#2C2C2C" stroke-width="6" stroke-linecap="round"/>
  <line x1="88" y1="70" x2="88" y2="90" stroke="#2C2C2C" stroke-width="8" stroke-linecap="round"/>
  <line x1="78" y1="80" x2="98" y2="80" stroke="#2C2C2C" stroke-width="8" stroke-linecap="round"/>
  <circle cx="124" cy="52" r="16" fill="#2C2C2C"/>
  <path d="M104 104c3-18 12-26 20-26s17 8 20 26" fill="none" stroke="#2C2C2C" stroke-width="8" stroke-linecap="round"/>
  <path d="M124 22 l3 7.5 8 1.5-6 5.5 1.5 8-6.5-3.5-6.5 3.5 1.5-8-6-5.5 8-1.5z" fill="#2C2C2C"/>
</svg>
