<svg xmlns="http://www.w3.org/2000/svg" viewBox="0 0 160 160" role="img" aria-labelledby="title desc">
  <title id="title">Team Augmentation</title>
  <desc id="desc">Logo for the team augmentation service.</desc>
  <defs>
    <linearGradient id="g" x1="18" y1="24" x2="142" y2="136" gradientUnits="userSpaceOnUse">
      <stop offset="0" stop-color="#7b4f16"/>
      <stop offset="1" stop-color="#4a2e0b"/>
    </linearGradient>
    <linearGradient id="a" x1="40" y1="36" x2="120" y2="124" gradientUnits="userSpaceOnUse">
      <stop offset="0" stop-color="#fff6e7"/>
      <stop offset="1" stop-color="#ffd28a"/>
    </linearGradient>
  </defs>
  <rect x="8" y="8" width="144" height="144" rx="28" fill="url(#g)"/>
  <g fill="url(#a)">
    <circle cx="56" cy="62" r="13"/>
    <circle cx="104" cy="62" r="13"/>
    <circle cx="80" cy="50" r="13"/>
  </g>
  <path d="M40 110c4-15 15-23 27-23 8 0 15 3 20 9 5-6 12-9 20-9 12 0 23 8 27 23" fill="none" stroke="url(#a)" stroke-width="7" stroke-linecap="round" stroke-linejoin="round"/>
  <path d="M54 86h52" stroke="#ffd28a" stroke-width="8" stroke-linecap="round"/>
  <path d="M80 34l8 18 18 2-13 12 4 18-17-9-17 9 4-18-13-12 18-2z" fill="#ffd28a"/>
</svg>
