<svg width="224" height="75" viewBox="0 0 224 75" fill="none" xmlns="http://www.w3.org/2000/svg">
<g clip-path="url(#clip0)">
<path d="M63.8006 18.496L33.7978 1.17918C33.4944 1.00345 33.1499 0.910919 32.7992 0.910919C32.4486 0.910919 32.1041 1.00345 31.8006 1.17918L1.79778 18.496C1.49433 18.6712 1.24227 18.9231 1.06698 19.2265C0.891703 19.5299 0.799328 19.8741 0.799133 20.2245V36.377C1.61142 36.0879 2.48342 36.0078 3.33481 36.1439C4.1862 36.2801 4.98963 36.6282 5.67126 37.1562C6.52294 37.8464 7.09956 38.8185 7.29678 39.8968C7.90132 42.8837 6.94753 44.2316 5.75637 45.2034L7.79384 52.619L4.15324 57.948L7.73568 60.0304L11.9226 53.8998L9.97913 40.0177L11.4211 37.9085C10.3079 36.8937 9.58806 35.5188 9.3882 34.0257C9.18834 32.5326 9.52124 31.0169 10.3284 29.745C11.2555 28.3275 12.7011 27.3298 14.3553 26.9656C16.0094 26.6014 17.7404 26.8999 19.177 27.797C20.4171 28.5878 21.3467 29.7818 21.8091 31.1779C22.2716 32.5741 22.2386 34.0869 21.7159 35.4617C21.1932 36.8363 20.2126 37.9888 18.9393 38.7249C17.6661 39.461 16.178 39.7357 14.7259 39.5028L13.566 41.2L14.8423 49.6141L28.0704 30.2465C27.1229 29.1789 26.5591 27.8255 26.4682 26.4009C26.3773 24.9764 26.7647 23.5623 27.5688 22.383C28.518 21.0229 29.953 20.0789 31.5777 19.7456C33.2024 19.4123 34.893 19.7152 36.301 20.5917C37.5932 21.4154 38.5466 22.6757 38.9877 24.1433C39.4288 25.6108 39.3283 27.1879 38.7044 28.5875C38.0806 29.9871 36.9749 31.1162 35.5886 31.7692C34.2023 32.4222 32.6277 32.5556 31.1513 32.1452L11.739 60.7019L21.3488 57.7688L29.7049 45.5347C28.8161 44.453 28.306 43.11 28.2527 41.711C28.1993 40.3119 28.6056 38.934 29.4093 37.7876C30.3701 36.4535 31.8026 35.5347 33.4159 35.2179C35.0292 34.9011 36.7027 35.2098 38.0967 36.0815C39.397 36.9205 40.3492 38.2023 40.777 39.6895C41.2048 41.1767 41.0792 42.7685 40.4234 44.1702C39.7677 45.5718 38.6262 46.6884 37.2104 47.3131C35.7946 47.9378 34.2004 48.0281 32.7231 47.5678L23.8342 60.5857L13.9825 63.5905L31.8454 73.8902C32.149 74.0652 32.4934 74.1578 32.844 74.1578C33.1946 74.1578 33.539 74.0652 33.8426 73.8902L63.8455 56.5731C64.1488 56.3981 64.4007 56.1462 64.5762 55.8429C64.7513 55.5391 64.8439 55.195 64.8439 54.8445V20.2066C64.836 19.8548 64.7355 19.5114 64.5526 19.211C64.3692 18.9106 64.1099 18.664 63.8006 18.496Z" fill="#F5FCFF"/>
<path d="M1.25626 42.8478C1.55626 43.0482 1.90144 43.1763 2.26304 43.2213C2.62463 43.2664 2.99217 43.2271 3.33488 43.1068C3.67759 42.9865 3.98557 42.7886 4.23312 42.5298C4.48066 42.2709 4.66059 41.9585 4.75788 41.6186C4.8604 41.2797 4.87565 40.9216 4.80235 40.5756C4.72905 40.2296 4.5694 39.9061 4.3373 39.6335C4.12293 39.38 3.85304 39.1758 3.54709 39.0355C3.24114 38.8953 2.90678 38.8226 2.56822 38.8226C2.22965 38.8226 1.89529 38.8953 1.58934 39.0355C1.2834 39.1758 1.01351 39.38 0.799133 39.6335V42.4499C0.932035 42.6021 1.08584 42.736 1.25626 42.8478Z" fill="#F5FCFF"/>
<path d="M3.60944 46.0253C2.67013 46.1987 1.70027 46.1265 0.799133 45.8159V54.7329C0.799337 55.0894 0.895958 55.4391 1.07929 55.7475C1.26263 56.0559 1.52623 56.312 1.84362 56.4902L5.21602 51.6924L3.60944 46.0253Z" fill="#F5FCFF"/>
<path d="M34.6242 27.7813C35.0193 27.3944 35.2794 26.8906 35.3661 26.3444C35.4528 25.7983 35.3615 25.2387 35.1058 24.7484C34.85 24.2581 34.4433 23.8631 33.9458 23.6218C33.4484 23.3804 32.8864 23.3056 32.3431 23.4082C31.7998 23.5109 31.304 23.7856 30.9288 24.1918C30.5537 24.5981 30.3191 25.1143 30.2598 25.6641C30.2005 26.2139 30.3197 26.7682 30.5996 27.2451C30.8796 27.722 31.3055 28.0961 31.8144 28.3123C32.283 28.5106 32.7996 28.5661 33.2996 28.4716C33.7995 28.3771 34.2604 28.137 34.6242 27.7813Z" fill="#F5FCFF"/>
<path d="M37.0317 42.4128C37.2149 41.9833 37.278 41.5121 37.2145 41.0496C37.1509 40.587 36.963 40.1504 36.6708 39.7863C36.3786 39.4223 35.9931 39.1445 35.5555 38.9825C35.1178 38.8206 34.6444 38.7807 34.1859 38.867C33.7273 38.9533 33.3007 39.1626 32.9517 39.4725C32.6027 39.7824 32.3444 40.1814 32.2043 40.6268C32.0642 41.0722 32.0477 41.5473 32.1563 42.0014C32.265 42.4555 32.4949 42.8715 32.8214 43.205C33.1184 43.5068 33.485 43.7309 33.8888 43.8575C34.2927 43.9841 34.7215 44.0094 35.1374 43.9311C35.5534 43.8528 35.9437 43.6734 36.274 43.4087C36.6044 43.1439 36.8646 42.8019 37.0317 42.4128Z" fill="#F5FCFF"/>
<path d="M18.2655 33.9343C18.4464 33.5038 18.507 33.0323 18.441 32.5701C18.3749 32.1078 18.1846 31.6722 17.8905 31.3097C17.5963 30.9473 17.2093 30.6715 16.7708 30.512C16.3322 30.3525 15.8586 30.3151 15.4005 30.4039C14.9423 30.4927 14.5169 30.7043 14.1696 31.0161C13.8223 31.328 13.5661 31.7284 13.4285 32.1745C13.2908 32.6207 13.2769 33.0959 13.388 33.5494C13.4992 34.0029 13.7315 34.4177 14.0598 34.7495C14.3585 35.0495 14.7262 35.2715 15.1308 35.3959C15.5353 35.5203 15.9642 35.5433 16.3797 35.4627C16.7951 35.3822 17.1845 35.2007 17.5133 34.9341C17.8422 34.6676 18.1005 34.3242 18.2655 33.9343Z" fill="#F5FCFF"/>
<path d="M87.7113 30.4636C86.9598 30.4392 86.2147 30.6101 85.5488 30.9598C84.8829 31.3095 84.3193 31.8259 83.9127 32.4586C83.0023 33.7886 82.5471 35.6216 82.5471 37.9576C82.5471 42.8138 84.3953 45.2418 88.0906 45.2418C89.1895 45.244 90.2832 45.0865 91.3367 44.7743C92.4078 44.4608 93.4622 44.0922 94.4949 43.6701V49.4377C92.2369 50.4009 89.8016 50.8774 87.3469 50.8366C83.5386 50.8366 80.6184 49.7322 78.587 47.5238C76.555 45.3154 75.539 42.1255 75.539 37.954C75.4871 35.5751 75.9914 33.217 77.0116 31.0673C77.9349 29.1517 79.4154 27.5596 81.2589 26.4995C83.2515 25.3977 85.5015 24.8464 87.7775 24.9021C90.4856 24.8972 93.1594 25.505 95.5993 26.6798L93.5085 32.05C92.6004 31.6226 91.6664 31.2537 90.7111 30.9458C89.7424 30.6297 88.7306 30.467 87.7113 30.4636Z" fill="#F5FCFF"/>
<path d="M122.722 37.8177C122.722 42.0653 121.681 45.2933 119.598 47.5016C117.514 49.7104 114.464 50.8144 110.447 50.8144C106.489 50.8144 103.454 49.7039 101.341 47.4835C99.2284 45.2626 98.1717 42.0285 98.1717 37.7809C98.1717 33.58 99.2219 30.3716 101.322 28.1558C103.423 25.94 106.475 24.8358 110.48 24.8431C114.497 24.8431 117.541 25.9473 119.612 28.1558C121.683 30.3642 122.72 33.5849 122.722 37.8177ZM105.357 37.8177C105.357 42.6984 107.055 45.1387 110.451 45.1387C112.169 45.1387 113.449 44.5461 114.294 43.3609C115.138 42.1757 115.555 40.328 115.545 37.8177C115.545 35.2977 115.122 33.4364 114.275 32.2341C113.429 31.0317 112.165 30.4305 110.484 30.4305C107.066 30.428 105.357 32.8905 105.357 37.8177Z" fill="#F5FCFF"/>
<path d="M147.394 37.3172C147.394 41.5304 146.235 44.7756 143.916 47.0527C141.597 49.3298 138.337 50.4698 134.136 50.4722H125.973V25.237H134.707C138.758 25.237 141.886 26.2725 144.089 28.3435C146.293 30.4145 147.394 33.4057 147.394 37.3172ZM140.316 37.5601C140.316 35.2461 139.859 33.5284 138.943 32.4071C138.028 31.2856 136.638 30.7274 134.773 30.7323H132.789V44.87H134.317C136.388 44.87 137.907 44.2688 138.873 43.0665C139.84 41.8641 140.321 40.0274 140.316 37.5564V37.5601Z" fill="#F5FCFF"/>
<path d="M165.626 50.4722H150.641V25.237H165.626V30.7102H157.462V34.6818H165.022V40.155H157.462V44.9216H165.626V50.4796V50.4722Z" fill="#F5FCFF"/>
<path d="M186.547 42.8051C186.572 44.2828 186.157 45.7345 185.354 46.9755C184.509 48.2323 183.315 49.2159 181.92 49.8058C180.256 50.512 178.461 50.8561 176.653 50.8144C175.234 50.8329 173.818 50.7097 172.424 50.4462C171.194 50.1795 170 49.7655 168.868 49.2135V43.1364C170.158 43.7997 171.515 44.3229 172.917 44.6971C174.177 45.0501 175.477 45.2382 176.786 45.2565C177.799 45.2565 178.541 45.081 179.013 44.7302C179.232 44.5799 179.412 44.3778 179.535 44.1415C179.659 43.9052 179.722 43.6422 179.719 43.3757C179.726 43.051 179.626 42.7331 179.436 42.4702C179.181 42.155 178.87 41.8892 178.519 41.6862C178.099 41.4211 176.981 40.8801 175.162 40.063C173.836 39.5064 172.591 38.7748 171.459 37.8877C170.668 37.2338 170.039 36.4063 169.619 35.4695C169.2 34.446 168.997 33.347 169.023 32.2414C169.023 29.9176 169.868 28.1055 171.559 26.805C173.25 25.5044 175.575 24.8542 178.534 24.8542C181.296 24.8867 184.021 25.5039 186.528 26.6651L184.438 31.9322C182.079 30.8501 180.043 30.309 178.328 30.309C177.442 30.309 176.798 30.4648 176.395 30.7765C176.209 30.9063 176.057 31.0792 175.952 31.2804C175.846 31.4816 175.792 31.7052 175.792 31.9322C175.804 32.1991 175.881 32.459 176.015 32.6902C176.148 32.9214 176.336 33.1171 176.561 33.261C177.074 33.6511 178.464 34.3652 180.731 35.4031C182.905 36.3847 184.416 37.435 185.262 38.5539C186.151 39.7888 186.603 41.2846 186.547 42.8051Z" fill="#F5FCFF"/>
<path d="M216.721 50.4208V25.1781H223.575V50.4171H216.721V50.4208Z" fill="#F5FCFF"/>
<path d="M205.631 24.8724H196.532L188.298 50.2142H195.792L197.07 45.4846H205.27L206.514 50.2142H213.971L205.631 24.8724ZM200.308 40.9095C201.748 38.6752 201.306 34.2031 201.306 34.2031C201.258 36.0177 199.396 38.5795 198.527 39.6801C197.754 38.7672 196.794 37.1514 198.037 35.5355C201.166 31.4868 201.748 30.8426 202.138 30.1322C202.182 30.0512 202.311 30.0954 202.351 30.1764C203.343 32.2321 203.919 34.4637 204.044 36.7428C204.221 40.0739 201.17 40.7843 200.308 40.9131V40.9095Z" fill="#F5FCFF"/>
</g>
<defs>
<clipPath id="clip0">
<rect width="223.201" height="73.6285" fill="white" transform="translate(0.799133 0.910919)"/>
</clipPath>
</defs>
</svg>
