<svg width="357" height="45" viewBox="0 0 357 45" fill="none" xmlns="http://www.w3.org/2000/svg">
<g>
<path fill-rule="evenodd" clip-rule="evenodd" d="M4.32024 25.4558C4.51879 25.4558 4.68037 25.6167 4.68037 25.816V40.0371C4.68037 40.3356 4.92206 40.5773 5.22057 40.5773H14.7614C14.9599 40.5773 15.1215 40.7396 15.1215 40.9382V44.8976C15.1216 44.9449 15.1124 44.9918 15.0943 45.0356C15.0762 45.0794 15.0497 45.1192 15.0163 45.1527C14.9828 45.1862 14.9431 45.2128 14.8994 45.2309C14.8556 45.2491 14.8087 45.2584 14.7614 45.2584H1.44054C1.25128 45.2585 1.06386 45.2213 0.889002 45.1489C0.714143 45.0764 0.555274 44.9703 0.421481 44.8364C0.287688 44.7026 0.181596 44.5437 0.109275 44.3688C0.0369534 44.1939 -0.000179358 44.0064 6.51347e-07 43.8172V25.816C6.51347e-07 25.6174 0.161582 25.4558 0.360135 25.4558H4.32024V25.4558ZM43.9247 30.1362C44.1232 30.1362 44.2841 30.2978 44.2841 30.4963V43.8179C44.2841 44.1997 44.1324 44.566 43.8624 44.836C43.5924 45.106 43.2262 45.2577 42.8443 45.2577H24.8424C24.747 45.2577 24.6555 45.2199 24.588 45.1525C24.5205 45.0851 24.4824 44.9937 24.4823 44.8983V40.9375C24.4823 40.7389 24.6438 40.5773 24.8424 40.5773H39.0643C39.2073 40.5773 39.3446 40.5205 39.4458 40.4193C39.5469 40.3181 39.6038 40.1809 39.6038 40.0378V30.4963C39.6038 30.2978 39.7654 30.1362 39.9646 30.1362H43.9247V30.1362ZM122.271 13.2147C122.469 13.2147 122.631 13.3756 122.631 13.5741V23.1156C122.631 27.086 125.21 28.8764 128.392 28.8764C131.573 28.8764 134.152 27.086 134.152 23.1156V13.5741C134.152 13.3756 134.314 13.2147 134.513 13.2147H138.473C138.671 13.2147 138.832 13.3756 138.832 13.5741V23.1156C138.832 29.2899 134.158 33.5568 128.391 33.5568C122.626 33.5568 117.95 29.2899 117.95 23.1156V13.5741C117.95 13.3756 118.112 13.2147 118.31 13.2147H122.271ZM230.443 12.682C231.813 12.6798 233.171 12.9481 234.438 13.4716C235.704 13.9951 236.855 14.7635 237.825 15.7328C238.794 16.702 239.562 17.853 240.085 19.1198C240.609 20.3866 240.877 21.7443 240.875 23.1149C240.877 24.4856 240.609 25.8431 240.085 27.1099C239.562 28.3766 238.793 29.5275 237.824 30.4967C236.855 31.4659 235.704 32.2342 234.437 32.7577C233.171 33.2811 231.813 33.5494 230.443 33.5472C229.072 33.5494 227.714 33.2812 226.448 32.7577C225.181 32.2343 224.03 31.466 223.061 30.4969C222.092 29.5278 221.324 28.377 220.8 27.1103C220.277 25.8437 220.008 24.4862 220.01 23.1156C220.008 21.7448 220.276 20.387 220.799 19.1201C221.323 17.8531 222.091 16.702 223.06 15.7326C224.029 14.7632 225.18 13.9946 226.447 13.471C227.714 12.9474 229.072 12.6791 230.443 12.6813V12.682ZM208.247 12.6553C211.015 12.6553 213.49 13.72 215.379 15.4501C215.444 15.5187 215.479 15.6091 215.479 15.7031C215.479 15.7971 215.444 15.8875 215.379 15.9561L213.836 17.4993C213.805 17.531 213.767 17.5561 213.726 17.5732C213.685 17.5903 213.641 17.5991 213.596 17.5991C213.552 17.5991 213.508 17.5903 213.467 17.5732C213.425 17.5561 213.388 17.531 213.357 17.4993C211.958 16.2298 210.136 15.5274 208.247 15.5295C203.962 15.5295 200.503 19.1227 200.716 23.4607C200.875 27.3729 204.095 30.5128 208.007 30.6463C209.978 30.7039 211.894 29.9982 213.357 28.6765C213.388 28.6449 213.425 28.6197 213.467 28.6026C213.508 28.5855 213.552 28.5767 213.596 28.5767C213.641 28.5767 213.685 28.5855 213.726 28.6026C213.767 28.6197 213.805 28.6449 213.836 28.6765L215.379 30.2204C215.444 30.2889 215.479 30.3794 215.479 30.4734C215.479 30.5674 215.444 30.6578 215.379 30.7264C213.396 32.5749 210.771 33.5773 208.06 33.5205C202.605 33.4144 198.107 29.0763 197.842 23.6476C197.522 17.6321 202.312 12.6553 208.247 12.6553V12.6553ZM327.011 12.6553C329.779 12.6553 332.254 13.72 334.144 15.4501C334.208 15.5187 334.244 15.6091 334.244 15.7031C334.244 15.7971 334.208 15.8875 334.144 15.9561L332.601 17.4993C332.569 17.531 332.532 17.5561 332.491 17.5732C332.45 17.5903 332.406 17.5991 332.361 17.5991C332.317 17.5991 332.272 17.5903 332.231 17.5732C332.19 17.5561 332.153 17.531 332.122 17.4993C330.723 16.2296 328.9 15.5273 327.011 15.5295C322.727 15.5295 319.268 19.1227 319.48 23.4607C319.639 27.3729 322.86 30.5128 326.772 30.6463C328.742 30.7041 330.659 29.9984 332.122 28.6765C332.153 28.6449 332.19 28.6197 332.231 28.6026C332.272 28.5855 332.317 28.5767 332.361 28.5767C332.406 28.5767 332.45 28.5855 332.491 28.6026C332.532 28.6197 332.569 28.6449 332.601 28.6765L334.144 30.2204C334.208 30.2889 334.244 30.3794 334.244 30.4734C334.244 30.5674 334.208 30.6578 334.144 30.7264C332.161 32.5747 329.536 33.5771 326.826 33.5205C321.37 33.4144 316.872 29.0763 316.606 23.6476C316.287 17.6321 321.076 12.6553 327.011 12.6553V12.6553ZM85.7536 13.2147C85.9522 13.2147 86.1138 13.3756 86.1138 13.5741V32.6558C86.1138 32.8543 85.9529 33.0166 85.7543 33.0166H81.7935C81.6981 33.0164 81.6066 32.9784 81.5391 32.9109C81.4716 32.8434 81.4336 32.7519 81.4334 32.6564V13.5748C81.4334 13.3763 81.595 13.2147 81.7935 13.2147H85.7536V13.2147ZM150.955 13.2147C151.154 13.2147 151.315 13.3756 151.315 13.5748V27.796C151.315 28.0945 151.557 28.3362 151.855 28.3362H161.396C161.595 28.3362 161.756 28.4978 161.756 28.697V32.6564C161.756 32.855 161.595 33.0173 161.396 33.0173L148.075 33.0166C147.886 33.0167 147.699 32.9795 147.524 32.9072C147.349 32.8349 147.19 32.7288 147.057 32.5951C146.923 32.4614 146.817 32.3026 146.744 32.1279C146.672 31.9532 146.635 31.7659 146.635 31.5767V13.5748C146.635 13.3763 146.796 13.2147 146.995 13.2147H150.955ZM172.69 13.2147C172.889 13.2147 173.05 13.3756 173.05 13.5748V27.796C173.05 28.0945 173.292 28.3362 173.591 28.3362H183.132C183.33 28.3362 183.492 28.4978 183.492 28.697V32.6564C183.492 32.855 183.331 33.0173 183.132 33.0173L169.811 33.0159C169.622 33.016 169.434 32.9788 169.259 32.9065C169.085 32.8342 168.926 32.7281 168.792 32.5944C168.658 32.4607 168.552 32.3019 168.48 32.1272C168.407 31.9525 168.37 31.7652 168.37 31.576V13.5748C168.37 13.3763 168.532 13.2147 168.73 13.2147H172.69V13.2147ZM63.7266 13.2147C63.9251 13.2147 64.0867 13.3756 64.0867 13.5748V27.796C64.0867 28.0945 64.3284 28.3362 64.6262 28.3362H74.167C74.3663 28.3362 74.5279 28.4978 74.5279 28.697V32.6564C74.5279 32.855 74.3663 33.0173 74.167 33.0173L60.8462 33.0159C60.4643 33.0159 60.0981 32.8642 59.8281 32.5942C59.558 32.3241 59.4063 31.9579 59.4063 31.576V13.5748C59.4063 13.3763 59.5672 13.2147 59.7658 13.2147H63.7266V13.2147ZM110.499 13.2147C110.697 13.2147 110.858 13.3756 110.858 13.5741V17.5349C110.858 17.7335 110.697 17.8951 110.499 17.8951H100.958C100.815 17.8951 100.677 17.952 100.576 18.0533C100.475 18.1546 100.418 18.292 100.418 18.4353V20.5954C100.418 20.6953 100.498 20.7754 100.598 20.7754H110.498C110.697 20.7754 110.858 20.9363 110.858 21.1356V25.0964C110.858 25.2949 110.697 25.4558 110.499 25.4558H100.598C100.574 25.4558 100.551 25.4605 100.529 25.4696C100.507 25.4787 100.487 25.492 100.47 25.5088C100.454 25.5256 100.44 25.5455 100.431 25.5674C100.422 25.5894 100.418 25.6129 100.418 25.6366V32.6564C100.418 32.855 100.257 33.0166 100.058 33.0173H96.0976C96.0019 33.0173 95.9101 32.9792 95.8424 32.9116C95.7748 32.8439 95.7367 32.7521 95.7367 32.6564V14.6552C95.7367 13.8596 96.3817 13.2147 97.1773 13.2147H110.499V13.2147ZM248.864 13.2147C249.104 13.2147 249.291 13.2948 249.423 13.4543L261.745 28.3574C261.772 28.3848 261.878 28.3574 261.878 28.3047V13.5604C261.878 13.3742 262.038 13.2147 262.224 13.2147H264.38C264.593 13.2147 264.752 13.3742 264.752 13.5604V32.6421C264.754 32.6913 264.745 32.7404 264.727 32.7861C264.709 32.8319 264.681 32.8735 264.646 32.9084C264.612 32.9432 264.57 32.9706 264.524 32.9889C264.478 33.0071 264.429 33.0158 264.38 33.0145H262.198C261.985 33.0145 261.798 32.9084 261.639 32.7489L249.343 17.8711C249.291 17.8191 249.21 17.8711 249.21 17.9252V32.6427C249.21 32.855 249.05 33.0145 248.864 33.0145H246.709C246.66 33.0157 246.611 33.007 246.565 32.9887C246.519 32.9705 246.478 32.9431 246.443 32.9084C246.408 32.8736 246.381 32.8322 246.362 32.7865C246.344 32.7408 246.335 32.6919 246.336 32.6427V13.5611C246.336 13.3742 246.496 13.2147 246.709 13.2147H248.864V13.2147ZM274.126 13.2147C274.365 13.2147 274.551 13.2948 274.685 13.4543L287.007 28.3574C287.034 28.3848 287.14 28.3574 287.14 28.3047V13.5604C287.14 13.3742 287.3 13.2147 287.486 13.2147H289.641C289.854 13.2147 290.014 13.3742 290.014 13.5604V32.6421C290.015 32.6913 290.006 32.7403 289.988 32.786C289.97 32.8318 289.942 32.8733 289.908 32.9081C289.873 32.943 289.831 32.9704 289.785 32.9887C289.74 33.0069 289.691 33.0157 289.641 33.0145H287.459C287.246 33.0145 287.06 32.9084 286.9 32.7489L274.606 17.8711C274.552 17.8191 274.473 17.8711 274.473 17.9252V32.6427C274.473 32.855 274.312 33.0145 274.126 33.0145H271.971C271.922 33.0158 271.873 33.0071 271.827 32.9889C271.781 32.9707 271.74 32.9434 271.705 32.9086C271.67 32.8738 271.643 32.8323 271.624 32.7866C271.606 32.7409 271.597 32.692 271.598 32.6427V13.5611C271.598 13.3742 271.758 13.2147 271.971 13.2147H274.126H274.126ZM311.038 13.2147C311.225 13.2147 311.384 13.3742 311.384 13.5871V15.7432C311.382 15.8343 311.345 15.9212 311.28 15.9857C311.216 16.0502 311.129 16.0872 311.038 16.0889H299.993C299.919 16.087 299.845 16.1002 299.777 16.1276C299.708 16.155 299.646 16.1961 299.593 16.2483C299.541 16.3006 299.5 16.3629 299.472 16.4315C299.445 16.5002 299.432 16.5737 299.434 16.6476V21.4649C299.434 21.5717 299.514 21.6511 299.62 21.6511H311.037C311.224 21.6511 311.383 21.8107 311.383 21.9969V24.1529C311.383 24.3651 311.224 24.5254 311.037 24.5254H299.62C299.595 24.5247 299.571 24.5291 299.548 24.5382C299.525 24.5473 299.504 24.561 299.487 24.5784C299.469 24.5959 299.456 24.6167 299.446 24.6395C299.437 24.6624 299.433 24.687 299.434 24.7116V29.5823C299.434 29.9013 299.673 30.141 299.993 30.141H311.011C311.197 30.141 311.357 30.3005 311.357 30.4867V32.6427C311.357 32.855 311.197 33.0145 311.011 33.0145H297.997C297.808 33.0154 297.621 32.9789 297.446 32.9071C297.271 32.8352 297.113 32.7295 296.979 32.5959C296.845 32.4624 296.739 32.3037 296.667 32.129C296.595 31.9543 296.559 31.767 296.559 31.5781V14.6518C296.559 13.8535 297.198 13.214 297.997 13.214H311.037L311.038 13.2147ZM355.68 13.2147C355.866 13.2147 356.026 13.3742 356.026 13.5871V15.663C356.024 15.7543 355.987 15.8413 355.923 15.9058C355.858 15.9703 355.771 16.0072 355.68 16.0088H349.186C349.08 16.0088 349 16.1156 349 16.195V32.6427C349 32.855 348.84 33.0145 348.654 33.0145H346.499C346.45 33.0158 346.401 33.0071 346.355 32.9889C346.309 32.9707 346.267 32.9434 346.233 32.9086C346.198 32.8739 346.17 32.8324 346.152 32.7867C346.133 32.741 346.125 32.692 346.126 32.6427V16.195C346.126 16.1156 346.046 16.0088 345.939 16.0088H339.473C339.26 16.0088 339.1 15.8493 339.1 15.663V13.5871C339.1 13.3749 339.26 13.2147 339.473 13.2147H355.68ZM230.443 15.5562C229.45 15.5554 228.466 15.7504 227.549 16.13C226.632 16.5095 225.798 17.0663 225.096 17.7683C224.394 18.4704 223.837 19.304 223.458 20.2214C223.078 21.1388 222.883 22.1221 222.884 23.1149C222.883 24.1077 223.078 25.0909 223.458 26.0083C223.837 26.9256 224.394 27.7591 225.096 28.4611C225.798 29.1631 226.632 29.7198 227.549 30.0993C228.467 30.4788 229.45 30.6738 230.443 30.673C231.435 30.6736 232.418 30.4785 233.336 30.0989C234.253 29.7192 235.087 29.1625 235.789 28.4604C236.49 27.7584 237.047 26.9249 237.427 26.0075C237.806 25.0902 238.001 24.107 238.001 23.1143C238.001 22.1216 237.806 21.1385 237.426 20.2212C237.047 19.304 236.49 18.4706 235.788 17.7687C235.086 17.0668 234.252 16.5102 233.335 16.1307C232.418 15.7512 231.435 15.5562 230.442 15.5569L230.443 15.5562ZM42.8443 0.973557C43.6399 0.973557 44.2841 1.61851 44.2841 2.41409V20.416C44.2841 20.6145 44.1232 20.7754 43.9247 20.7754H39.9639C39.8685 20.7754 39.777 20.7376 39.7095 20.6702C39.642 20.6028 39.604 20.5114 39.6038 20.416V6.19413C39.6038 6.05098 39.547 5.91368 39.4458 5.81239C39.3446 5.7111 39.2074 5.65411 39.0643 5.65393H29.5228C29.4272 5.65393 29.3355 5.61601 29.2679 5.54849C29.2002 5.48097 29.1621 5.38937 29.1619 5.29379V1.33369C29.1619 1.13514 29.3235 0.973557 29.5228 0.973557H42.8436H42.8443ZM19.4424 0.973557C19.641 0.973557 19.8019 1.13445 19.8019 1.33369V5.29379C19.8019 5.49235 19.641 5.65393 19.4424 5.65393H5.22057C5.07742 5.65393 4.94012 5.71075 4.83884 5.81191C4.73755 5.91307 4.68055 6.05029 4.68037 6.19344V15.7349C4.68037 15.9335 4.51948 16.0951 4.32024 16.0951H0.360135C0.264621 16.0951 0.17302 16.0571 0.105481 15.9896C0.0379432 15.9221 6.51347e-07 15.8305 6.51347e-07 15.7349V2.41409C6.51347e-07 1.61851 0.64564 0.973557 1.44122 0.973557H19.4431H19.4424Z" fill="#F5FCFF"/>
</g>
<defs>
<clipPath id="clip0">
<rect width="356.026" height="43.8186" fill="white" transform="translate(0 0.973557)"/>
</clipPath>
</defs>
</svg>
