<svg height="100" width="100" xml:space="preserve" xmlns="http://www.w3.org/2000/svg"><path fill="#B8852E" d="m43.174 74.325-6.195-1.736-5.86-6.682 6.533.541z"/><path fill="#D9A741" d="m43.174 74.325 4.438-9.291-4.147-.584-5.813 1.998z"/><path fill="#B8852E" d="m28.848 69.919-3.487-.977-3.295-3.757 3.53.015z"/><path fill="#D9A741" d="m28.848 69.919 2.494-5.225-2.332-.33-3.414.836z"/><path fill="#876929" d="m20 64.712 3.563.725V33.054L20 35.083z"/><path fill="#D9A741" d="M37.328 36.28v27.877l-13.764 1.28V33.054z"/><path fill="#876929" d="m27.959 66.38 6.108 1.23V27.858l-6.108 3.096z"/><path fill="#D9A741" d="M68.922 39.048v24.078l-34.855 4.485V27.858z"/><path fill="#B8852E" d="m62.617 80.058-8.805-2.467-8.322-9.492 9.281.77z"/><path fill="#D9A741" d="m62.617 80.058 6.305-13.198-5.893-.834-8.258 2.843z"/><path fill="#876929" d="m40.998 68.915 8.983 1.738V19.942l-8.983 4.491z"/><path fill="#D9A741" d="M49.982 70.653 80 64.64V34.95L49.982 19.942z"/></svg>