<svg xmlns="http://www.w3.org/2000/svg" width="1000" height="1000" xml:space="preserve"><text xml:space="preserve" style="font-style:normal;font-weight:400;font-size:2.66758442px;line-height:125%;font-family:sans-serif;letter-spacing:0;word-spacing:0;fill:#000;fill-opacity:1;stroke:none;stroke-width:1px;stroke-linecap:butt;stroke-linejoin:miter;stroke-opacity:1" x="856.458" y="221.685" transform="translate(-845.48 763.716)"/><path d="M850.497 225.907c-.196.01-.229.026-.688.29-.196.112-.39.221-.43.243l-.206.12-.19.11c-.05.03-.318.182-1.232.708l-.365.21-.358.206-.37.213a.945.945 0 0 0-.31.328c-.105.209-.097.077-.097 2.369 0 2.02 0 2.147.045 2.262.074.195.169.319.32.422.05.034.096.064.1.064.004 0 .085.045.183.101.098.057.18.104.184.104.003 0 .052.029.107.062l.172.102.438.25.207.12.205.118.549.315.171.101c.056.034.105.06.108.06.003 0 .064.036.137.079l.203.117c.039.022.226.127.414.236.409.238.443.255.603.291.113.027.15.028.264.008.09-.015.25-.07.285-.095.017-.013.162-.098.307-.178.047-.026.234-.133.414-.238.18-.105.359-.209.398-.23a210.416 210.416 0 0 0 1.342-.772c.094-.056.165-.096.264-.15l.207-.12.222-.129c.048-.026.124-.07.17-.1a.737.737 0 0 1 .092-.052c.03 0 .192-.125.262-.201.1-.11.164-.24.197-.4.037-.175.038-4.106.002-4.282a.856.856 0 0 0-.193-.392c-.1-.11-.152-.145-.594-.395l-.262-.15-1.097-.633-.239-.137-.261-.152c-.04-.022-.244-.137-.454-.258l-.623-.357c-.297-.171-.385-.2-.603-.188z" style="fill:none;fill-opacity:1;fill-rule:evenodd;stroke:#3c3c3c;stroke-width:.80000001;stroke-linecap:round;stroke-linejoin:round;stroke-miterlimit:4;stroke-dasharray:none;stroke-dashoffset:0;stroke-opacity:.39215686" transform="matrix(95.9753 0 0 95.9753 -81131.795 -21642.944)"/><path d="M850.497 225.913c-.196.011-.229.026-.687.29l-.43.244c-.04.021-.133.075-.207.119l-.19.111c-.05.029-.318.181-1.232.707-.175.1-.34.196-.365.211l-.358.205-.37.213a.945.945 0 0 0-.31.328c-.105.21-.097.077-.097 2.37 0 2.02 0 2.146.045 2.261.074.195.169.32.32.422.051.034.096.064.1.064.004 0 .086.045.183.102.098.057.18.103.184.103.003 0 .052.03.107.063.056.034.133.08.172.101l.438.25.207.12.205.119.549.314.172.102c.055.033.104.06.107.06.003 0 .064.036.137.078l.203.118c.04.022.226.127.414.236.409.237.443.254.603.29.113.027.15.029.264.009.09-.016.25-.07.285-.096.017-.012.162-.097.307-.178.047-.026.234-.133.414-.238l.398-.23a210.416 210.416 0 0 0 1.342-.772c.094-.056.166-.096.264-.15.04-.022.133-.075.207-.12.074-.043.174-.102.223-.128.048-.026.123-.07.17-.1a.737.737 0 0 1 .091-.052c.03 0 .192-.126.262-.202.1-.11.164-.24.197-.4.037-.174.039-4.105.002-4.281a.856.856 0 0 0-.193-.393c-.1-.11-.151-.145-.594-.394l-.262-.15c-.16-.094-.938-.543-1.097-.634-.026-.015-.134-.075-.239-.136l-.261-.153c-.04-.022-.244-.137-.453-.257l-.623-.358c-.298-.17-.386-.2-.604-.187z" style="fill:none;fill-opacity:1;fill-rule:evenodd;stroke:#fff;stroke-width:.5;stroke-linecap:round;stroke-linejoin:round;stroke-miterlimit:4;stroke-dasharray:none;stroke-dashoffset:0;stroke-opacity:1" transform="matrix(95.9753 0 0 95.9753 -81131.795 -21642.944)"/><path d="M850.497 225.905c-.196.01-.229.025-.688.289-.196.113-.39.222-.43.244-.039.022-.132.075-.206.119l-.19.111c-.05.029-.318.181-1.232.707-.175.1-.34.196-.365.211l-.358.205c-.17.099-.337.195-.371.213a.945.945 0 0 0-.309.328c-.105.21-.097.077-.097 2.37 0 2.02 0 2.146.045 2.261.074.195.169.32.32.422.05.035.096.065.1.065.004 0 .085.044.183.101.098.057.18.104.184.104.003 0 .052.028.107.062l.172.102c.09.05.375.213.438.25l.207.119.205.119.548.314c.04.023.117.068.172.102.056.034.105.06.108.06a14.737 14.737 0 0 0 .34.195c.039.023.226.128.414.237.409.237.443.254.603.291.113.026.15.028.264.008.09-.016.25-.07.285-.096.017-.012.162-.097.307-.177l.414-.239.398-.23a210.416 210.416 0 0 0 1.342-.772c.094-.056.165-.095.264-.15.039-.022.132-.075.207-.12.074-.043.174-.102.222-.128.048-.026.124-.07.17-.1a.737.737 0 0 1 .092-.052c.03 0 .192-.125.262-.201.1-.11.164-.24.197-.4.037-.175.038-4.106.002-4.282a.856.856 0 0 0-.193-.393c-.1-.11-.152-.145-.594-.394l-.262-.15-1.097-.633-.239-.137-.261-.153c-.04-.021-.244-.137-.454-.257l-.623-.358c-.297-.17-.385-.199-.603-.187z" style="fill:#9b4f96;fill-opacity:1;fill-rule:evenodd;stroke:none;stroke-width:3;stroke-linecap:round;stroke-linejoin:round;stroke-miterlimit:4;stroke-dasharray:none;stroke-dashoffset:0;stroke-opacity:1" transform="matrix(95.9753 0 0 95.9753 -81131.795 -21642.944)"/><path d="M846.405 233.171c.107.165.156.162.613.428l.426.25.207.12.191.108c.05.03.316.185 1.229.714l.365.21c.026.016.186.11.356.208.17.098.337.194.37.215.099.06.312.11.439.103.234-.014.115.046 2.1-1.1 1.75-1.01 1.86-1.074 1.937-1.17a.822.822 0 0 0 .205-.488c.004-.062.008-.115.006-.119a3.03 3.03 0 0 1-.004-.21c0-.113 0-.208-.002-.21a45.989 45.989 0 0 1 0-.828v-.476a98.9 98.9 0 0 0-.001-.633c0-.045 0-.134.002-.2l-.001-.123a4.264 4.264 0 0 1-.001-.157v-.234c0-.045-.003-.26-.002-.477 0-.473-.002-.511-.05-.668-.02-.064-.05-.097-.073-.134l-8.333 4.823c.01.016.01.03.022.049z" style="fill:#68217a;fill-opacity:1;fill-rule:evenodd;stroke:none;stroke-width:3;stroke-linecap:round;stroke-linejoin:round;stroke-miterlimit:4;stroke-dasharray:none;stroke-dashoffset:0;stroke-opacity:1" transform="matrix(95.9753 0 0 95.9753 -81131.795 -21642.944)"/><path d="M854.749 233.086c.088-.175.092-.211.093-.74 0-.227.003-.45.003-.495v-.238l-.002-.22.004-1.421v-.422a86.42 86.42 0 0 0 .002-.84c.003-.11-.066-.3-.132-.41l-4.167 2.415 4.166 2.413c.01-.016.022-.024.032-.042z" style="fill:#813787;fill-opacity:1;fill-rule:evenodd;stroke:none;stroke-width:3;stroke-linecap:round;stroke-linejoin:round;stroke-miterlimit:4;stroke-dasharray:none;stroke-dashoffset:0;stroke-opacity:1" transform="matrix(95.9753 0 0 95.9753 -81131.795 -21642.944)"/><path d="M850.362 227.866v.002a2.788 2.788 0 0 0-1.07.287c-1.122.574-1.736 1.751-1.556 2.984a2.853 2.853 0 0 0 .58 1.334c.098.132.347.38.5.5.43.338.997.554 1.558.596.12.01.494-.007.62-.025a2.147 2.147 0 0 0 .3-.063c.511-.121 1.04-.442 1.42-.863.102-.113.239-.293.295-.39l.041-.073-.592-.342a15.548 15.548 0 0 0-.615-.345c-.014-.002-.048.032-.08.08-.157.233-.432.44-.707.533-.2.067-.252.074-.485.074a1.25 1.25 0 0 1-.6-.121 1.331 1.331 0 0 1-.398-.275 1.444 1.444 0 0 1 .645-2.441c.167-.046.533-.052.687-.01.138.036.293.097.395.155.172.099.386.3.478.45.02.03.045.054.055.054.01 0 .054-.02.098-.045a61.94 61.94 0 0 0 .873-.503c.035-.021.106-.06.156-.088a.33.33 0 0 0 .09-.061c0-.006-.039-.07-.088-.145a2.894 2.894 0 0 0-1.478-1.125 2.95 2.95 0 0 0-1.122-.134zm2.672 2.152v.182h-.181v.365h.181v.363h-.181v.366h.181v.181h.366v-.181h.363v.181h.365v-.181h.182v-.366h-.182v-.363h.182v-.365h-.182v-.182h-.365v.182h-.363v-.182h-.366zm.366.547h.363v.363h-.363v-.363z" style="fill:#fff;fill-opacity:1;fill-rule:evenodd;stroke:none;stroke-width:1px;stroke-linecap:butt;stroke-linejoin:miter;stroke-opacity:1" transform="matrix(95.9753 0 0 95.9753 -81131.795 -21642.944)"/></svg>