<svg xmlns="http://www.w3.org/2000/svg" width="276.173" height="217.156" version="1.0"><path d="M107.198 213.883c-.762 2.804-2.756 7.886-1.145 9.65 1.754-2.974 4.991-3.049 6.683.002 4.034 1.444 4.834-4.302 4.692-7.162.05-2.516-.957-5.145-1.436-7.329 3.103 1.521 2.785 5.456 3.019 8.377-.173 2.906-.943 7.227-4.3 7.877-3.334 1.11-4.8-5.354-7.162-1.216-4.546 3.263-3.64-4.926-2.485-7.326.577-.945.445-4.153 2.134-2.873zM121.936 219.982c.009 1.364 2.225 4.41-.385 3.592-.024-2.855.349-6.556 3.293-7.914 1.555-.597 4.076.465 1.15 1.017-3.405 1.22-1.655 5.823-3.676 7.507-.86.655-2.681-4.951-.382-4.202zM131.586 217.2c.828 1.803-.351 7.389-1.27 3.045.095-1.506-1.029-3.397 1.27-3.045zM136.42 209.258c.026 4.189-.109 8.426-.724 12.572-1.978-2.594-.652-7.181-.78-10.509-.067-1.652-.197-2.133 1.504-2.063z" style="fill:#000;fill-opacity:1;stroke-width:1;stroke-miterlimit:4;stroke-dasharray:none" transform="translate(-93.22 -119.729)"/><path d="M134.115 218.612c1.453-.815 6.05-2.491 6.113-1.821-1.53.44-5.512 4.575-6.113 1.82z" style="fill:#000;fill-opacity:1;stroke-width:1;stroke-miterlimit:4;stroke-dasharray:none" transform="translate(-93.22 -119.729)"/><path d="M141.726 216.507c2.021.981 5.373-2.029 1.803-.268-3.413 1.954-1.052 6.308 2.432 5.987 4.462 0-1.804 2.208-3.273.762-4.51-1.75-2.387-8.47 1.906-8.839 4.807.346.115 5.327-2.74 3.751-.824.084-.073-1-.128-1.393zM165.657 217.964c-1.773-3.71-7.625 2.014-4.731 2.525 1.822-1.16 4.595-3.955 5.501-.246.795 1.422 1.188 4.592-.639 1.974-1.611-1.033-.52-3.873-2.014-1.48-2.492 3.224-7.386.503-4.587-2.996 1.332-2.805 6.725-3.319 7.244-.456l-.774.679zM131.262 212.346c.27 3.205-2.49 1.199-1.252-.053l1.252.053z" style="fill:#000;fill-opacity:1;stroke-width:1;stroke-miterlimit:4;stroke-dasharray:none" transform="translate(-93.22 -119.729)"/><path style="fill:#000;fill-opacity:1;stroke-width:1;stroke-miterlimit:4;stroke-dasharray:none" d="M116.747 234.858c1.21-1.68.936-6.885-.163-6.611-.998 5.764.32 11.63.638 17.4-.423 4.91-5.25-.822-3.428-3.385 2.18-3.987 7.207-5.147 11.077-6.98 1.326-.476 1.291 1.93-.407 1.651-3.045.707-3.406 5.887-.137 2.34 1.165-1.084 2.575-4.842 3.568-1.85-.614 1.549 1.819 6.703-.902 3.632-1.686-1.253-.833-6.724.805-4.065-.944 2.695-4.663 7.014-7.417 4.207-1.428-3.07 4.5-8.04 6.034-5.237-2.898 1.994-7.499 2.715-10.381 5.424-2.808.698.59 7.735-.436 3.521-.363-5.395-1.324-10.823-.678-16.23 1.37-5.286 5.635.987 3.87 3.877-.396 1.135-.375 3.812-2.043 2.306zM133.395 237.227c.576 1.406.43 7.362-1 3.414-.137-1.526-1.474-3.717 1-3.414zM135.273 226.473c1.522 5.027 2.162 10.309 2.64 15.524-.478 2.284-2.175-2.816-1.994-3.925-.647-3.7-1.068-7.445-2.027-11.084l1.381-.515zM140.638 237.733c.565 1.345.235 6.489-1.038 2.966-.135-1.466-1.194-3.16 1.038-2.966zM142.527 236.408c.74 1.103 1.388 4.999 1.002 2.519.573-2.978 4.824-4.6 5.967-1.086.915 1.374 1.712 5.704-.723 2.623-.37-2.154-2.656-4.353-3.402-1.228-1.486 3.94-4.152.335-4.351-2.227l1.507-.6zM156.495 236.239c-3.023-1.845-3.463 6.117-.682 2.156.815-.867.768-2.266.265-2.536 3.699-.367 3.1 5.566 3.855 8.264.577 4.705-6.107 4.582-7.994 1.375-.638-1.471 3.563 1.974 5.069.694 2.782-2.364-.264-6.765-.609-9.846 4.136-1.103-.191 6.7-3.156 4.511-2.886-2.42.83-8.409 4.217-5.724l-.965 1.106zM133.026 231.875c.983 3.948-3.674 1.757-1.296-.033l1.296.033zM140.609 231.88c.434 1.938-1.486 3.386-1.803.681-.405-1.058 1.274-.468 1.803-.68z" transform="translate(-113.384 -115.729)"/><path style="fill:#000;fill-opacity:1;stroke-width:1;stroke-miterlimit:4;stroke-dasharray:none" d="M173.124 229.37c-.343 4.613.45 9.437-.527 13.917-1.789.567-1.053-5.533-1.276-7.396.65-1.927-1.436-7.721 1.803-6.52z" transform="translate(-115.76 -116.89)"/><path style="fill:#000;fill-opacity:1;stroke-width:1;stroke-miterlimit:4;stroke-dasharray:none" d="M168.11 236.578c3.18-.73 7.028-2.738 9.994-1.963-2.683 1.647-7.13 3.596-9.607 3.047-.13-.361-.258-.723-.387-1.084zM180.497 238.265c1.423-.332 3.962-3.322.802-1.82-2.364.696-3.502 4.642.042 3.682 1.42.302 6.682-1.84 2.983.204-2.873 2.92-9.83.841-6.143-3.538 1.334-3.423 8.746-2.422 5.144 1.244-1.002.825-2.515 2.333-2.828.228zM190.097 236.687c-1.062.567-4.256 1.222-2.082-.2 2.621.205 8.611 2.354 5.025 5.378-1.394 1.73-6.185 1.143-4.898-1.017 1.693 1.613 6.586-1.459 2.227-1.893-1.822.049-6.554-2.209-2.7-3.273 1.602-.398 2.5-.946 2.428 1.005zM196.679 229.191c.75 4.385 2.31 9.966.857 13.975-1.346-3.954-1.714-9.334-2.268-13.337l1.41-.638z" transform="translate(-115.76 -116.89)"/><path style="fill:#000;fill-opacity:1;stroke-width:1;stroke-miterlimit:4;stroke-dasharray:none" d="M192.792 235.59c3.882-1.108 7.673-2.815 11.745-3.02-1.165 2.432-5.283 2.65-7.83 3.666-1.772.232-3.754 2.203-3.915-.646z" transform="translate(-115.76 -116.89)"/><g style="fill:#000"><path style="opacity:1;fill:#000;fill-opacity:1;stroke-width:1;stroke-miterlimit:4;stroke-dasharray:none" d="M561.443 119.826c-1.542 5.954 2.905 17.737-1.638 19.59-5.855-6.114 1.293-18.071 1.387-26.373-.947-7.29 7.922-21.316 11.49-8.568 1.428 6.056 2.946 10.732 5.142 2.184 9.093-12.679 12.663 8.555 14.142 15.396 3.534 5.447 2.306 22.118-2.893 9.207-1.711-6.09-5.09-22.912-6.464-22.615-.949 9.536-12.648 11.668-13.628.788-1.412-4.202-2.4-9.298-1.48-2.108-2.63 9.827-4.305 19.952-4.863 30.102-8.577 8.57-4.768-10.586-5.42-16.052-1.038-2.894 2.833-1.097 4.225-1.55z" transform="translate(5.177 55.007) scale(.35083)"/><path style="opacity:1;fill:#000;fill-opacity:1;stroke-width:1;stroke-miterlimit:4;stroke-dasharray:none" d="M612.03 120.22c-1.572-8.627-15.762 1.645-14.35 8.574 4.439 9.03 11.353-15.034 15.698-3.556 1.345 5.106 1.672 13.725 5.446 4.546 5.576-7.888.617-23.236 7.872-27.585 1.494 8.023 2.199 22.735-.114 28.092 3.135-7.91 10.38-20.729 19.53-18.673.605 6.474-11.551 7.693-12.275 15.276-1.055 9.217-11.103 10.93-10.937.455 1.215-7.661-2.781-19.07 2.67-24.566 3.074 8.74-5.381 22.829-8.697 32.878-8.025 6.082-11.071-17.28-4.764-11.942 1.018 9.916-18.468 17.975-19.299 5.064-.453-10.315 15.2-22.9 22.63-12.365 1.594 3.871.565 6.52-3.41 3.801z" transform="translate(5.177 55.007) scale(.35083)"/><path style="opacity:1;fill:#000;fill-opacity:1;stroke-width:1;stroke-miterlimit:4;stroke-dasharray:none" d="M639.512 122.25c-3.096 8.195 10.51 8.004 9.588 10.27-7.114 7.163-17.903-5.585-12.646-10.593l3.058.323zM656.876 123.892c5.19.405 20.555-8.059 8.451-6.562-10.13 3.917-6.566 18.947 3.935 19.277 3.39.481 13.346-.858 4.578 2.492-11.724 6.8-26.049-9.478-17.524-20.124 3.08-11.253 26.63-7.325 15.987 3.87-3.547 1.393-16.432 9.293-15.427 1.047zM712.234 104.064c-.235 12.346 2.304 26.842-2.329 37.792-4.743-11.333-1.446-25.024-2.89-37.31 1.74-.16 3.48-.32 5.22-.482z" transform="translate(5.177 55.007) scale(.35083)"/><path style="opacity:1;fill:#000;fill-opacity:1;stroke-width:1;stroke-miterlimit:4;stroke-dasharray:none" d="M692.194 120.908c13.293-.75 23.654-11.504 27.141-23.855 9.188-2.338 4.554 14.747 5.713 21.36 1.438 5.455-2.666 20.297 4.054 9.766 7.638-11.954 18.194 6.947 10.013 11.464-3.615-4.96-2.304-14.484-8.393-5.407-9.056 10.148-12.263-5.838-10.7-13.099 1.994-6.896-5.388-19.896 3.66-21.956-3.844 14.09-16.51 25.859-31.455 26.32l-.033-4.593zM748.189 123.452c4.594.412 16.684-7.352 10.806-9.119-8.783 5.86-5.71 22.012 5.711 22.367 4.47-.504 12.458-1.867 4.033 2.543-9.766 6.024-22.461-5.285-19.8-15.838-3.563-12.344 20.464-20.774 15.952-4.84-1.842 4.73-17.101 14.468-16.668 5.279l-.034-.392zM571.443 170.535c-3.185 14.892-3.019 30.274-6.23 45.182-2.274-7.476-1.402-18.312-1.082-27.03 1.555-5.41-1.033-18.71 4.86-18.917l2.452.765z" transform="translate(5.177 55.007) scale(.35083)"/><path style="opacity:1;fill:#000;fill-opacity:1;stroke-width:1;stroke-miterlimit:4;stroke-dasharray:none" d="M557.916 190.438c-2.962 2.018-6.78 7.444-6.27.18 11.202-2.845 22.773-9.002 34.301-7.658 1.962 5.308-14.582 5.994-19.482 8.639-4.394 1.327-19.558 7.821-16.788-.688 3.613-2.337 6.135-6.012 8.24-.473zM581.66 195.277c6.589-.681 15.735-8.633 18.876-8.022-5.302 1.899-19.681 11.62-10.344 15.827 9.911 1.172 23.584-6.17 26.754-11.73-1.453 3.796-13.267 5.58-5.328 1.888 10.134-1.69 24.959 11.383 10.002 16.774-11.005 7.565-15.222-11.006-8.163-9.45-6.569 10.855 18.054 2.177 4.613-.464-5.054-.484-20.142-4.398-9.232-9.473 4.626-4.531 16.567-1.347 6.692 3.86-8.077 7.51-22.243 19.668-32.581 10.171-4.976-10.635 8.918-21.707 18.865-21.548 8.372 8.19-10.644 13.85-17.073 16.243-2.633 2.096-2.164-2.797-3.08-4.076zM638.456 176.231c-1.277 10.757 2.86 23.058-1.967 32.859-5.87-7.544-1.99-19.924-3.386-29.292-1.26-5.716 2.01-3.16 5.353-3.567z" transform="translate(5.177 55.007) scale(.35083)"/><path style="opacity:1;fill:#000;fill-opacity:1;stroke-width:1;stroke-miterlimit:4;stroke-dasharray:none" d="M626.104 194.087c6.478-1.962 24.363-7.31 25.2-2.88-7.201 1.977-19.394 9.91-24.334 5.722l-.866-2.842zM694.659 197.458c-4.611 6.481-.392 21.369-7.438 23.152-6.515-7.261-4.435-18.91-6.069-28.165-3.882-9.746 5.138-25.11 14.628-13.731 9.29 4.326-3.091 21.005-5 14.66 8.321-4.56-3.05-20.578-4.886-8.617.675 10.217 1.297 20.591 3.798 30.485-7.386 2.96-1.192-13.132-.05-17.723.082-3.52 3.343-.179 5.017-.061z" transform="translate(5.177 55.007) scale(.35083)"/><path style="opacity:1;fill:#000;fill-opacity:1;stroke-width:1;stroke-miterlimit:4;stroke-dasharray:none" d="M709.391 185.72c-2.601-12.943-17.81 11.182-5.043 8.309 4.08-2.87 6.566-16.091 11.717-6.768.83 4.395 6.037 13.148-2.058 7.421-3.549-3.48-4.356-10.114 1.058-8.03-1.257 8.191-13.017 19.056-20.032 8.719-4.874-9.707 8.945-24.723 17.195-15.102 3.096 3.774 2.462 8.06-2.837 5.451zM736.474 180.51c-4.279 1.219-12.152-.437-4.437 2.093 9.515 4.2 5.64 21.405-5.408 15.851-4.802-5.223 11.156-1.967 4.566-9.182-12.463-5.447-4.067-17.035 5.432-12.943l-.153 4.181zM759.263 172.581c-5.386 2.368-14.462 5.25-3.397 6.47 12.047-.13 17.097 15.63 3.94 19.155-4.332 4.606-18.722 2.04-7.3-2.347 7.951-1.385 14.864-10.855 2.76-11.44-8.613.165-16.166-10.764-4.462-13.548 4.972-2.454 7.226-4.918 8.46 1.71z" transform="translate(5.177 55.007) scale(.35083)"/></g><g style="fill:#000"><path style="opacity:1;fill:#000;fill-opacity:1;stroke-width:1;stroke-miterlimit:4;stroke-dasharray:none" d="M402.099 416.195c-2.81 9.804-2.772 20.164-3.491 30.267-10.178.22-3.462-13.433-5.149-19.716.507-10.751.019-22.531 5.808-32.012 4.871-10.521 19.228-2.574 15.323 7.417-1.197 9.803-8.606 17.013-13.27 25.238 4.008 6.082 12.272 7.484 18.699 10.245 2.78 1.475 11.495 2.499 3.635 4.439-7.052.886-14.158-2.55-20.397-5.618-11.655-4.657-5.71-16.306.66-22.609 3.118-4.655 9.658-16.612 2.377-18.88-6.401 5.62-6.36 14.925-7.191 22.765-.497 9.173-.391 18.404-.35 27.55-10.147 4.848-3.039-12.589-3.83-18.578 1.166-3.817-.213-15.671 6.024-11.032l1.152.524z" transform="translate(-39.281 57.184) scale(.35083)"/><path style="opacity:1;fill:#000;fill-opacity:1;stroke-width:1;stroke-miterlimit:4;stroke-dasharray:none" d="M428.753 424.296c5.01 1.101 15.175-11.608 6.721-7.472-8.748 5.483-7.87 22.62 4.44 22.452 3.367.852 16.897-5.17 8.409.695-6.23 5.655-16.048 4.182-21.253-1.98-5.13-7.096-2.413-17.618 3.16-23.687 5.859-7.752 18.77-1.968 12.03 7.185-2.612 3.556-14.418 12.138-13.481 3.046l-.026-.239z" transform="translate(-39.281 57.184) scale(.35083)"/><path style="opacity:1;fill:#000;fill-opacity:1;stroke-width:1;stroke-miterlimit:4;stroke-dasharray:none" d="M454.05 418.89c5.431-6.396 7.137-18.63.993-24.253-5.338 7.268-3.355 17.179-3.063 25.647.763 10.637 3.266 21.06 4.686 31.584-3.997 11.613-15.822-4.352-13.565-11.28 3.277-8.805 13.91-10.773 21.502-14.606 7.36-3.304 15.354-5.516 22.47-9.097.098 5.624-12.425 4.403-12.064 13.11-2.111 5.27 1.243 6.28 3.054.87.981-6.903 10.832-12.749 11.483-2.463-1.456 5.633 12.429 9.801 1.458 8.687-5.385 1.62-8.905-12.739-6.212-8.64-.173 8.98-14.535 17.654-15.614 4.785.125-9.956 8.793-18.979 18.945-18.307 8.856 8.228-10.284 9.868-15.334 12.995-8.092 3.373-16.61 6.184-23.716 11.467-5.866 3.761 7.76 16.572 2.004 9.197-2.444-16.62-6.662-33.691-3.388-50.475 1.04-9.92 15.195-9.799 15.316.546 2.402 8.115-.11 17.32-5.443 23.702l-3.511-3.47z" transform="translate(-39.281 57.184) scale(.35083)"/><path style="opacity:1;fill:#000;fill-opacity:1;stroke-width:1;stroke-miterlimit:4;stroke-dasharray:none" d="M508.439 421.503c-4.786-4.99-13.285 10.97-5.67 13.355 8.448 2.952 17.716-1.324 24.49-6.294-3.116 6.333-12.046 11.88-19.87 12.36-7.452.514-16.04-6.38-12.271-14.308 1.407-6.614 8.513-14.488 15.532-9.869 4.59 3.364-.017 3.023-2.211 4.756z" transform="translate(-39.281 57.184) scale(.35083)"/><path style="opacity:1;fill:#000;fill-opacity:1;stroke-width:1;stroke-miterlimit:4;stroke-dasharray:none" d="M533.064 397.865c-3.674 10.89-1.443 22.507-.258 33.61-3.935 5.652-15.751-5.425-10.587-10.535 5.017-4.99 13.317-5.053 19.88-7.192 7.584-2.883 16.293 3.315 8.95 10.42-6.48 5.777-3.945 16.086 4.266 7.783 8.514-6.025-10.807-12.232.111-15.16 8.103 2.005 20.946 5.306 25.45 12.271-7.01 4.194-9.29-13.823-2.913-17.999 3.652-3.976 14.637-9.025 17.387-3.524-7.46 1.953-17.877 7.215-15.406 16.551 3.761 5.745-.593 10.223-5.866 5.221-5.685-5.066-19.706-4.018-19.806-12.354 10.868 2.835 10.7 18.177.293 21.792-9.224 5.857-17.013-4.66-10.787-12.76.225-4.56 10.346-9.114 2.53-7.493-5.992.719-20.27 2.156-20.9 6.653 2.764 1.787 6.88 7.324 2.864 5.902-1.994-11.645-4.136-24.4.777-35.61l4.015 2.424z" transform="translate(-39.281 57.184) scale(.35083)"/></g><g style="fill:#32cd32"><path transform="translate(-35.912 19.476) scale(.35083)" d="M742.37 358.805c-.407 4.218-1.14 8.39-1.845 12.566-1.142 6.108-2.612 12.148-4.015 18.2-1.46 6.563-3.27 13.031-5.17 19.477-1.916 6.188-4.638 12.062-7.358 17.924-2.84 5.984-5.965 11.822-9.115 17.646-2.919 5.388-6.16 10.585-9.42 15.77-2.86 4.559-5.975 8.944-9.12 13.307-2.781 3.871-5.862 7.501-8.997 11.084-2.66 2.99-5.433 5.878-8.18 8.788-2.408 2.642-4.975 5.13-7.518 7.64-2.303 2.16-4.505 4.422-6.714 6.678-1.898 2.146-4.078 3.987-6.22 5.873-2.303 2.112-5.117 2.721-8.01 3.523l-1.353.176-.315-.66.868-.884c1.775-2.102 3.301-4.388 5.637-5.943 1.942-1.844 3.969-3.607 5.74-5.627 2.248-2.285 4.488-4.578 6.827-6.771 2.495-2.458 5.014-4.892 7.377-7.478 2.717-2.87 5.446-5.728 8.091-8.664 3.022-3.47 6.003-6.976 8.718-10.695 3.088-4.272 6.142-8.57 8.974-13.018 3.21-5.088 6.405-10.187 9.278-15.476 3.106-5.737 6.185-11.489 8.978-17.387 2.62-5.649 5.264-11.303 7.126-17.26 1.898-6.33 3.702-12.687 5.13-19.145 1.414-5.959 2.863-11.913 4.025-17.928.716-4.043 1.439-8.085 1.863-12.171l4.717.455z" style="opacity:1;fill:#32cd32;fill-opacity:1;stroke-width:1;stroke-miterlimit:4;stroke-dasharray:none"/><path transform="translate(-34.89 18.265) scale(.35083)" d="M657.8 484.21c-1.364 3.955-2.397 8.009-3.437 12.057-1.07 4.147-1.72 8.38-2.431 12.596-.411 2.745-.754 5.5-1.117 8.25-.057 1.713-.623 3.342-.933 5.003-.173.978-1.221-1.567-1.832-2.35 3.726-1.31 7.573-2.201 11.404-3.137 5.004-1.467 9.965-1.926 15.12-1.628 1.17-.11 2.06.646 3.09.968l-.089.833c-.908.259-1.847.409-2.725.776-4.652 1.667-9.38 2.934-14.232 3.905-3.683.921-7.39 1.787-10.956 3.11-2.807-.678-5.37.394-4.547-3.941.27-1.377.773-2.73.816-4.159.408-2.803.818-5.605 1.248-8.405.763-4.342 1.46-8.7 2.56-12.974 1.085-4.153 2.198-8.298 3.523-12.382l4.539 1.477z" style="opacity:1;fill:#32cd32;fill-opacity:1;stroke-width:1;stroke-miterlimit:4;stroke-dasharray:none"/></g><g style="fill:#32cd32"><path transform="rotate(-9.43 143.994 551.259) scale(.35083)" d="M296.405 381.262c.69 3.911 1.828 7.723 2.898 11.543 1.452 5.13 3.149 10.185 4.804 15.252 1.651 5.345 3.703 10.543 5.786 15.729 2.19 5.253 4.605 10.405 6.97 15.58 2.226 4.906 4.34 9.862 6.424 14.83 1.94 4.614 4.186 9.076 6.538 13.49 2.402 4.266 4.916 8.47 7.408 12.686 2.189 4.015 4.768 7.787 7.359 11.547 2.646 3.78 5.367 7.506 8.078 11.239 2.586 3.76 5.494 7.274 8.414 10.774 2.915 3.525 5.912 6.98 8.858 10.479 2.477 3.087 5.17 5.987 7.825 8.918 2.79 3.067 5.802 5.915 8.823 8.75 3.12 2.87 6.45 5.499 9.736 8.173 2.828 1.616 4.002 4.27 5.683 6.76.377.326.126.732.189 1.097l-.214.803c-.344.02-1.356.538-1.699.1-2.602-1.356-5.344-2.21-7.31-4.69-3.36-2.744-6.76-5.446-9.957-8.383-3.126-2.928-6.244-5.868-9.13-9.036-2.718-3.002-5.488-5.961-7.985-9.154-2.932-3.498-5.923-6.945-8.83-10.462-2.994-3.588-5.975-7.186-8.606-11.054-2.75-3.75-5.484-7.513-8.144-11.328-2.667-3.873-5.307-7.765-7.552-11.905-2.522-4.27-5.065-8.528-7.496-12.85-2.43-4.571-4.769-9.185-6.737-13.98-2.06-4.919-4.136-9.833-6.31-14.703-2.384-5.232-4.836-10.436-7.015-15.758-2.13-5.299-4.201-10.62-5.857-16.092-1.66-5.139-3.33-10.275-4.803-15.472-1.092-3.986-2.232-7.968-2.986-12.037l4.838-.846z" style="fill:#32cd32;fill-opacity:1;stroke-width:1;stroke-miterlimit:4;stroke-dasharray:none"/><path transform="rotate(-9.43 143.994 551.259) scale(.35083)" d="M281.441 409.72c.478-5.12 1.879-10.067 3.201-15.014 1.498-5.158 3.061-10.296 4.567-15.451.665-2.766 1.557-5.47 2.367-8.188 2.71-3.588 3.498-1.54 6.609-.813 1.11 1.59 1.8 3.418 2.643 5.153 2.162 3.976 5.326 7.218 8.355 10.525 4.169 3.786 7.735 7.871 10.603 12.688.218-.03 1.105 2.571 1.214 2.825l-.863.72c-.848-.54-1.78-.949-2.545-1.623-4.42-3.296-8.38-7.044-12.175-11.051-3.36-3.696-6.857-7.33-9.217-11.785-.638-1.392-1.225-2.813-1.934-4.17.427-.126 2.198.409 1.936-.572-.794 2.543-1.65 5.087-2.331 7.672-1.58 5.111-3.186 10.215-4.702 15.347-1.27 4.652-2.637 9.3-3.085 14.124l-4.643-.387z" style="fill:#32cd32;fill-opacity:1;stroke-width:1;stroke-miterlimit:4;stroke-dasharray:none"/></g><path d="M-377.607 210.22c-3.366 9.18 5.646 22.372-1.881 28.534 2.541-13.981 2.342-28.252 4.284-42.306 8.474-6.932 9.532 18.532 16.927 6.1 1.32-10.1 14.424-15.171 14.747-1.64 2.475 12.606 3.713 25.623 4.212 38.337-3.698 13.32-6.222-10.61-5.893-16.349-.965-7.274-2.102-25.029-5.554-24.548-1.636 12.755-17.982 17.203-21.628 3.075 2.7-9.515.728 8.054.275 12.05-1.835 8.481 1.404 24.364-5.855 27.926-7.937-6.512-3.634-23.096-3.725-31.524l4.091.345z" style="opacity:1;fill:#000;fill-opacity:1;stroke-width:32;stroke-linejoin:round;stroke-miterlimit:4;stroke-dasharray:none;stroke-opacity:1" transform="matrix(.3071 0 0 .3071 217.703 -59.177)"/><path transform="matrix(.3071 0 0 .3071 217.703 -57.776)" d="M-321.888 216.828c-12.442-10.315-24.724 15.28-9.955 17.914 6.654-1.126 10.212-20.713 13.004-7.21 1.02 5.601 1.765 19.186-3.76 7.062-3.1-4.082-.772-17.434 3.7-10.463.22 12.015-17.916 22.693-23.307 8.027-5.77-12.548 9.002-27.477 21.35-19.998 3.578.491-.656 3.273-1.032 4.668z" style="opacity:1;fill:#000;fill-opacity:1;stroke-width:32;stroke-linejoin:round;stroke-miterlimit:4;stroke-dasharray:none;stroke-opacity:1"/><path transform="matrix(.3071 0 0 .3071 217.703 -56.692)" d="M-311.69 208.38c-2.618-4.372-1.054-22.31 3.456-10.851 1.209 12.75.66 25.59 1.217 38.373-9.974-6.418 3.454-23.603 10.128-29.899 8.225-6.445 11.287 3.588 3.12 7.38-9.806 5.94-5.049 19.366 5.37 19.234-11.822 9.942-22.474-13.592-8.5-18.331 3.87-3.53 9.788-10.008 1.77-3.543-10.462 5.547-5.608 23.693-16.836 25.548.021-13.254-.044-26.52-.802-39.752 4.39-8.148 7.543 14.381 1.076 11.841z" style="opacity:1;fill:#000;fill-opacity:1;stroke-width:32;stroke-linejoin:round;stroke-miterlimit:4;stroke-dasharray:none;stroke-opacity:1"/><path transform="matrix(.3071 0 0 .3071 217.703 -57.088)" d="M-285.534 222.053c8.682 5.294 26.581-10.007 10.481-10.176-12.397 4.436-9.221 23.824 4.78 22.223 4.673-.769 14.227 1.024 3.808 2.625-15.308 7.255-29.33-13.79-16.427-24.801 8.676-13.843 28.976 3.626 13.648 12.26-3.56 1.764-20.887 6.522-16.29-2.13z" style="opacity:1;fill:#000;fill-opacity:1;stroke-width:32;stroke-linejoin:round;stroke-miterlimit:4;stroke-dasharray:none;stroke-opacity:1"/><path transform="matrix(.3071 0 0 .35205 216.605 -65.563)" d="M-224.583 198.798c-3.165-7.462 2.552-9.69 3.645-1.755-1.333 11.103 4.464 25.797-1.177 34.734-1.166-13.238-7.456-29.887-1.486-41.517 3.857-2.902 4.956 11.665-.982 8.538z" style="opacity:1;fill:#000;fill-opacity:1;stroke-width:32;stroke-linejoin:round;stroke-miterlimit:4;stroke-dasharray:none;stroke-opacity:1"/><path transform="matrix(.3071 0 0 .3071 217.703 -55.26)" d="M-241.2 211.849c12.457-1.793 20.622-13.09 24.223-24.331 10.828-1.465 2.142 17.502 4.323 24.94-.38 9.393.296 7.712 5.34 1.57 9.312-12.14 16.135 5.506 15.25 14.184-3.933 9.075-6.093-7.41-7.295-13.077-3.813-1.038-15.093 17.384-17.676 4.003.112-8.656-1.394-26.394 2.283-29.415 3 7.45-10.695 22.15-20.285 25.07-4.76 1.76-6.26 2.28-6.164-2.944z" style="opacity:1;fill:#000;fill-opacity:1;stroke-width:32;stroke-linejoin:round;stroke-miterlimit:4;stroke-dasharray:none;stroke-opacity:1"/><path transform="matrix(.3071 0 0 .3071 217.703 -55.627)" d="M-186.714 214.084c5.801 4.505 24.13-5.381 15.427-8.781-11.667 3.004-11.697 21.35.997 23.619 4.669.705 14.077 3.94 3.58 3.913-13.921 2.262-24.64-15.752-14.248-26.394 5.38-12.647 25.389-2.05 13.246 7.835-2.198 4.445-25.342 9.232-19.002-.192z" style="opacity:1;fill:#000;fill-opacity:1;stroke-width:32;stroke-linejoin:round;stroke-miterlimit:4;stroke-dasharray:none;stroke-opacity:1"/><path style="opacity:1;fill:#000;fill-opacity:1;stroke-width:32;stroke-linejoin:round;stroke-miterlimit:4;stroke-dasharray:none;stroke-opacity:1" d="M-344.627 289.057c-8.266-5.77-23.156-.353-21.974 10.577 10.367 10.37 21.872-10.102 21.038-20.26 2.262-6.42-3.119-19.411 1.218-21.884 3.12 9.929 2.024 20.962 4.3 31.24.986 4.35 5.204 25.324-1.617 13.093-4.35-12.543-4.733-26.134-5.967-39.28-2.2-9.824 7.756-9.138 6.523-.14 1.18 13.513.99 29.253-8.741 39.807-8.397 11.632-28.89 1.957-19.224-11.172 2.986-9.8 25.596-12.205 25.353-3.404l-.909 1.423z" transform="matrix(.3071 0 0 .3071 207.844 -59.177)"/><path style="opacity:1;fill:#000;fill-opacity:1;stroke-width:32;stroke-linejoin:round;stroke-miterlimit:4;stroke-dasharray:none;stroke-opacity:1" d="M-325.417 286.262c1.256 3.963 7.222 24.178-.403 13.659-.244-4.518-7.938-13.747.403-13.659z" transform="matrix(.3071 0 0 .3071 207.844 -58.426)"/><path style="opacity:1;fill:#000;fill-opacity:1;stroke-width:32;stroke-linejoin:round;stroke-miterlimit:4;stroke-dasharray:none;stroke-opacity:1" d="M-299.344 287.787c-8.435-15.75-26.511 6.93-11.342 11.825 7.842 1.83 8.802-18.55 13.635-5.972-.284 5.107 2.183 16.852-3.384 6.69-6.135-5.553 7.084-16.034 1.697-4.8-3.584 12.864-23.875 10.552-22.366-3.696-1.07-14.616 19.472-18.494 25.616-6.16l-3.856 2.113z" transform="matrix(.3071 0 0 .3071 207.844 -58.862)"/><path style="opacity:1;fill:#000;fill-opacity:1;stroke-width:32;stroke-linejoin:round;stroke-miterlimit:4;stroke-dasharray:none;stroke-opacity:1" d="M-277.51 290.075c-9.052-15.584-18.65 11.781-4.783 9.312 5.224-3.22-.032-18.542 8.352-11.078 3.486 10.167 7.85 22.581 1.814 32.58-3.667 10.61-24.47.824-19.125-1.728 13.685 10.264 22.512-10.712 15.153-21.558-3.319-3.016-3.729-15.217 1.257-9.94 4.531 11.034-11.282 25.079-17.725 11.195-7.532-11.923 9.548-25.552 17.578-12.384 2.982 2.028-1.547 2.506-2.521 3.601z" transform="matrix(.3071 0 0 .3071 207.844 -59.177)"/><path style="opacity:1;fill:#000;fill-opacity:1;stroke-width:32;stroke-linejoin:round;stroke-miterlimit:4;stroke-dasharray:none;stroke-opacity:1" d="M-263.732 285.092c.944 4.916-3.313 15.332-2.256 4.906 3.792-10.742 19.389-11.53 21.368.737 3.965 6-3.303 14.255-4.063 3.995.214-10.669-11.317-10.561-13.612-.985-6.77 12.853-10.83-12.38-2.774-8.926l1.337.273z" transform="matrix(.3071 0 0 .3071 207.844 -57.403)"/><path style="opacity:1;fill:#000;fill-opacity:1;stroke-width:32;stroke-linejoin:round;stroke-miterlimit:4;stroke-dasharray:none;stroke-opacity:1" d="M-228.85 287.388c-7.168 11.849 9.332 14.428 12.277 3.745 5.394-10.293-9.371-7.977-14.022-6.222 4.685-13.565 27.466-3.813 18.146 8.863-3.491 12.128-25.154 12.807-22.37-2.266.482-5.529 1.049-7.324 5.969-4.12z" transform="matrix(.3071 0 0 .3071 206.117 -58.247)"/><path style="opacity:1;fill:#000;fill-opacity:1;stroke-width:32;stroke-linejoin:round;stroke-miterlimit:4;stroke-dasharray:none;stroke-opacity:1" d="M-202.09 279.592c-5.594 1.408-12.18-1.205-3.241.573 12.114.045 23.461 14.5 7.176 19.545-5.31 4.319-19.862 1.014-11.274-4.702-.404 6.79 25.78-4.948 9.41-7.973-6.599-.365-21.02-8.219-8.243-11.842 4.859-1.151 8.907-1.505 6.172 4.399z" transform="matrix(.3071 0 0 .3071 206.117 -57.89)"/><path style="opacity:1;fill:#000;fill-opacity:1;stroke-width:32;stroke-linejoin:round;stroke-miterlimit:4;stroke-dasharray:none;stroke-opacity:1" d="M-185.268 260.487c.443 12.773 9.248 28.476 3.572 39.53-8.463-4.068-14.28-20.546-3.06-25.279 12.57-7.427 23.876 7.473 19.954 19.472-7.316 15.811.196-16.346-11.594-16.35-14.442-2.08-8.66 13.163-6.194 19.653-2.853-10.27-6.683-26.536-5.808-36.297l3.13-.729z" transform="matrix(.3071 0 0 .3071 206.117 -57.377)"/><path style="opacity:1;fill:#000;fill-opacity:1;stroke-width:32;stroke-linejoin:round;stroke-miterlimit:4;stroke-dasharray:none;stroke-opacity:1" d="M-142.522 275.427c-9.833 3.657-19.844 22.021-2.177 20.21 5.423.983 20.638-5.734 8.24 1.95-12.91 9.686-33.343-5.481-18.128-17.96 3.673-3.057 9.532-13.055 12.065-4.2z" transform="matrix(.3071 0 0 .3071 206.117 -57.576)"/><path style="opacity:1;fill:#000;fill-opacity:1;stroke-width:32;stroke-linejoin:round;stroke-miterlimit:4;stroke-dasharray:none;stroke-opacity:1" d="M-112.739 275.854c-6.88.79-22.524 9.332-7.698 10.731 8.448-.737 26.467 9.35 11.26 14.733-6.897 1.85-18.018 4.086-22.614-1.462 6.355-.897 22.533-1.548 22.9-4.97-8.387-2.376-33.606-6.428-19.075-17.905 4.585-1.313 15.885-11.26 15.227-1.127z" transform="matrix(.3071 0 0 .3071 206.117 -58.406)"/><path style="opacity:1;fill:#000;fill-opacity:1;stroke-width:32;stroke-linejoin:round;stroke-miterlimit:4;stroke-dasharray:none;stroke-opacity:1" d="M-327.194 269.242c.602 5.517-3.442 15.518-5.031 4.124-1.117-6.75.94-4.685 5.031-4.124z" transform="matrix(.3071 0 0 .3071 208.157 -58.079)"/><path style="opacity:1;fill:#000;fill-opacity:1;stroke-width:32;stroke-linejoin:round;stroke-miterlimit:4;stroke-dasharray:none;stroke-opacity:1" d="M-163.515 261.678c.695 5.968-5.89 15.351-5.13 3.781-.692-5.39 1.572-4.463 5.13-3.78z" transform="matrix(.3071 0 0 .3071 206.117 -57.15)"/><path style="opacity:1;fill:#000;fill-opacity:1;stroke-width:32;stroke-linejoin:round;stroke-miterlimit:4;stroke-dasharray:none;stroke-opacity:1" d="M-329.104 355.245c-9.84-3.507-28.678 6.635-21.498 17.465 8.835 4.622 18.925-2.646 26.169-4.512-7.558 7.723-20.007 14.31-30.18 7.264-9.666-11.989 8.45-26.415 20.686-25.296 5.16.125 7.544.038 4.823 5.079z" transform="matrix(.3071 0 0 .3071 224.75 -59.491)"/><path style="opacity:1;fill:#000;fill-opacity:1;stroke-width:32;stroke-linejoin:round;stroke-miterlimit:4;stroke-dasharray:none;stroke-opacity:1" d="M-321.06 339.362c.205 12.392 2.647 24.855 2.355 37.138-8.873-8.59-5.039-25.1-7.052-36.878l4.697-.26z" transform="matrix(.3071 0 0 .34514 225.063 -73.495)"/><path style="opacity:1;fill:#000;fill-opacity:1;stroke-width:32;stroke-linejoin:round;stroke-miterlimit:4;stroke-dasharray:none;stroke-opacity:1" d="M-311.883 360.079c6.693 2.415 19.603-12.442 7.252-7.422-10.998 7.405-2.874 24.207 9.955 19.696 8.271.656 31.493-12.672 15.388-17.209-12.389 1.452-1.137 27.093 1.448 9.944 2.705-12.218 14.359 13.403 18.598-3.12 1.958-6.034 6.755 3.712 7.581 8.49-.775 4.702-.859-12.393 2.97-15.653 2.153-7.06 23.9-6.375 9.545-1.743-11.38 3.438-4.143 19.317-12.997 23.523-4.772-2.534-10.654-17.917-2.585-14.905-1.714 12.06-20.675 13.371-20.401 2.055 7.45-1.522-3.814 21.4-11.29 10.07-7.709-8.051-1.766-26.79 10.746-22.364 15.237 5.135.111 20.835-9.604 22.419-12.224 7.922-35.156.827-28.633-16.487.99-12.46 25.79-14.517 17.804 0-2.41 3.221-16.867 11.877-15.777 2.706z" transform="matrix(.3071 0 0 .3071 225.063 -59.177)"/><path d="M289.49 160.21c1.212.593 2.387 1.255 3.559 1.92 1.67.977 3.275 2.057 4.877 3.139 1.668 1.11 3.169 2.43 4.647 3.775 1.39 1.327 2.65 2.776 3.912 4.221 1.235 1.438 2.399 2.934 3.565 4.428 1.154 1.502 2.311 3 3.464 4.501 1.085 1.39 2.095 2.832 3.078 4.294.797 1.186 1.46 2.45 2.138 3.703.584 1.09.982 2.257 1.408 3.412a526.2 526.2 0 0 0 .999 3.067c.313.916.646 1.826.974 2.737.27.69.457 1.409.679 2.115.125.463.256.926.384 1.388.142.456.26.918.391 1.376.103.45.278.876.417 1.314.189.488.255 1.01.383 1.514.113.257-.164.537-.245.805l-.53.043.342.069-.575.27c-.144-.293-.583-.464-.448-.915-.118-.427-.196-.867-.357-1.283-.152-.48-.344-.95-.457-1.442-.124-.444-.23-.894-.373-1.333-.13-.471-.264-.94-.388-1.413-.21-.67-.383-1.353-.642-2.007-.33-.918-.659-1.836-.984-2.755a483.265 483.265 0 0 1-.991-3.057c-.4-1.089-.773-2.19-1.32-3.217-.652-1.209-1.288-2.427-2.052-3.572-.96-1.435-1.948-2.85-3.011-4.213-1.151-1.5-2.307-2.996-3.45-4.501-1.144-1.477-2.287-2.957-3.5-4.379-1.225-1.41-2.444-2.83-3.794-4.124-1.42-1.303-2.861-2.58-4.463-3.66-1.571-1.068-3.148-2.128-4.784-3.097-1.143-.661-2.289-1.318-3.477-1.897l.625-1.226z" style="fill:red;fill-opacity:1;stroke-width:32;stroke-linejoin:round;stroke-miterlimit:4;stroke-dasharray:none;stroke-opacity:1" transform="translate(-95.942 -124.091)"/><path d="M315.47 199.675c-.183-.566-.414-1.114-.62-1.67-.415-1.258 1.46-.22 1.571-.22.614.915 1.34 1.744 2.036 2.595 1.085 1.271 2.24 2.48 3.395 3.687.785.851 1.661 1.608 2.514 2.389 1.883.991-.251.756-.38 1.144-.054-.979-.053-1.965-.066-2.946-.024-1.966.097-3.927.235-5.886.013-1.245.32-2.413.656-3.589-.011-.785 1.011-.375 1.175-.436l-.037.308c.096.253.564.25.256.678-.25 1.039-.574 2.064-.569 3.158-.141 1.912-.263 3.826-.226 5.745.025 1.106.084 2.215.063 3.32-2.63.702-.576.336-2.12-.374-.878-.808-1.758-1.613-2.574-2.485-1.17-1.237-2.35-2.467-3.449-3.768-.725-.885-1.47-1.76-2.09-2.724.244-.344.66-1.313.85-.937.106.585.187 1.174.318 1.754l-.938.257z" style="fill:red;fill-opacity:1;stroke-width:32;stroke-linejoin:round;stroke-miterlimit:4;stroke-dasharray:none;stroke-opacity:1" transform="translate(-95.942 -124.091)"/><path d="M164.529 202.876c.204-1.708.91-3.272 1.56-4.843 1.085-2.394 2.4-4.673 3.705-6.95 1.391-2.362 2.978-4.597 4.559-6.832 1.41-1.98 2.903-3.897 4.413-5.8 1.353-1.683 2.866-3.222 4.396-4.743 1.53-1.478 3.164-2.84 4.79-4.21 1.438-1.196 2.878-2.388 4.314-3.585.994-.915 2.114-1.647 3.233-2.39.945-.56 1.939-1.03 2.925-1.51.484-.285.978-.554 1.463-.83.785-.372.627.872.633.881l-.343-.138c.023.052-.138.497.252.59-.41.252-.857.633-1.342.825-.949.46-1.905.907-2.815 1.444-1.064.7-2.123 1.396-3.07 2.258-1.44 1.191-2.884 2.378-4.325 3.568-1.597 1.346-3.2 2.688-4.71 4.132-1.49 1.48-2.964 2.976-4.284 4.613-1.496 1.88-2.975 3.775-4.373 5.73-1.561 2.194-3.132 4.385-4.502 6.706-1.281 2.228-2.572 4.457-3.637 6.8-.593 1.437-1.255 2.866-1.427 4.43l-1.415-.146z" style="fill:red;fill-opacity:1;stroke-width:32;stroke-linejoin:round;stroke-miterlimit:4;stroke-dasharray:none;stroke-opacity:1" transform="translate(-125.568 -125.869)"/><path d="M184.873 163.576c1.471-.563 3.01-.906 4.538-1.275 1.961-.45 3.942-.812 5.92-1.176 1.408-.26 2.83-.411 4.25-.564.622-.116 1.26-.077 1.877-.107.887.982.38 1.411-.12 2.504a167.592 167.592 0 0 0-2.122 4.588 215.254 215.254 0 0 0-2.104 4.953c-.2.765-.672 1.411-1.028 2.09-.128.087-.286.056-.425.083l-.505-.172c-.07-.143-.236-.258-.218-.445.29-.69.55-1.413.878-2.095.708-1.66 1.41-3.324 2.143-4.973.695-1.555 1.387-3.112 2.126-4.646.607-.294.26-1.787 1.055-.51-.145.01-1.063.09-1.445.102-1.38.131-2.76.263-4.126.516-1.957.35-3.913.707-5.852 1.15-1.454.355-2.924.677-4.317 1.236l-.525-1.259z" style="fill:red;fill-opacity:1;stroke-width:32;stroke-linejoin:round;stroke-miterlimit:4;stroke-dasharray:none;stroke-opacity:1" transform="translate(-125.568 -125.869)"/></svg>