<svg xmlns="http://www.w3.org/2000/svg" height="362.663" width="684.612" xml:space="preserve"><path style="fill:#b71b2f;fill-opacity:1;fill-rule:nonzero;stroke:none" d="M3631.84 1614.96c-317.55 200.29-866.87-210.78-1050.11-332.34-306.6-203.56-800.76-356.409-1061.95-47.68 420.72-26.14 417.91 485.48 405.65 769.27-15.1 350.15 29.78 665.37 309.87 897.1-19.18-147.39-46.23-288.3 93.59-447.71 118.23-134.96 302.58-206.46 473.32-245.94 340.3-78.64 709.96-219.9 829.63-592.7" transform="matrix(.13 0 0 -.13 0 362.663)"/><path style="fill:#050606;fill-opacity:1;fill-rule:nonzero;stroke:none" d="M892.113 132.789c0-7.719-2.406-12.519-7.222-14.43-25.032-18.3-49.075-34.898-72.168-49.8-23.118-14.95-49.352-27.438-78.684-37.547-29.375-10.082-63.504-17.782-102.488-23.09C592.586 2.672 545.664 0 490.809 0c-78.922 0-148.938 11.309-210.051 33.89-61.117 22.622-112.36 55.348-153.711 98.169-41.395 42.832-72.899 95.523-94.574 158.101C10.84 352.691 0 423.891 0 503.801c0 81.781 12.75 154.679 38.254 218.668 25.484 64 60.86 117.652 106.101 160.961 45.223 43.332 98.899 76.25 160.958 98.871 62.062 22.599 129.671 33.959 202.828 33.959 46.187 0 90.207-6.28 132.078-18.772 41.867-12.519 80.574-27.437 116.207-44.797 20.191-9.589 37.027-15.371 50.512-17.312 13.46-1.93 23.566 6.75 30.32 26 .945 4.82 4.086 8.152 9.375 10.09 5.269 1.953 10.582 2.64 15.871 2.191 5.289-.519 9.871-1.93 13.719-4.34 3.828-2.39 5.269-5.55 4.343-9.379-8.664-36.582-11.804-77.48-9.375-122.679 2.387-45.274 5.977-91.461 10.817-138.59 0-4.84-2.43-9.184-7.227-13.012-4.816-3.828-10.105-6.262-15.871-7.211-5.781-.961-11.547-.25-17.308 2.153-5.786 2.386-9.184 6.519-10.129 12.277-13.485 83.742-49.328 147.973-107.52 192.703-58.254 44.77-132.594 67.109-223.039 67.109-55.824 0-103.715-12.75-143.625-38.211-39.953-25.519-72.684-58.492-98.168-98.921-25.504-40.399-44.273-86.098-56.297-137.11-12.039-51-18.039-101.558-18.039-151.558 0-70.27 6.965-134.032 20.922-191.282 13.934-57.257 34.645-106.328 62.063-147.23 27.437-40.93 60.875-72.43 100.335-94.578 39.461-22.13 85.176-33.2 137.153-33.2 37.523 0 71.672 2.649 102.488 7.958 30.774 5.273 57.008 14.64 78.66 28.152 21.657 13.461 38.492 31.969 50.516 55.559 12.019 23.589 18.062 53.652 18.062 90.25 0 28.859-1.957 51.46-5.785 67.812-3.847 16.359-11.074 28.898-21.656 37.539-10.602 8.668-25.027 14.668-43.309 18.07-18.277 3.329-41.867 6.489-70.726 9.348-6.75 0-11.547 2.43-14.43 7.231-2.902 4.789-4.344 9.609-4.344 14.449 0 5.781 1.207 10.812 3.614 15.133 2.386 4.347 6.496 6.519 12.281 6.519 33.676 0 68.555-1.223 104.637-3.59 36.105-2.429 68.082-3.66 96.015-3.66 13.461 0 26.192.5 38.235 1.469 12.019.941 24.558 1.672 37.547 2.191 12.988.449 26.921 1.16 41.867 2.129 14.902.969 31.976 1.461 51.222 1.461 4.817 0 8.43-2.172 10.836-6.519 2.391-4.321 3.614-9.352 3.614-15.133 0-4.84-1.442-9.399-4.321-13.719-2.902-4.328-7.226-6.988-13.011-7.961-21.161-1.937-37.524-5.289-49.071-10.09-11.551-4.828-20-11.539-25.269-20.211-5.289-8.636-8.43-19.476-9.375-32.468-.969-13.008-1.442-28.641-1.442-46.918V132.789" transform="matrix(.13 0 0 -.13 0 362.663)"/><path style="fill:#050606;fill-opacity:1;fill-rule:nonzero;stroke:none" d="M1247.23 191.969c0-24.059.71-44.25 2.15-60.617 1.46-16.36 6.52-29.852 15.16-40.43 8.67-10.602 22.15-18.75 40.43-24.512 18.25-5.808 44.75-10.129 79.39-13.012 5.78-.968 10.11-3.609 13.01-7.937 2.88-4.34 4.32-9.371 4.32-15.152 0-4.82-1.44-9.38-4.32-13.72-2.9-4.327-7.23-6.5-13.01-6.5-41.37 0-77.95 1.7-109.71 5.052-31.74 3.359-62.06 5.058-90.94 5.058-30.8 0-61.33-1.699-91.65-5.058a833.828 833.828 0 0 0-91.68-5.051c-4.814 0-8.661 2.172-11.544 6.5-2.902 4.34-4.344 8.898-4.344 13.719 0 5.78 1.442 10.812 4.344 15.152 2.883 4.328 7.227 6.969 12.994 7.937 26.92 2.883 47.86 7.204 62.79 13.012 14.92 5.762 25.74 13.7 32.49 23.8 6.71 10.11 10.82 22.579 12.26 37.532 1.44 14.918 2.17 33.438 2.17 55.567V394.07c0 47.149-.97 84.442-2.88 111.879-1.96 27.442-6.52 48.582-13.72 63.52-7.23 14.91-18.54 24.761-33.94 29.59-15.39 4.82-36.57 8.152-63.496 10.089-4.84 0-8.453 2.391-10.84 7.25-2.406 4.793-3.609 9.59-3.609 14.422 0 4.801 1.203 9.59 3.609 14.43 2.387 4.801 6.516 7.23 12.281 7.23 19.245 1.891 45.935 4.059 80.125 6.489 34.15 2.39 69.03 8.39 104.64 18.051 13.48 3.839 24.53 4.32 33.2 1.441 8.66-2.891 12.49-11.102 11.55-24.563l-2.89-92.378c0-1.938.48-3.122 1.45-3.59.94-.52 2.38.191 4.32 2.121 20.21 40.449 44.98 72.691 74.36 96.75 29.33 24.058 68.55 36.078 117.65 36.078 40.4 0 70.23-10.359 89.5-31.047 19.24-20.711 28.85-45.953 28.85-75.762 0-16.398-6.25-31.281-18.77-44.738-12.51-13.512-30.3-20.223-53.39-20.223-22.15 0-37.53 5.289-46.19 15.871-8.67 10.559-13.01 22.11-13.01 34.622 0 13.488-2.65 24.07-7.94 31.789-5.29 7.691-16.58 11.539-33.91 11.539-18.3 0-34.9-6.02-49.8-18.039-14.93-12.039-27.68-26.262-38.26-42.602-10.6-16.34-18.77-33.18-24.53-50.488-5.79-17.332-8.67-30.84-8.67-40.449V191.969M2111.9 173.199c0-33.699 3.09-57.25 9.37-70.73 6.28-13.477 18.52-20.207 36.84-20.207 10.56 0 19.22 1.199 25.98 3.61 6.71 2.41 16.34 7.46 28.85 15.159 2.89 1.93 6.03 1.93 9.38 0 3.38-1.941 6.28-4.582 8.67-7.922 2.41-3.39 4.08-7.238 5.05-11.558.95-4.332 0-7.942-2.9-10.84-37.51-45.223-81.78-67.832-132.79-67.832-27.93 0-51.74 7.473-71.46 22.371-19.74 14.898-34.43 32.469-44.02 52.71-1.95 4.79-4.83 5.24-8.66 1.411-25.03-22.14-54.15-40.402-87.33-54.832-33.2-14.45-74.86-21.66-124.87-21.66-54.86 0-97.22 14.652-127.03 44.02-29.85 29.363-44.75 70.972-44.75 124.863 0 69.297 32.24 122.457 96.71 159.527 64.46 37.012 158.29 55.57 281.48 55.57 1.94 0 3.38 2.411 4.35 7.2.94 4.8 1.44 15.89 1.44 33.211v38.98c0 24.059-1.94 46.672-5.79 67.871-3.85 21.141-10.34 39.668-19.48 55.539-9.16 15.891-21.89 28.371-38.26 37.551-16.38 9.121-36.57 13.719-60.61 13.719-35.62 0-64.5-7.008-86.62-20.969-22.15-13.93-33.21-31.973-33.21-54.121 0-10.578 3.36-20.899 10.11-31.031 6.71-10.11 10.11-20.43 10.11-31.008 0-13.492-6.75-26.492-20.22-39.012-13.48-12.519-29.84-18.75-49.07-18.75-26 0-44.53 6.973-55.58 20.922-11.08 13.937-16.61 31.051-16.61 51.25 0 24.059 6.73 46.918 20.22 68.59 13.46 21.64 31.76 40.148 54.85 55.57 23.1 15.379 50.02 27.649 80.84 36.789 30.79 9.141 63.03 13.719 96.72 13.719 76.99 0 137.61-17.797 181.88-53.41 44.26-35.59 66.41-94.77 66.41-177.539V173.199zm-135.69 142.91c0 10.582-.5 17.071-1.44 19.512-.97 2.359-3.4 3.609-7.23 3.609-78.92-6.75-137.39-23.359-175.38-49.808-38.05-26.492-57.03-60.422-57.03-101.774 0-28.859 7.22-53.179 21.65-72.898 14.45-19.719 38.47-29.59 72.19-29.59 22.11 0 45.46 4.34 70.02 12.988 24.51 8.661 46.4 21.161 65.67 37.524 7.7 7.719 11.55 15.379 11.55 23.117v157.32M2905.83 268.469c0-39.457.73-71.457 2.15-95.969 1.44-24.559 5.79-43.801 12.99-57.762 7.23-13.937 18.04-23.566 32.5-28.86 14.42-5.308 34.64-7.929 60.61-7.929 3.83 0 6.99-2.18 9.4-6.5 2.39-4.34 3.61-9.398 3.61-15.16 0-4.84-.98-9.629-2.9-14.43-1.93-4.828-5.31-7.218-10.11-7.218-7.72 0-14.19-.262-19.48-.73-5.31-.5-10.6-.97-15.89-1.442-5.31-.5-11.07-1.207-17.31-2.149-6.28-.968-14.21-1.941-23.81-2.89-7.72-.989-18.3-2.899-31.76-5.782a3544.856 3544.856 0 0 0-41.86-8.687 990.42 990.42 0 0 0-40.41-7.2c-12.52-1.921-20.71-2.882-24.54-2.882-7.72 0-13.97 6.75-18.77 20.21-4.84 13.462-7.25 32.231-7.25 56.302 0 4.789-1.2 6.71-3.59 5.757-2.41-.968-4.58-2.406-6.49-4.316-29.83-26.973-58.71-46.691-86.62-59.184-27.91-12.52-62.06-18.77-102.47-18.77-42.38 0-80.61 7.481-114.76 22.364-34.19 14.918-63.05 36.078-86.62 63.52-23.61 27.437-41.87 60.859-54.86 100.34-12.99 39.437-19.48 83.718-19.48 132.789 0 64.468 10.11 120.05 30.32 166.718 20.19 46.661 46.66 85.18 79.37 115.5 32.73 30.321 69.52 52.68 110.45 67.11 40.87 14.429 81.54 21.679 121.97 21.679 19.24 0 40.42-2.199 63.52-6.519 23.09-4.32 45.22-11.777 66.4-22.359v88.05c0 41.379-.96 74.34-2.9 98.879-1.93 24.539-6.99 43.551-15.14 57.031-8.19 13.461-20.71 22.602-37.54 27.418-16.84 4.793-39.68 8.661-68.56 11.524-3.87 0-6.99 2.41-9.4 7.25-2.43 4.789-3.59 9.59-3.59 14.449 0 4.801.93 9.59 2.86 14.41 1.94 4.789 5.29 7.219 10.13 7.219 16.37.949 34.15 2.172 53.4 3.621 19.24 1.41 38.98 3.09 59.17 5.051 20.22 1.908 39.94 4.788 59.23 8.638 19.2 3.85 37.48 8.18 54.83 13.01 12.5 3.83 20.92 3.1 25.25-2.19 4.34-5.29 6.99-10.82 7.95-16.58V268.469zm-135.69 293.062c-18.3 23.071-38.02 40.168-59.2 51.239-21.18 11.031-46.68 16.628-76.49 16.628-28.9 0-54.85-4.347-77.97-13.019-23.07-8.68-42.56-23.59-58.45-44.77-15.89-21.16-27.91-50.039-36.08-86.589-8.17-36.579-12.28-82.77-12.28-138.598 0-32.703 3.38-64.703 10.11-95.992 6.73-31.27 16.6-59.18 29.61-83.719 12.99-24.531 28.86-44.27 47.63-59.172 18.77-14.95 40.64-22.39 65.67-22.39 40.41 0 73.85 6.992 100.32 20.953 26.45 13.929 48.83 31.968 67.13 54.117v401.312M3318.68 191.969c0-24.059.45-44.25 1.44-60.617.95-16.36 4.32-29.852 10.11-40.43 5.76-10.602 14.64-18.75 26.71-24.512 12.02-5.808 29.09-10.129 51.24-13.012 5.76-.968 10.08-3.609 12.99-7.937 2.88-4.34 4.32-9.371 4.32-15.152 0-4.82-1.44-9.38-4.32-13.72-2.91-4.327-7.23-6.5-12.99-6.5-17.31 0-39.96 1.7-67.85 5.052-27.93 3.359-56.32 5.058-85.17 5.058-30.8 0-60.88-1.699-90.23-5.058-29.36-3.352-57.51-5.051-84.43-5.051-4.84 0-8.66 2.172-11.55 6.5-2.88 4.34-4.34 8.898-4.34 13.719 0 5.78 1.46 10.812 4.34 15.152 2.89 4.328 7.21 6.969 12.97 7.937 25.03 2.883 44.51 7.204 58.49 13.012 13.91 5.762 24.02 13.7 30.32 23.8 6.22 10.11 9.85 22.579 10.82 37.532.94 14.918 1.42 33.438 1.42 55.567v232.41c0 41.351-.97 74.601-2.88 99.633-1.94 24.988-6.26 44.019-12.97 56.98-6.75 13.008-16.86 21.898-30.32 26.727-13.48 4.82-31.76 8.652-54.88 11.55-5.76 0-10.08 2.391-12.97 7.2-2.88 4.82-4.34 9.64-4.34 14.429 0 4.821 1.46 9.621 4.34 14.461 2.89 4.813 7.21 7.199 12.97 7.199 9.63.942 21.42 1.934 35.4 2.903 13.91.949 28.62 2.168 44.01 3.609 15.38 1.422 31.03 3.379 46.93 5.77 15.87 2.41 30.06 5.05 42.57 7.929 10.58 1.942 18.99 4.09 25.25 6.5 6.26 2.379 11.31 3.61 15.16 3.61 11.55 0 19.01-3.36 22.39-10.11 3.35-6.75 5.05-12.988 5.05-18.769V191.969zm-76.49 639.511c-24.11 0-44.75 7.418-62.1 22.36-17.31 14.879-25.98 33.422-25.98 55.57 0 22.149 8.17 40.899 24.54 56.301 16.36 15.371 36.55 23.09 60.64 23.09 23.09 0 42.08-7.93 57-23.832 14.93-15.86 22.39-34.867 22.39-56.981 0-21.199-7.23-39.269-21.66-54.148-14.42-14.942-32.72-22.36-54.83-22.36M4027.43 173.199c0-33.699 3.14-57.25 9.4-70.73 6.26-13.477 18.52-20.207 36.82-20.207 10.58 0 19.22 1.199 25.97 3.61 6.71 2.41 16.35 7.46 28.86 15.159 2.88 1.93 6.02 1.93 9.38 0 3.37-1.941 6.28-4.582 8.66-7.922 2.41-3.39 4.11-7.238 5.08-11.558.94-4.332 0-7.942-2.88-10.84-37.55-45.223-81.83-67.832-132.83-67.832-27.92 0-51.74 7.473-71.46 22.371-19.72 14.898-34.41 32.469-44.02 52.71-1.94 4.79-4.82 5.24-8.67 1.411-25.03-22.14-54.12-40.402-87.32-54.832-33.21-14.45-74.84-21.66-124.88-21.66-54.83 0-97.22 14.652-127.02 44.02-29.83 29.363-44.75 70.972-44.75 124.863 0 69.297 32.23 122.457 96.72 159.527 64.45 37.012 158.29 55.57 281.49 55.57 1.91 0 3.35 2.411 4.32 7.2.97 4.8 1.44 15.89 1.44 33.211v38.98c0 24.059-1.93 46.672-5.76 67.871-3.85 21.141-10.36 39.668-19.5 55.539-9.14 15.891-21.87 28.371-38.26 37.551-16.36 9.121-36.58 13.719-60.6 13.719-35.63 0-64.49-7.008-86.62-20.969-22.14-13.93-33.2-31.973-33.2-54.121 0-10.578 3.38-20.899 10.11-31.031 6.71-10.11 10.08-20.43 10.08-31.008 0-13.492-6.73-26.492-20.19-39.012-13.48-12.519-29.85-18.75-49.09-18.75-25.98 0-44.51 6.973-55.57 20.922-11.07 13.937-16.6 31.051-16.6 51.25 0 24.059 6.73 46.918 20.21 68.59 13.47 21.64 31.74 40.148 54.84 55.57 23.12 15.379 50.04 27.649 80.83 36.789 30.82 9.141 63.05 13.719 96.75 13.719 76.98 0 137.58-17.797 181.88-53.41 44.23-35.59 66.38-94.77 66.38-177.539V173.199zm-135.69 142.91c0 10.582-.47 17.071-1.44 19.512-.97 2.359-3.37 3.609-7.2 3.609-78.94-6.75-137.39-23.359-175.39-49.808-38.04-26.492-57.03-60.422-57.03-101.774 0-28.859 7.23-53.179 21.66-72.898 14.43-19.719 38.47-29.59 72.17-29.59 22.12 0 45.48 4.34 70.01 12.988 24.56 8.661 46.43 21.161 65.7 37.524 7.67 7.719 11.52 15.379 11.52 23.117v157.32M4440.28 191.969c0-24.059.45-44.25 1.44-60.617.95-16.36 3.61-29.852 7.93-40.43 4.33-10.602 11.55-18.75 21.66-24.512 10.11-5.808 24.3-10.129 42.58-13.012 5.78-.968 10.12-3.609 13.01-7.937 2.88-4.34 4.32-9.371 4.32-15.152 0-4.82-1.44-9.38-4.32-13.72-2.89-4.327-7.23-6.5-13.01-6.5-9.64 0-27.68 1.7-54.13 5.052-26.47 3.359-54.15 5.058-83 5.058-30.8 0-60.62-1.699-89.5-5.058-28.86-3.352-55.81-5.051-80.84-5.051-4.84 0-8.66 2.172-11.55 6.5-2.9 4.34-4.32 8.898-4.32 13.719 0 5.78 1.42 10.812 4.32 15.152 2.89 4.328 7.23 6.969 12.99 7.937 24.04 2.883 42.6 6.73 55.57 11.551 13.01 4.79 22.6 12.02 28.9 21.653 6.24 9.609 9.85 22.128 10.82 37.527.94 15.371 1.42 35.109 1.42 59.18v181.902c0 47.129-.48 86.34-1.42 117.621-.97 31.289-4.35 56.09-10.13 74.359-5.76 18.278-14.9 31.028-27.4 38.239-12.53 7.218-30.32 10.84-53.43 10.84-5.77 0-10.35 1.91-13.7 5.781-3.38 3.828-5.06 8.168-5.06 12.988 0 5.781 1.68 10.582 5.06 14.43 3.35 3.851 7.93 5.781 13.7 5.781 18.27 0 44.98 2.879 80.14 8.648 35.1 5.782 70.94 13.954 107.52 24.563 13.48 3.82 23.57 1.18 30.32-7.941 6.71-9.161 10.11-19.5 10.11-31.051V581.75c0-1.93.73-3.16 2.15-3.629 1.46-.5 2.64.231 3.61 2.168 6.73 10.582 16.11 22.359 28.15 35.371 12.02 12.988 26.45 25.27 43.31 36.82 16.84 11.551 35.85 21.141 57.03 28.86 21.16 7.699 44.75 11.539 70.72 11.539 72.19 0 128.71-19.969 169.63-59.899 40.88-39.96 61.33-104.64 61.33-194.14V191.969c0-25.969.73-47.16 2.19-63.5 1.42-16.367 4.8-29.59 10.09-39.7 5.29-10.12 13.46-17.82 24.53-23.09 11.08-5.308 26.71-9.398 46.92-12.28 5.77-.97 10.11-3.61 12.99-7.938 2.91-4.34 4.32-9.371 4.32-15.152 0-4.82-1.41-9.38-4.32-13.72-2.88-4.327-7.22-6.5-12.99-6.5-12.51 0-32.96 1.7-61.35 5.052-28.38 3.359-57 5.058-85.88 5.058-30.82 0-60.15-1.699-88.06-5.058-27.92-3.352-51.01-5.051-69.27-5.051-4.84 0-8.68 2.172-11.59 6.5-2.88 4.34-4.3 8.898-4.3 13.719 0 5.78 1.42 10.812 4.3 15.152 2.91 4.328 7.25 6.969 13.01 7.937 21.16 2.883 37.29 7.204 48.36 13.012 11.04 5.762 19.25 13.7 24.56 23.8 5.25 10.11 8.39 22.579 9.36 37.532.94 14.918 1.46 33.438 1.46 55.567V402.75c0 24.051-.97 48.09-2.91 72.148-1.93 24.043-7.22 45.704-15.86 64.981-8.67 19.211-21.19 35.121-37.53 47.641-16.39 12.468-38.99 18.75-67.84 18.75-28.91 0-54.15-4.579-75.81-13.7-21.65-9.179-39.95-21.441-54.83-36.82-14.95-15.41-26.26-33.461-33.93-54.141-7.72-20.711-11.55-42.597-11.55-65.679V191.969M5257.31 239.609c0-53.89 6.02-93.82 18.04-119.8 12.04-26 33.93-38.97 65.69-38.97 22.13 0 43.08 3.34 62.8 10.09 19.71 6.712 34.87 13.93 45.48 21.653 2.88 1.918 6.25 2.156 10.1.738 3.83-1.468 7.21-3.879 10.09-7.23 2.9-3.379 5.05-6.988 6.51-10.82 1.44-3.872 1.19-7.22-.73-10.122-18.3-29.828-42.1-51.007-71.45-63.507-29.36-12.512-63.79-18.77-103.2-18.77-65.48 0-111.65 14.668-138.57 44.04-26.99 29.331-40.45 75.288-40.45 137.839v370.988c0 11.551-.48 20.711-1.42 27.442-.97 6.73-3.87 11.55-8.69 14.429-4.82 2.879-12.75 4.563-23.78 5.051-11.1.469-26.73.731-46.95.731-2.88 0-5.29 2.879-7.2 8.648-1.94 5.781-3.16 12.043-3.61 18.77-.52 6.73.21 12.992 2.15 18.75 1.91 5.781 4.81 8.691 8.66 8.691 24.07 1.891 44.75 5.52 62.06 10.809 17.36 5.293 32 13.722 44.07 25.273 11.99 11.547 21.63 27.18 28.85 46.918 7.21 19.699 13.23 45.461 18.05 77.219.94 5.793 4.79 10.09 11.54 13.011 6.71 2.86 13.94 4.309 21.66 4.309 7.7 0 14.64-1.207 20.94-3.617 6.22-2.391 9.36-5.551 9.36-9.371V698.648c0-15.386.73-24.296 2.19-26.699 1.42-2.39 7.44-3.617 18.04-3.617h150.1c6.73 0 11.07-3.852 13.01-11.543 1.91-7.699 2.88-14.43 2.88-20.199 0-5.781-1.2-12.789-3.61-20.942-2.41-8.187-7.46-12.257-15.16-12.257h-154.44c-6.76 0-10.6-1.7-11.55-5.051-.99-3.399-1.46-15.68-1.46-36.82V239.609" transform="matrix(.13 0 0 -.13 0 362.663)"/></svg>