<?xml version="1.0" encoding="UTF-8" standalone="no"?>
<svg
   xmlns:dc="http://purl.org/dc/elements/1.1/"
   xmlns:cc="http://creativecommons.org/ns#"
   xmlns:rdf="http://www.w3.org/1999/02/22-rdf-syntax-ns#"
   xmlns:svg="http://www.w3.org/2000/svg"
   xmlns="http://www.w3.org/2000/svg"
   viewBox="0 0 684.61249 362.66251"
   height="362.66251"
   width="684.61249"
   xml:space="preserve"
   version="1.1"
   id="svg3614"><metadata
     id="metadata3620"><rdf:RDF><cc:Work
         rdf:about=""><dc:format>image/svg+xml</dc:format><dc:type
           rdf:resource="http://purl.org/dc/dcmitype/StillImage" /><dc:title></dc:title></cc:Work></rdf:RDF></metadata><defs
     id="defs3618" /><g
     transform="matrix(1.25,0,0,-1.25,0,362.6625)"
     id="g3622"><g
       transform="scale(0.1,0.1)"
       id="g3624"><path
         id="path3626"
         style="fill:#b71b2f;fill-opacity:1;fill-rule:nonzero;stroke:none"
         d="m 3631.84,1614.96 c -317.55,200.29 -866.87,-210.78 -1050.11,-332.34 -306.6,-203.56 -800.76,-356.409 -1061.95,-47.68 420.72,-26.14 417.91,485.48 405.65,769.27 -15.1,350.15 29.78,665.37 309.87,897.1 -19.18,-147.39 -46.23,-288.3 93.59,-447.71 118.23,-134.96 302.58,-206.46 473.32,-245.94 340.3,-78.64 709.96,-219.9 829.63,-592.7" /><path
         id="path3628"
         style="fill:#050606;fill-opacity:1;fill-rule:nonzero;stroke:none"
         d="m 892.113,132.789 c 0,-7.719 -2.406,-12.519 -7.222,-14.43 C 859.859,100.059 835.816,83.4609 812.723,68.5586 789.605,53.6094 763.371,41.1211 734.039,31.0117 704.664,20.9297 670.535,13.2305 631.551,7.92188 592.586,2.67188 545.664,0 490.809,0 411.887,0 341.871,11.3086 280.758,33.8906 219.641,56.5117 168.398,89.2383 127.047,132.059 85.6523,174.891 54.1484,227.582 32.4727,290.16 10.8398,352.691 0,423.891 0,503.801 c 0,81.781 12.75,154.679 38.2539,218.668 25.4844,64 60.8594,117.652 106.1011,160.961 45.223,43.332 98.899,76.25 160.958,98.871 62.062,22.599 129.671,33.959 202.828,33.959 46.187,0 90.207,-6.28 132.078,-18.772 41.867,-12.519 80.574,-27.437 116.207,-44.797 20.191,-9.589 37.027,-15.371 50.512,-17.312 13.46,-1.93 23.566,6.75 30.32,26 0.945,4.82 4.086,8.152 9.375,10.09 5.269,1.953 10.582,2.64 15.871,2.191 5.289,-0.519 9.871,-1.93 13.719,-4.34 3.828,-2.39 5.269,-5.55 4.343,-9.379 -8.664,-36.582 -11.804,-77.48 -9.375,-122.679 2.387,-45.274 5.977,-91.461 10.817,-138.59 0,-4.84 -2.43,-9.184 -7.227,-13.012 -4.816,-3.828 -10.105,-6.262 -15.871,-7.211 -5.781,-0.961 -11.547,-0.25 -17.308,2.153 -5.786,2.386 -9.184,6.519 -10.129,12.277 -13.485,83.742 -49.328,147.973 -107.52,192.703 -58.254,44.77 -132.594,67.109 -223.039,67.109 -55.824,0 -103.715,-12.75 -143.625,-38.211 -39.953,-25.519 -72.684,-58.492 -98.168,-98.921 -25.504,-40.399 -44.273,-86.098 -56.297,-137.11 -12.039,-51 -18.039,-101.558 -18.039,-151.558 0,-70.27 6.965,-134.032 20.922,-191.282 13.934,-57.257 34.645,-106.328 62.063,-147.23 27.437,-40.93 60.875,-72.43 100.335,-94.5782 39.461,-22.1289 85.176,-33.1992 137.153,-33.1992 37.523,0 71.672,2.6484 102.488,7.957 30.774,5.2734 57.008,14.6406 78.66,28.1523 21.657,13.4611 38.492,31.9691 50.516,55.5591 12.019,23.589 18.062,53.652 18.062,90.25 0,28.859 -1.957,51.46 -5.785,67.812 -3.847,16.359 -11.074,28.898 -21.656,37.539 -10.602,8.668 -25.027,14.668 -43.309,18.07 -18.277,3.329 -41.867,6.489 -70.726,9.348 -6.75,0 -11.547,2.43 -14.43,7.231 -2.902,4.789 -4.344,9.609 -4.344,14.449 0,5.781 1.207,10.812 3.614,15.133 2.386,4.347 6.496,6.519 12.281,6.519 33.676,0 68.555,-1.223 104.637,-3.59 36.105,-2.429 68.082,-3.66 96.015,-3.66 13.461,0 26.192,0.5 38.235,1.469 12.019,0.941 24.558,1.672 37.547,2.191 12.988,0.449 26.921,1.16 41.867,2.129 14.902,0.969 31.976,1.461 51.222,1.461 4.817,0 8.43,-2.172 10.836,-6.519 2.391,-4.321 3.614,-9.352 3.614,-15.133 0,-4.84 -1.442,-9.399 -4.321,-13.719 -2.902,-4.328 -7.226,-6.988 -13.011,-7.961 -21.161,-1.937 -37.524,-5.289 -49.071,-10.09 -11.551,-4.828 -20,-11.539 -25.269,-20.211 -5.289,-8.636 -8.43,-19.476 -9.375,-32.468 -0.969,-13.008 -1.442,-28.641 -1.442,-46.918 l 0,-132.813" /><path
         id="path3630"
         style="fill:#050606;fill-opacity:1;fill-rule:nonzero;stroke:none"
         d="m 1247.23,191.969 c 0,-24.059 0.71,-44.25 2.15,-60.617 1.46,-16.36 6.52,-29.852 15.16,-40.4301 8.67,-10.6016 22.15,-18.75 40.43,-24.5117 18.25,-5.8086 44.75,-10.1289 79.39,-13.0118 5.78,-0.9687 10.11,-3.6093 13.01,-7.9375 2.88,-4.3398 4.32,-9.3711 4.32,-15.1523 0,-4.8203 -1.44,-9.3789 -4.32,-13.7188 -2.9,-4.3281 -7.23,-6.5 -13.01,-6.5 -41.37,0 -77.95,1.6993 -109.71,5.0508 -31.74,3.3594 -62.06,5.0586 -90.94,5.0586 -30.8,0 -61.33,-1.6992 -91.65,-5.0586 -30.32,-3.3515 -60.88,-5.0508 -91.68,-5.0508 -4.814,0 -8.661,2.1719 -11.544,6.5 -2.902,4.3399 -4.344,8.8985 -4.344,13.7188 0,5.7812 1.442,10.8125 4.344,15.1523 2.883,4.3282 7.227,6.9688 12.994,7.9375 26.92,2.8829 47.86,7.2032 62.79,13.0118 14.92,5.7617 25.74,13.6992 32.49,23.8007 6.71,10.1091 10.82,22.5781 12.26,37.5311 1.44,14.918 2.17,33.438 2.17,55.567 l 0,210.761 c 0,47.149 -0.97,84.442 -2.88,111.879 -1.96,27.442 -6.52,48.582 -13.72,63.52 -7.23,14.91 -18.54,24.761 -33.94,29.59 -15.39,4.82 -36.57,8.152 -63.496,10.089 -4.84,0 -8.453,2.391 -10.84,7.25 -2.406,4.793 -3.609,9.59 -3.609,14.422 0,4.801 1.203,9.59 3.609,14.43 2.387,4.801 6.516,7.23 12.281,7.23 19.245,1.891 45.935,4.059 80.125,6.489 34.15,2.39 69.03,8.39 104.64,18.051 13.48,3.839 24.53,4.32 33.2,1.441 8.66,-2.891 12.49,-11.102 11.55,-24.563 l -2.89,-92.378 c 0,-1.938 0.48,-3.122 1.45,-3.59 0.94,-0.52 2.38,0.191 4.32,2.121 20.21,40.449 44.98,72.691 74.36,96.75 29.33,24.058 68.55,36.078 117.65,36.078 40.4,0 70.23,-10.359 89.5,-31.047 19.24,-20.711 28.85,-45.953 28.85,-75.762 0,-16.398 -6.25,-31.281 -18.77,-44.738 -12.51,-13.512 -30.3,-20.223 -53.39,-20.223 -22.15,0 -37.53,5.289 -46.19,15.871 -8.67,10.559 -13.01,22.11 -13.01,34.622 0,13.488 -2.65,24.07 -7.94,31.789 -5.29,7.691 -16.58,11.539 -33.91,11.539 -18.3,0 -34.9,-6.02 -49.8,-18.039 -14.93,-12.039 -27.68,-26.262 -38.26,-42.602 -10.6,-16.34 -18.77,-33.18 -24.53,-50.488 -5.79,-17.332 -8.67,-30.84 -8.67,-40.449 l 0,-271.383" /><path
         id="path3632"
         style="fill:#050606;fill-opacity:1;fill-rule:nonzero;stroke:none"
         d="m 2111.9,173.199 c 0,-33.699 3.09,-57.25 9.37,-70.73 6.28,-13.4768 18.52,-20.2073 36.84,-20.2073 10.56,0 19.22,1.1992 25.98,3.6094 6.71,2.4102 16.34,7.4609 28.85,15.1599 2.89,1.93 6.03,1.93 9.38,0 3.38,-1.9412 6.28,-4.5818 8.67,-7.9216 2.41,-3.3906 4.08,-7.2383 5.05,-11.5586 0.95,-4.332 0,-7.9414 -2.9,-10.8399 -37.51,-45.2226 -81.78,-67.83199 -132.79,-67.83199 -27.93,0 -51.74,7.47269 -71.46,22.37109 -19.74,14.8984 -34.43,32.4688 -44.02,52.7109 -1.95,4.7891 -4.83,5.2383 -8.66,1.4102 -25.03,-22.1406 -54.15,-40.4023 -87.33,-54.832 -33.2,-14.4493 -74.86,-21.66019 -124.87,-21.66019 -54.86,0 -97.22,14.65239 -127.03,44.01949 -29.85,29.3633 -44.75,70.9726 -44.75,124.8636 0,69.297 32.24,122.457 96.71,159.527 64.46,37.012 158.29,55.57 281.48,55.57 1.94,0 3.38,2.411 4.35,7.2 0.94,4.8 1.44,15.89 1.44,33.211 l 0,38.98 c 0,24.059 -1.94,46.672 -5.79,67.871 -3.85,21.141 -10.34,39.668 -19.48,55.539 -9.16,15.891 -21.89,28.371 -38.26,37.551 -16.38,9.121 -36.57,13.719 -60.61,13.719 -35.62,0 -64.5,-7.008 -86.62,-20.969 -22.15,-13.93 -33.21,-31.973 -33.21,-54.121 0,-10.578 3.36,-20.899 10.11,-31.031 6.71,-10.11 10.11,-20.43 10.11,-31.008 0,-13.492 -6.75,-26.492 -20.22,-39.012 -13.48,-12.519 -29.84,-18.75 -49.07,-18.75 -26,0 -44.53,6.973 -55.58,20.922 -11.08,13.937 -16.61,31.051 -16.61,51.25 0,24.059 6.73,46.918 20.22,68.59 13.46,21.64 31.76,40.148 54.85,55.57 23.1,15.379 50.02,27.649 80.84,36.789 30.79,9.141 63.03,13.719 96.72,13.719 76.99,0 137.61,-17.797 181.88,-53.41 44.26,-35.59 66.41,-94.77 66.41,-177.539 l 0,-288.731 z m -135.69,142.91 c 0,10.582 -0.5,17.071 -1.44,19.512 -0.97,2.359 -3.4,3.609 -7.23,3.609 -78.92,-6.75 -137.39,-23.359 -175.38,-49.808 -38.05,-26.492 -57.03,-60.422 -57.03,-101.774 0,-28.859 7.22,-53.179 21.65,-72.898 14.45,-19.7187 38.47,-29.5898 72.19,-29.5898 22.11,0 45.46,4.3398 70.02,12.9882 24.51,8.6606 46.4,21.1606 65.67,37.5236 7.7,7.719 11.55,15.379 11.55,23.117 l 0,157.32" /><path
         id="path3634"
         style="fill:#050606;fill-opacity:1;fill-rule:nonzero;stroke:none"
         d="m 2905.83,268.469 c 0,-39.457 0.73,-71.457 2.15,-95.969 1.44,-24.559 5.79,-43.801 12.99,-57.762 7.23,-13.937 18.04,-23.5661 32.5,-28.8591 14.42,-5.3086 34.64,-7.9297 60.61,-7.9297 3.83,0 6.99,-2.1797 9.4,-6.5 2.39,-4.3398 3.61,-9.3984 3.61,-15.1601 0,-4.8399 -0.98,-9.6289 -2.9,-14.4297 -1.93,-4.8281 -5.31,-7.2188 -10.11,-7.2188 -7.72,0 -14.19,-0.2617 -19.48,-0.7304 -5.31,-0.5 -10.6,-0.9688 -15.89,-1.4414 -5.31,-0.5 -11.07,-1.2071 -17.31,-2.1485 -6.28,-0.9687 -14.21,-1.9414 -23.81,-2.8906 -7.72,-0.9883 -18.3,-2.8984 -31.76,-5.7813 -13.48,-2.8789 -27.44,-5.789 -41.86,-8.6875 -14.46,-2.8789 -27.94,-5.24996 -40.41,-7.19918 -12.52,-1.92188 -20.71,-2.88281 -24.54,-2.88281 -7.72,0 -13.97,6.75 -18.77,20.21089 -4.84,13.461 -7.25,32.2305 -7.25,56.3008 0,4.7891 -1.2,6.711 -3.59,5.7578 -2.41,-0.9687 -4.58,-2.4062 -6.49,-4.3164 C 2733.09,53.8594 2704.21,34.1406 2676.3,21.6484 2648.39,9.12891 2614.24,2.87891 2573.83,2.87891 c -42.38,0 -80.61,7.48049 -114.76,22.36329 -34.19,14.918 -63.05,36.0781 -86.62,63.5195 -23.61,27.4373 -41.87,60.8593 -54.86,100.3403 -12.99,39.437 -19.48,83.718 -19.48,132.789 0,64.468 10.11,120.05 30.32,166.718 20.19,46.661 46.66,85.18 79.37,115.5 32.73,30.321 69.52,52.68 110.45,67.11 40.87,14.429 81.54,21.679 121.97,21.679 19.24,0 40.42,-2.199 63.52,-6.519 23.09,-4.32 45.22,-11.777 66.4,-22.359 l 0,88.05 c 0,41.379 -0.96,74.34 -2.9,98.879 -1.93,24.539 -6.99,43.551 -15.14,57.031 -8.19,13.461 -20.71,22.602 -37.54,27.418 -16.84,4.793 -39.68,8.661 -68.56,11.524 -3.87,0 -6.99,2.41 -9.4,7.25 -2.43,4.789 -3.59,9.59 -3.59,14.449 0,4.801 0.93,9.59 2.86,14.41 1.94,4.789 5.29,7.219 10.13,7.219 16.37,0.949 34.15,2.172 53.4,3.621 19.24,1.41 38.98,3.09 59.17,5.051 20.22,1.908 39.94,4.788 59.23,8.638 19.2,3.85 37.48,8.18 54.83,13.01 12.5,3.83 20.92,3.1 25.25,-2.19 4.34,-5.29 6.99,-10.82 7.95,-16.58 l 0,-733.331 z m -135.69,293.062 c -18.3,23.071 -38.02,40.168 -59.2,51.239 -21.18,11.031 -46.68,16.628 -76.49,16.628 -28.9,0 -54.85,-4.347 -77.97,-13.019 -23.07,-8.68 -42.56,-23.59 -58.45,-44.77 -15.89,-21.16 -27.91,-50.039 -36.08,-86.589 -8.17,-36.579 -12.28,-82.77 -12.28,-138.598 0,-32.703 3.38,-64.703 10.11,-95.992 6.73,-31.27 16.6,-59.18 29.61,-83.719 12.99,-24.531 28.86,-44.27 47.63,-59.172 18.77,-14.9492 40.64,-22.3906 65.67,-22.3906 40.41,0 73.85,6.9922 100.32,20.9536 26.45,13.929 48.83,31.968 67.13,54.117 l 0,401.312" /><path
         id="path3636"
         style="fill:#050606;fill-opacity:1;fill-rule:nonzero;stroke:none"
         d="m 3318.68,191.969 c 0,-24.059 0.45,-44.25 1.44,-60.617 0.95,-16.36 4.32,-29.852 10.11,-40.4301 5.76,-10.6016 14.64,-18.75 26.71,-24.5117 12.02,-5.8086 29.09,-10.1289 51.24,-13.0118 5.76,-0.9687 10.08,-3.6093 12.99,-7.9375 2.88,-4.3398 4.32,-9.3711 4.32,-15.1523 0,-4.8203 -1.44,-9.3789 -4.32,-13.7188 -2.91,-4.3281 -7.23,-6.5 -12.99,-6.5 -17.31,0 -39.96,1.6993 -67.85,5.0508 -27.93,3.3594 -56.32,5.0586 -85.17,5.0586 -30.8,0 -60.88,-1.6992 -90.23,-5.0586 -29.36,-3.3515 -57.51,-5.0508 -84.43,-5.0508 -4.84,0 -8.66,2.1719 -11.55,6.5 -2.88,4.3399 -4.34,8.8985 -4.34,13.7188 0,5.7812 1.46,10.8125 4.34,15.1523 2.89,4.3282 7.21,6.9688 12.97,7.9375 25.03,2.8829 44.51,7.2032 58.49,13.0118 13.91,5.7617 24.02,13.6992 30.32,23.8007 6.22,10.1091 9.85,22.5781 10.82,37.5311 0.94,14.918 1.42,33.438 1.42,55.567 l 0,232.41 c 0,41.351 -0.97,74.601 -2.88,99.633 -1.94,24.988 -6.26,44.019 -12.97,56.98 -6.75,13.008 -16.86,21.898 -30.32,26.727 -13.48,4.82 -31.76,8.652 -54.88,11.55 -5.76,0 -10.08,2.391 -12.97,7.2 -2.88,4.82 -4.34,9.64 -4.34,14.429 0,4.821 1.46,9.621 4.34,14.461 2.89,4.813 7.21,7.199 12.97,7.199 9.63,0.942 21.42,1.934 35.4,2.903 13.91,0.949 28.62,2.168 44.01,3.609 15.38,1.422 31.03,3.379 46.93,5.77 15.87,2.41 30.06,5.05 42.57,7.929 10.58,1.942 18.99,4.09 25.25,6.5 6.26,2.379 11.31,3.61 15.16,3.61 11.55,0 19.01,-3.36 22.39,-10.11 3.35,-6.75 5.05,-12.988 5.05,-18.769 l 0,-463.371 z m -76.49,639.511 c -24.11,0 -44.75,7.418 -62.1,22.36 -17.31,14.879 -25.98,33.422 -25.98,55.57 0,22.149 8.17,40.899 24.54,56.301 16.36,15.371 36.55,23.09 60.64,23.09 23.09,0 42.08,-7.93 57,-23.832 14.93,-15.86 22.39,-34.867 22.39,-56.981 0,-21.199 -7.23,-39.269 -21.66,-54.148 -14.42,-14.942 -32.72,-22.36 -54.83,-22.36" /><path
         id="path3638"
         style="fill:#050606;fill-opacity:1;fill-rule:nonzero;stroke:none"
         d="m 4027.43,173.199 c 0,-33.699 3.14,-57.25 9.4,-70.73 6.26,-13.4768 18.52,-20.2073 36.82,-20.2073 10.58,0 19.22,1.1992 25.97,3.6094 6.71,2.4102 16.35,7.4609 28.86,15.1599 2.88,1.93 6.02,1.93 9.38,0 3.37,-1.9412 6.28,-4.5818 8.66,-7.9216 2.41,-3.3906 4.11,-7.2383 5.08,-11.5586 0.94,-4.332 0,-7.9414 -2.88,-10.8399 -37.55,-45.2226 -81.83,-67.83199 -132.83,-67.83199 -27.92,0 -51.74,7.47269 -71.46,22.37109 -19.72,14.8984 -34.41,32.4688 -44.02,52.7109 -1.94,4.7891 -4.82,5.2383 -8.67,1.4102 -25.03,-22.1406 -54.12,-40.4023 -87.32,-54.832 -33.21,-14.4493 -74.84,-21.66019 -124.88,-21.66019 -54.83,0 -97.22,14.65239 -127.02,44.01949 -29.83,29.3633 -44.75,70.9726 -44.75,124.8636 0,69.297 32.23,122.457 96.72,159.527 64.45,37.012 158.29,55.57 281.49,55.57 1.91,0 3.35,2.411 4.32,7.2 0.97,4.8 1.44,15.89 1.44,33.211 l 0,38.98 c 0,24.059 -1.93,46.672 -5.76,67.871 -3.85,21.141 -10.36,39.668 -19.5,55.539 -9.14,15.891 -21.87,28.371 -38.26,37.551 -16.36,9.121 -36.58,13.719 -60.6,13.719 -35.63,0 -64.49,-7.008 -86.62,-20.969 -22.14,-13.93 -33.2,-31.973 -33.2,-54.121 0,-10.578 3.38,-20.899 10.11,-31.031 6.71,-10.11 10.08,-20.43 10.08,-31.008 0,-13.492 -6.73,-26.492 -20.19,-39.012 -13.48,-12.519 -29.85,-18.75 -49.09,-18.75 -25.98,0 -44.51,6.973 -55.57,20.922 -11.07,13.937 -16.6,31.051 -16.6,51.25 0,24.059 6.73,46.918 20.21,68.59 13.47,21.64 31.74,40.148 54.84,55.57 23.12,15.379 50.04,27.649 80.83,36.789 30.82,9.141 63.05,13.719 96.75,13.719 76.98,0 137.58,-17.797 181.88,-53.41 44.23,-35.59 66.38,-94.77 66.38,-177.539 l 0,-288.731 z m -135.69,142.91 c 0,10.582 -0.47,17.071 -1.44,19.512 -0.97,2.359 -3.37,3.609 -7.2,3.609 -78.94,-6.75 -137.39,-23.359 -175.39,-49.808 -38.04,-26.492 -57.03,-60.422 -57.03,-101.774 0,-28.859 7.23,-53.179 21.66,-72.898 14.43,-19.7187 38.47,-29.5898 72.17,-29.5898 22.12,0 45.48,4.3398 70.01,12.9882 24.56,8.6606 46.43,21.1606 65.7,37.5236 7.67,7.719 11.52,15.379 11.52,23.117 l 0,157.32" /><path
         id="path3640"
         style="fill:#050606;fill-opacity:1;fill-rule:nonzero;stroke:none"
         d="m 4440.28,191.969 c 0,-24.059 0.45,-44.25 1.44,-60.617 0.95,-16.36 3.61,-29.852 7.93,-40.4301 4.33,-10.6016 11.55,-18.75 21.66,-24.5117 10.11,-5.8086 24.3,-10.1289 42.58,-13.0118 5.78,-0.9687 10.12,-3.6093 13.01,-7.9375 2.88,-4.3398 4.32,-9.3711 4.32,-15.1523 0,-4.8203 -1.44,-9.3789 -4.32,-13.7188 -2.89,-4.3281 -7.23,-6.5 -13.01,-6.5 -9.64,0 -27.68,1.6993 -54.13,5.0508 -26.47,3.3594 -54.15,5.0586 -83,5.0586 -30.8,0 -60.62,-1.6992 -89.5,-5.0586 -28.86,-3.3515 -55.81,-5.0508 -80.84,-5.0508 -4.84,0 -8.66,2.1719 -11.55,6.5 -2.9,4.3399 -4.32,8.8985 -4.32,13.7188 0,5.7812 1.42,10.8125 4.32,15.1523 2.89,4.3282 7.23,6.9688 12.99,7.9375 24.04,2.8829 42.6,6.7305 55.57,11.5508 13.01,4.7891 22.6,12.0196 28.9,21.6524 6.24,9.6093 9.85,22.1284 10.82,37.5274 0.94,15.371 1.42,35.109 1.42,59.18 l 0,181.902 c 0,47.129 -0.48,86.34 -1.42,117.621 -0.97,31.289 -4.35,56.09 -10.13,74.359 -5.76,18.278 -14.9,31.028 -27.4,38.239 -12.53,7.218 -30.32,10.84 -53.43,10.84 -5.77,0 -10.35,1.91 -13.7,5.781 -3.38,3.828 -5.06,8.168 -5.06,12.988 0,5.781 1.68,10.582 5.06,14.43 3.35,3.851 7.93,5.781 13.7,5.781 18.27,0 44.98,2.879 80.14,8.648 35.1,5.782 70.94,13.954 107.52,24.563 13.48,3.82 23.57,1.18 30.32,-7.941 6.71,-9.161 10.11,-19.5 10.11,-31.051 l 0,-57.719 c 0,-1.93 0.73,-3.16 2.15,-3.629 1.46,-0.5 2.64,0.231 3.61,2.168 6.73,10.582 16.11,22.359 28.15,35.371 12.02,12.988 26.45,25.27 43.31,36.82 16.84,11.551 35.85,21.141 57.03,28.86 21.16,7.699 44.75,11.539 70.72,11.539 72.19,0 128.71,-19.969 169.63,-59.899 40.88,-39.96 61.33,-104.64 61.33,-194.14 l 0,-246.871 c 0,-25.969 0.73,-47.16 2.19,-63.5 1.42,-16.367 4.8,-29.5901 10.09,-39.6995 5.29,-10.1211 13.46,-17.8203 24.53,-23.0898 11.08,-5.3086 26.71,-9.3984 46.92,-12.2813 5.77,-0.9687 10.11,-3.6093 12.99,-7.9375 2.91,-4.3398 4.32,-9.3711 4.32,-15.1523 0,-4.8203 -1.41,-9.3789 -4.32,-13.7188 -2.88,-4.3281 -7.22,-6.5 -12.99,-6.5 -12.51,0 -32.96,1.6993 -61.35,5.0508 -28.38,3.3594 -57,5.0586 -85.88,5.0586 -30.82,0 -60.15,-1.6992 -88.06,-5.0586 -27.92,-3.3515 -51.01,-5.0508 -69.27,-5.0508 -4.84,0 -8.68,2.1719 -11.59,6.5 -2.88,4.3399 -4.3,8.8985 -4.3,13.7188 0,5.7812 1.42,10.8125 4.3,15.1523 2.91,4.3282 7.25,6.9688 13.01,7.9375 21.16,2.8829 37.29,7.2032 48.36,13.0118 11.04,5.7617 19.25,13.6992 24.56,23.8007 5.25,10.1091 8.39,22.5781 9.36,37.5311 0.94,14.918 1.46,33.438 1.46,55.567 l 0,219.441 c 0,24.051 -0.97,48.09 -2.91,72.148 -1.93,24.043 -7.22,45.704 -15.86,64.981 -8.67,19.211 -21.19,35.121 -37.53,47.641 -16.39,12.468 -38.99,18.75 -67.84,18.75 -28.91,0 -54.15,-4.579 -75.81,-13.7 -21.65,-9.179 -39.95,-21.441 -54.83,-36.82 -14.95,-15.41 -26.26,-33.461 -33.93,-54.141 -7.72,-20.711 -11.55,-42.597 -11.55,-65.679 l 0,-243.961" /><path
         id="path3642"
         style="fill:#050606;fill-opacity:1;fill-rule:nonzero;stroke:none"
         d="m 5257.31,239.609 c 0,-53.89 6.02,-93.82 18.04,-119.8 12.04,-26.0004 33.93,-38.9692 65.69,-38.9692 22.13,0 43.08,3.3399 62.8,10.0899 19.71,6.7109 34.87,13.9293 45.48,21.6523 2.88,1.918 6.25,2.156 10.1,0.738 3.83,-1.468 7.21,-3.879 10.09,-7.23 2.9,-3.379 5.05,-6.9884 6.51,-10.8205 1.44,-3.8711 1.19,-7.2187 -0.73,-10.1211 -18.3,-29.8281 -42.1,-51.0078 -71.45,-63.5078 -29.36,-12.51169 -63.79,-18.76951 -103.2,-18.76951 -65.48,0 -111.65,14.66801 -138.57,44.03911 -26.99,29.332 -40.45,75.2888 -40.45,137.8398 l 0,370.988 c 0,11.551 -0.48,20.711 -1.42,27.442 -0.97,6.73 -3.87,11.55 -8.69,14.429 -4.82,2.879 -12.75,4.563 -23.78,5.051 -11.1,0.469 -26.73,0.731 -46.95,0.731 -2.88,0 -5.29,2.879 -7.2,8.648 -1.94,5.781 -3.16,12.043 -3.61,18.77 -0.52,6.73 0.21,12.992 2.15,18.75 1.91,5.781 4.81,8.691 8.66,8.691 24.07,1.891 44.75,5.52 62.06,10.809 17.36,5.293 32,13.722 44.07,25.273 11.99,11.547 21.63,27.18 28.85,46.918 7.21,19.699 13.23,45.461 18.05,77.219 0.94,5.793 4.79,10.09 11.54,13.011 6.71,2.86 13.94,4.309 21.66,4.309 7.7,0 14.64,-1.207 20.94,-3.617 6.22,-2.391 9.36,-5.551 9.36,-9.371 l 0,-124.153 c 0,-15.386 0.73,-24.296 2.19,-26.699 1.42,-2.39 7.44,-3.617 18.04,-3.617 l 150.1,0 c 6.73,0 11.07,-3.852 13.01,-11.543 1.91,-7.699 2.88,-14.43 2.88,-20.199 0,-5.781 -1.2,-12.789 -3.61,-20.942 -2.41,-8.187 -7.46,-12.257 -15.16,-12.257 l -154.44,0 c -6.76,0 -10.6,-1.7 -11.55,-5.051 -0.99,-3.399 -1.46,-15.68 -1.46,-36.82 l 0,-321.911" /></g></g></svg>