<svg xmlns="http://www.w3.org/2000/svg" color-interpolation="auto" stroke="#000" stroke-linecap="square" width="235" stroke-miterlimit="10" height="107" font-family="'Dialog'" font-size="12"><defs><clipPath clipPathUnits="userSpaceOnUse" id="a"><path d="M-170-26h335.714v152.857H-170V-26Z"/></clipPath></defs><path clip-path="url(#a)" stroke="none" d="M-170-26h336v153h-336z" transform="matrix(.7 0 0 .7 119 18.2)" fill="#fff" text-rendering="geometricPrecision" shape-rendering="geometricPrecision"/><g text-rendering="geometricPrecision" stroke-miterlimit="1.45" shape-rendering="geometricPrecision" font-family="sans-serif" transform="matrix(.7 0 0 .7 119 18.2)" stroke-linecap="butt"><text x="47.73" xml:space="preserve" y="100.044" clip-path="url(#a)" stroke="none">Decision 2</text><text x="51.198" xml:space="preserve" y="36.651" clip-path="url(#a)" stroke="none">Based on</text><text x="37.262" xml:space="preserve" y="50.62" clip-path="url(#a)" stroke="none">direction type</text><rect x="13.562" y="-3.942" clip-path="url(#a)" fill="none" width="130.873" rx="4" ry="4" height="86.848"/><text x="-113.144" xml:space="preserve" y="100.044" clip-path="url(#a)" stroke="none">Decision 1</text><text x="-111.582" xml:space="preserve" y="36.651" clip-path="url(#a)" stroke="none">Based on </text><text x="-127.133" xml:space="preserve" y="50.62" clip-path="url(#a)" stroke="none">command type</text><rect x="-147.312" y="-3.942" clip-path="url(#a)" fill="none" width="130.873" rx="4" ry="4" height="86.848"/><path fill="none" d="M-16.402 39.482H5.55" clip-path="url(#a)"/><path d="m13.55 39.482-12-5 3 5-3 5Z" clip-path="url(#a)" stroke="none"/></g></svg>