<?xml version="1.0" encoding="UTF-8"?><svg xmlns="http://www.w3.org/2000/svg" xmlns:xlink="http://www.w3.org/1999/xlink" fill-opacity="1" color-rendering="auto" color-interpolation="auto" text-rendering="auto" stroke="black" stroke-linecap="square" width="235" stroke-miterlimit="10" shape-rendering="auto" stroke-opacity="1" fill="black" stroke-dasharray="none" font-weight="normal" stroke-width="1" height="107" font-family="'Dialog'" font-style="normal" stroke-linejoin="miter" font-size="12px" stroke-dashoffset="0" image-rendering="auto">
  <!--Generated by ySVG 2.5-->
  <defs id="genericDefs"/>
  <g>
    <defs id="defs1">
      <clipPath clipPathUnits="userSpaceOnUse" id="clipPath1">
        <path d="M0 0 L235 0 L235 107 L0 107 L0 0 Z"/>
      </clipPath>
      <clipPath clipPathUnits="userSpaceOnUse" id="clipPath2">
        <path d="M-170 -26 L165.7143 -26 L165.7143 126.8571 L-170 126.8571 L-170 -26 Z"/>
      </clipPath>
    </defs>
    <g fill="white" text-rendering="geometricPrecision" shape-rendering="geometricPrecision" transform="scale(0.7,0.7) translate(170,26)" stroke="white">
      <rect x="-170" width="336" height="153" y="-26" clip-path="url(#clipPath2)" stroke="none"/>
    </g>
    <g text-rendering="geometricPrecision" stroke-miterlimit="1.45" shape-rendering="geometricPrecision" font-family="sans-serif" transform="matrix(0.7,0,0,0.7,119,18.2)" stroke-linecap="butt">
      <text x="47.7296" xml:space="preserve" y="100.0444" clip-path="url(#clipPath2)" stroke="none">Decision 2</text>
      <text x="51.1984" xml:space="preserve" y="36.6515" clip-path="url(#clipPath2)" stroke="none">Based on</text>
      <text x="37.2619" xml:space="preserve" y="50.6203" clip-path="url(#clipPath2)" stroke="none">direction type</text>
      <rect x="13.5616" y="-3.9424" clip-path="url(#clipPath2)" fill="none" width="130.8732" rx="4" ry="4" height="86.8481"/>
      <text x="-113.1436" xml:space="preserve" y="100.0444" clip-path="url(#clipPath2)" stroke="none">Decision 1</text>
      <text x="-111.5821" xml:space="preserve" y="36.6515" clip-path="url(#clipPath2)" stroke="none">Based on </text>
      <text x="-127.1328" xml:space="preserve" y="50.6203" clip-path="url(#clipPath2)" stroke="none">command type</text>
      <rect x="-147.3116" y="-3.9424" clip-path="url(#clipPath2)" fill="none" width="130.8732" rx="4" ry="4" height="86.8481"/>
      <path fill="none" d="M-16.4025 39.4816 L5.55 39.4816" clip-path="url(#clipPath2)"/>
      <path d="M13.55 39.4816 L1.55 34.4816 L4.55 39.4816 L1.55 44.4816 Z" clip-path="url(#clipPath2)" stroke="none"/>
    </g>
  </g>
</svg>
