<svg xmlns="http://www.w3.org/2000/svg" height="213.332" width="204.442" viewBox="0 0 191.665 200"><path d="m-.005 106.705 7.193-2.057c3.726 23.265 11.305 42.032 22.995 56.298 11.69 14.396 25.178 21.594 40.595 21.594 7.964 0 14.773-2.956 20.296-8.74 5.524-5.784 8.35-12.854 8.35-21.337 0-15.295-6.166-29.307-18.498-41.901-6.423 8.868-14.002 15.424-22.866 19.408l-8.992-21.337C68.979 102.978 79 93.466 79 80.357c0-5.013-1.542-8.74-4.496-11.31-3.084-2.443-7.58-3.728-13.746-3.728-8.992 0-18.498 2.57-28.39 7.969l-8.735-21.08c8.221-4.113 16.7-6.04 25.564-6.04 11.69 0 21.067 3.727 28.262 11.31 7.323 7.584 10.92 17.48 10.92 29.564 0 5.27-1.028 9.897-3.083 13.882l3.982 3.727c11.433-10.925 22.352-16.323 32.756-16.323.771 0 2.184.128 3.983.257 3.982-20.951 14.644-31.364 31.858-31.364 11.305 0 19.655 4.499 25.307 13.753 5.652 9.126 8.478 22.88 8.478 41.13 0 18.638-3.596 33.42-10.662 44.216-6.937 10.925-16.443 16.452-28.39 16.452-8.35 0-14.259-2.7-17.727-7.97-3.469-5.269-5.267-14.138-5.267-26.734v-9.383c0-11.697-3.212-17.61-9.506-17.61-5.267 0-11.947 2.7-19.783 8.098 11.048 14.91 16.571 29.177 16.571 42.93 0 11.31-3.597 20.437-11.047 27.378-7.451 7.069-17.214 10.54-29.288 10.54-19.655 0-36.74-8.87-51.255-26.607C10.79 155.676 2.31 133.439-.001 106.705zm132.444-15.81c4.367 2.314 6.551 7.841 6.551 16.71V130.612c0 15.296 4.882 23.008 14.645 23.008 8.221 0 15.03-3.727 20.425-11.311 5.395-7.583 8.093-17.095 8.093-28.536 0-11.054-2.44-20.051-7.322-26.992-5.01-6.94-11.433-10.411-19.27-10.411-10.662 0-18.498 4.884-23.123 14.524zM63.84 25.856l6.423-4.884c8.093 10.54 17.6 15.81 28.647 15.682 10.534.128 19.526-5.142 27.234-15.682l17.6 14.91c-11.434 12.211-22.995 18.38-34.813 18.38-17.728 0-32.757-9.51-45.09-28.405zM101.608.02l13.489 13.754-13.489 13.239-13.36-14.14L101.608.02z" fill="#c30000"/></svg>