<?xml version="1.0" encoding="UTF-8"?><svg xmlns="http://www.w3.org/2000/svg" xmlns:xlink="http://www.w3.org/1999/xlink" fill-opacity="1" color-rendering="auto" color-interpolation="auto" text-rendering="auto" stroke="black" stroke-linecap="square" width="487" stroke-miterlimit="10" shape-rendering="auto" stroke-opacity="1" fill="black" stroke-dasharray="none" font-weight="normal" stroke-width="1" height="140" font-family="'Dialog'" font-style="normal" stroke-linejoin="miter" font-size="12px" stroke-dashoffset="0" image-rendering="auto">
  <!--Generated by ySVG 2.5-->
  <defs id="genericDefs"/>
  <g>
    <defs id="defs1">
      <clipPath clipPathUnits="userSpaceOnUse" id="clipPath1">
        <path d="M0 0 L487 0 L487 140 L0 140 L0 0 Z"/>
      </clipPath>
      <clipPath clipPathUnits="userSpaceOnUse" id="clipPath2">
        <path d="M-223 -84 L264 -84 L264 56 L-223 56 L-223 -84 Z"/>
      </clipPath>
    </defs>
    <g fill="white" text-rendering="geometricPrecision" shape-rendering="geometricPrecision" transform="translate(223,84)" stroke="white">
      <rect x="-223" width="487" height="140" y="-84" clip-path="url(#clipPath2)" stroke="none"/>
    </g>
    <g text-rendering="geometricPrecision" stroke-miterlimit="1.45" shape-rendering="geometricPrecision" font-family="sans-serif" transform="matrix(1,0,0,1,223,84)" stroke-linecap="butt">
      <text x="151.7997" xml:space="preserve" y="35.5324" clip-path="url(#clipPath2)" stroke="none">Decision 3</text>
      <text x="155.2685" xml:space="preserve" y="-27.8605" clip-path="url(#clipPath2)" stroke="none">Based on</text>
      <text x="137.8105" xml:space="preserve" y="-13.8917" clip-path="url(#clipPath2)" stroke="none">command type</text>
      <rect x="117.6317" y="-68.4544" clip-path="url(#clipPath2)" fill="none" width="130.8732" rx="4" ry="4" height="86.8481"/>
      <text x="-12.6864" xml:space="preserve" y="35.5324" clip-path="url(#clipPath2)" stroke="none">Decision 2</text>
      <text x="-9.2176" xml:space="preserve" y="-27.8605" clip-path="url(#clipPath2)" stroke="none">Based on</text>
      <text x="-23.1541" xml:space="preserve" y="-13.8917" clip-path="url(#clipPath2)" stroke="none">direction type</text>
      <rect x="-46.8544" y="-68.4544" clip-path="url(#clipPath2)" fill="none" width="130.8732" rx="4" ry="4" height="86.8481"/>
      <text x="-173.5596" xml:space="preserve" y="35.5324" clip-path="url(#clipPath2)" stroke="none">Decision 1</text>
      <text x="-171.9981" xml:space="preserve" y="-27.8605" clip-path="url(#clipPath2)" stroke="none">Based on </text>
      <text x="-187.5488" xml:space="preserve" y="-13.8917" clip-path="url(#clipPath2)" stroke="none">command type</text>
      <rect x="-207.7276" y="-68.4544" clip-path="url(#clipPath2)" fill="none" width="130.8732" rx="4" ry="4" height="86.8481"/>
      <path fill="none" d="M83.9992 -25.0304 L109.6188 -25.0304" clip-path="url(#clipPath2)"/>
      <path d="M117.6188 -25.0304 L105.6188 -30.0304 L108.6188 -25.0304 L105.6188 -20.0304 Z" clip-path="url(#clipPath2)" stroke="none"/>
      <path fill="none" d="M-76.8185 -25.0304 L-54.866 -25.0304" clip-path="url(#clipPath2)"/>
      <path d="M-46.866 -25.0304 L-58.866 -30.0304 L-55.866 -25.0304 L-58.866 -20.0304 Z" clip-path="url(#clipPath2)" stroke="none"/>
    </g>
  </g>
</svg>
