<svg xmlns="http://www.w3.org/2000/svg" color-interpolation="auto" stroke="#000" stroke-linecap="square" width="487" stroke-miterlimit="10" height="140" font-family="'Dialog'" font-size="12"><defs><clipPath clipPathUnits="userSpaceOnUse" id="a"><path d="M-223-84h487V56h-487V-84Z"/></clipPath></defs><path clip-path="url(#a)" stroke="none" d="M-223-84h487V56h-487z" transform="translate(223 84)" fill="#fff" text-rendering="geometricPrecision" shape-rendering="geometricPrecision"/><g text-rendering="geometricPrecision" stroke-miterlimit="1.45" shape-rendering="geometricPrecision" font-family="sans-serif" transform="translate(223 84)" stroke-linecap="butt"><text x="151.8" xml:space="preserve" y="35.532" clip-path="url(#a)" stroke="none">Decision 3</text><text x="155.268" xml:space="preserve" y="-27.86" clip-path="url(#a)" stroke="none">Based on</text><text x="137.81" xml:space="preserve" y="-13.892" clip-path="url(#a)" stroke="none">command type</text><rect x="117.632" y="-68.454" clip-path="url(#a)" fill="none" width="130.873" rx="4" ry="4" height="86.848"/><text x="-12.686" xml:space="preserve" y="35.532" clip-path="url(#a)" stroke="none">Decision 2</text><text x="-9.218" xml:space="preserve" y="-27.86" clip-path="url(#a)" stroke="none">Based on</text><text x="-23.154" xml:space="preserve" y="-13.892" clip-path="url(#a)" stroke="none">direction type</text><rect x="-46.854" y="-68.454" clip-path="url(#a)" fill="none" width="130.873" rx="4" ry="4" height="86.848"/><text x="-173.56" xml:space="preserve" y="35.532" clip-path="url(#a)" stroke="none">Decision 1</text><text x="-171.998" xml:space="preserve" y="-27.86" clip-path="url(#a)" stroke="none">Based on </text><text x="-187.549" xml:space="preserve" y="-13.892" clip-path="url(#a)" stroke="none">command type</text><rect x="-207.728" y="-68.454" clip-path="url(#a)" fill="none" width="130.873" rx="4" ry="4" height="86.848"/><path fill="none" d="M84-25.03h25.619" clip-path="url(#a)"/><path d="m117.619-25.03-12-5 3 5-3 5Z" clip-path="url(#a)" stroke="none"/><path fill="none" d="M-76.819-25.03h21.953" clip-path="url(#a)"/><path d="m-46.866-25.03-12-5 3 5-3 5Z" clip-path="url(#a)" stroke="none"/></g></svg>