<svg width="697pt" height="124pt" viewBox="0 0 696.5 123.93" xmlns="http://www.w3.org/2000/svg"><g class="graph" transform="translate(4 119.927)"><path fill="#fff" stroke="transparent" d="M-4 4v-123.927h696.501V4H-4z"/><g class="node"><path fill="#d3d3d3" stroke="#000" d="M12-32.127h284.376c6 0 12-6 12-12v-12c0-6-6-12-12-12H12c-6 0-12 6-12 12v12c0 6 6 12 12 12"/><text text-anchor="middle" x="154.188" y="-46.027" font-family="Times,serif" font-size="14">3a924d98-93d6-4c58-b358-0c569818aa9f</text></g><g class="node"><path fill="#d3d3d3" stroke="#000" d="M398.356-32.127h278.145c6 0 12-6 12-12v-12c0-6-6-12-12-12H398.356c-6 0-12 6-12 12v12c0 6 6 12 12 12"/><text text-anchor="middle" x="537.429" y="-46.027" font-family="Times,serif" font-size="14">9400-b382-3a924dc2-c569818aac9-4c82</text></g><g class="edge"><path fill="none" stroke="red" stroke-width="1.8" d="M154.188-68.127c0-39.505 329.852-42.36 377.526-8.564"/><path fill="red" stroke="red" stroke-width="1.8" d="m534.79-78.388 2.639 10.261-8.462-6.375 5.822-3.886z"/><text text-anchor="middle" x="347.366" y="-103.327" font-family="Times,serif" font-size="14">encrypt</text></g><g class="edge"><path fill="none" stroke="#00f" stroke-width="1.8" d="M537.429-32.127c0 39.505-329.852 42.36-377.526 8.565"/><path fill="#00f" stroke="#00f" stroke-width="1.8" d="m156.827-21.866-2.639-10.26 8.462 6.375-5.823 3.885z"/><text text-anchor="middle" x="347.366" y="-5.327" font-family="Times,serif" font-size="14">decrypt</text></g></g></svg>