<svg xmlns="http://www.w3.org/2000/svg" width="199.688" height="157.233" version="1.0"><path transform="matrix(.2921 0 0 .2921 -27.985 1.793)" d="M128.818 164.718c1.734-3.799 2.133-7.798 2.387-11.892.35-3.43-1.454-5.773-2.844-8.466.517.234-.358 2.56-.52 3.723-.96 6.835-.48 13.77-.07 20.63.602 7.561 1.358 15.108 2.028 22.663.984 4.069.072 6.725-1.466 10.075-4.403.407-5.149-2.056-7.341-5.466-2.05-4.206-1.51-7.499-.11-11.701 3.065-4.85 8.092-7.433 12.897-10.242 5.101-2.804 10.5-4.979 15.904-7.113 7.687-3.388 1.778-.773 5.655 2.167-2.188.173-4.014 1.394-5.977 2.19-3.238 1.643-4.568 4.458-6.253 7.392-1.574 2.516 1.058 2.266 1.213 2.598 3.413-.815 5.45-3.442 7.878-5.705 2.06-2.022 2.84-4.67 3.891-7.202 5.583 1.32 4.575 1.816 4.243 6.42-.039 2.869.692 5.642 1.222 8.429-.212.262.973 1.451 1.033 1.54l-.32.671c-.102-.033-2.736-.29-2.587-.823-2.33-3.082-4.327-5.484-4.158-9.782.203-5.239-.688-7.754 5.331-5.242-1.467 3.213-2.545 6.591-5.216 9.14-3.418 3.371-6.64 6.636-11.668 7.177-4.964-1.802-6.136-3.512-5.051-8.966 2.063-3.995 4.256-7.38 8.37-9.596 2.662-1.119 5.205-2.566 8.185-2.647 2.113 5.83.561 4.366-4.343 6.084-5.248 2-10.472 4.076-15.43 6.739-4.107 2.375-8.446 4.528-11.32 8.443-.54 2.984-1.952 5.16-.023 8.257.967 1.405 3.107 3.222 1.346 3.985-.102-2.15-.041-4.313-.306-6.448-.66-7.59-1.387-15.175-1.948-22.774-.452-7.28-.921-14.638.162-21.885 1.576-4.884 2.495-7.5 7.82-5.7 2.187 3.683 4.202 6.931 3.832 11.565-.43 4.678-.962 9.21-3.395 13.37l-3.05-1.608zM176.272 171.471c.598 3.466.773 6.975 1.012 10.472.14 1.248-.533 2.391-.788 3.533l-.502.264c-.685-.968-2.238-1.734-2.294-3.243-.725-3.454-1.596-6.894-1.705-10.458l4.277-.568zM181.625 140.817c1.92 5.135 2.815 10.559 3.838 15.92 1.208 7.266 2.205 14.565 3.241 21.858.473 2.853.412 5.752.489 8.634l-.679.434c-1.863-2.551-3.803-4.865-4.087-8.357-1.321-7.229-2.475-14.482-3.554-21.752-.939-5.115-1.859-10.235-3.185-15.268l3.937-1.469zM196.917 172.911c.568 2.99.608 6.035.75 9.063.215 1.088-.404 2.06-.602 3.07l-.707.431c-.66-.903-2.266-1.51-2.189-3-.56-2.956-1.176-5.899-1.346-8.918l4.094-.646zM202.3 169.137c1.098 2.895 2.167 5.8 3.25 8.7 2.267 2.365-.632.256-1.35.546 1.167-2.82 2.82-5.361 4.363-7.967 3.161-4.022 5.28-3.067 9.513-2.494 3.16 2.26 4.244 5.668 5.702 9.056.618 2.128.886 4.367 1.229 6.533l-.52.725c-2.137-1.606-4.46-2.364-5.213-5.492-1.08-2.197-1.95-4.55-3.747-6.29-.282.09-2.731-1.246-2.795.904-1.575 2.55-3.158 5.079-4.395 7.829-4.062 1.375-4.566 3.121-7.22-1.66-1.034-2.894-2.056-5.793-3.111-8.68l4.294-1.71zM242.114 168.653c-2.42-1.99-3.423.146-5.419.622-2.38 2.449-1.688 5.152-1.933 8.065.34 2.063 2.018.038 2.854.053 2.58-1.29 2.9-3.655 4.006-5.92 4.202-3.97-8.261-4.22 5.215-3.706.873 3.834 1.99 7.607 3.055 11.39 1.831 5.304 2.272 10.553 1.912 16.053-2.479 6.629-6.825 6.774-13.054 6.298-4.566-1.254-7.523-4.554-10.858-7.62l.575-.718c3.48 1.852 6.72 3.984 10.803 4.28 3.48-.36 5.53.249 7.423-3.078.036-4.69.031-9.295-1.708-13.85-1.073-3.848-2.173-7.689-3.142-11.564 6.675-.995 4.995-1.99 4.67 3.825-1.712 3.782-2.835 7.14-6.9 9.15-4.94.542-7.143 1.554-9.523-3.858.208-4.7-.03-8.736 3.729-12.377 4.196-2.297 6.8-3.129 11.046-.198l-2.75 3.153zM175.22 156.215c.278 2.014-.349 4.058-.56 5.945-.8-.829-1.236.21-1.393.237l-.038.71c-.406-.12-2.662 1.083-2.753-.811-.258-1.968-1.083-4.09-.629-6.22l5.373.139zM196.834 156.23c.653 2.302-.774 3.993-1.315 5.964l-.323.496-1 .219-.53-.45c-.766-1.976-2.435-3.528-1.978-5.977l5.146-.253z" style="fill:#000;fill-opacity:1;stroke-width:1;stroke-miterlimit:4;stroke-dasharray:none"/><path transform="matrix(.2921 0 0 .2921 -27.146 1.793)" d="M101.601 104.93c-1.677 4.804-2.868 9.738-4.019 14.686-1.305 4.54-1.017 8.973-.475 13.482.43.444 1.918-1.485 2.794-2.164 2.04-2.707 4.732-4.252 7.474-5.925 3.871.205 5.637 3.017 8.073 5.724 2.64 3.237 4.946 2.177 8.232 2.346 4.269-2.828 5.138-7.193 6.434-11.85 1.42-7.05.397-13.99-.875-20.938-.332-3.029-1.994-5.561-3.128-8.238l.555-.914c3.18 2.237 5.888 3.663 6.76 8.16 1.56 7.617 2.674 15.178 1.067 22.944-1.834 6.285-3.292 11.994-9.652 15.078-5.027.51-8.676.206-12.386-3.788-1.323-1.471-2.864-2.92-3.932-4.554-1.877 1.519-4.418 2.835-5.923 5.024-4.075 2.533-5.71 4.44-9.284.18-.427-5.157-.82-10.21.755-15.344 1.251-5.089 2.457-10.209 4.697-14.981l2.833 1.072zM143.61 122.314c.474 2.672 1.378 5.225 2.147 7.815.242.755.729 1.41 1.093 2.115-5.82 1.935-4.315.238-4.296-4.028.062-3.917 1.368-7.544 2.484-11.227 1.264-3.681 3.851-5.082 6.859-6.994 2.612-.995 5-.133 7.573.342l-.004.791c-1.877.837-3.95 1.281-5.6 2.626-1.563 1.583-3.682 2.521-4.295 4.961-.984 3.189-2.143 6.336-2.196 9.735-.079 4.29.89 4.95-4.371 6.336-.358-1.175-.846-2.331-1.081-3.55-.62-2.772-1.36-5.524-1.706-8.351l3.394-.57zM171.116 114.385c.394 3.185.47 6.391.588 9.594.959 1.459-.916 3.08-1.127 3.787l-.338.038-.023.515-.71.021c-.573-1.218-2.563-2.206-1.924-4.094-.233-3.152-.468-6.305-.648-9.461l4.182-.4zM184.893 91.747c.364 5.059-.046 10.138-.308 15.193a682.508 682.508 0 0 1-.978 16.219c-.139 1.494-.519 2.95-.778 4.422l-.863.087c-.494-1.461-1.272-2.847-1.49-4.403-.639-5.513-.797-11.017-.333-16.566.267-4.835.584-9.674.562-14.519l4.188-.433z" style="fill:#000;fill-opacity:1;stroke-width:1;stroke-miterlimit:4;stroke-dasharray:none"/><path transform="matrix(.2921 0 0 .2921 -27.146 1.793)" d="M178.324 118.41c4.088-2.247 8.516-3.626 12.964-4.93 1.837-.485 3.703-.842 5.554-1.263l.087.204c-1.59 1.04-3.1 2.209-4.773 3.123-3.957 2.192-7.984 4.238-12.054 6.222l-1.778-3.356zM200.018 112.41c2.535.824 4.917.01 7.379-.3 1.673-.034 2.142-2.005 2.968-2.779.076 1.317-.984.492-1.884.94-3.602.606-5.136 3.09-7.35 5.575-1.935 3.729-.848 5.616.733 8.92 2.87 2.595 6.607 3.059 10.226 3.946 1.639.636 3.383.141 5.04.21l.312.847c-1.786.74-3.359 2.317-5.483 2.27-5.398.142-9.935-.278-13.97-4.39-2.748-5.088-3.834-9.002-.759-14.447 3.102-3.765 5.863-6.76 10.964-7.513 4.018.75 6.169.351 6.429 5.16-1.846 2.23-2.8 4.664-6.113 5.352-3.154.36-6.162.985-9.3-.174l.808-3.617zM268.231 116.563c-1.584-2.39-3.973-2.57-6.273-3.49-3.443.195-5.294 2.498-7.706 4.578-2.462 1.894-1.61 4.646-2.005 6.738 1.795.019 3.251-1.122 4.84-1.72 2.319-1.68 4.556-3.554 6.728-5.389 4.483-.133 4.984 2.064 6.61 5.778.945 2.707 1.675 5.49 2.454 8.25l-1.172.684c-2.042-2.213-4.345-4.265-5.665-7.027.061-1.222-3.015-3.725.16-3.213-2.178 1.783-4.429 3.722-6.887 5.194-4.668 1.955-7.523 2.965-11.43-.775-.164-4.515-.554-7.899 3.088-11.629 3.511-3.222 6.567-5.825 11.6-5.784 3.36 1.242 6.477 1.895 8.705 5.13l-3.047 2.675zM170.192 100.55c-.08 2.045-1.184 3.778-1.886 5.622l-.66.076c-.833-1.918-2.503-3.52-2.142-5.895l4.688.197z" style="fill:#000;fill-opacity:1;stroke-width:1;stroke-miterlimit:4;stroke-dasharray:none"/><path transform="matrix(.2921 0 0 .2921 -22.102 1.793)" d="M127.801 220.57a940.087 940.087 0 0 0-.204 14.6c-.033 5.76.006 11.517-.167 17.272.119 1.889-1.098 3.447-1.621 5.09l-1.02-.143c-.53-1.603-1.52-3.104-1.604-4.861-.403-5.788-.606-11.582-.496-17.388.048-4.938.064-9.879.404-14.807l4.708.237z" style="fill:#000;fill-opacity:1;stroke-width:1;stroke-miterlimit:4;stroke-dasharray:none"/><path transform="matrix(.2921 0 0 .2921 -22.102 1.793)" d="M113.508 248.577c4.974-1.638 10.028-3.01 15.072-4.41 4.222-1.452 8.653-1.74 13.056-2.16l.36.975c-3.83 2.384-7.59 4.814-12.084 5.834-4.915 1.468-9.848 2.88-14.737 4.435l-1.667-4.674z" style="fill:#000;fill-opacity:1;stroke-width:1;stroke-miterlimit:4;stroke-dasharray:none"/><path transform="matrix(.2921 0 0 .2921 -22.102 1.793)" d="M148.816 241.984c2.837-.946 4.578-3.232 6.665-5.105 1.523-1.716-.411-.907-.519-1.144-2.98-.082-4.9 1.816-7.234 3.303-2.885 1.945-2.91 4.622-3.618 7.318 2.204 1.18 4.725.786 7.113.936 4.468.006 8.686-1.206 12.932-2.405l.083.173c-3.993 2.532-7.94 5.198-12.633 6.27-5.316.54-9.695 1.123-12.45-4.253.252-4.95 1.557-8.517 5.612-11.847 3.86-2.565 7.1-4.706 11.926-3.744 2.74 2.975 4.645 3.738 2.11 8.096-2.598 2.345-4.964 4.787-8.469 5.869l-1.518-3.467zM176.18 237.486c-2.57.624-5.07 1.483-7.59 2.27-.863.597.177-2.09.266-3.134 3.717.76 7.362 1.779 11 2.847 5.246 1.05 6.34 3.7 8.575 7.574-1.484 5-5.48 6.262-10.015 7.84-5.325 1.421-6.427-.415-9.163-3.82l.257-1.647 1.098-.07.419.913c1.822.112 3.93 1.026 5.923-.119 2.034-.87 4.533-1.823 6.236-2.845-1.624-.986-3.02-3.376-4.873-2.956-3.619-1.027-7.221-2.102-10.914-2.853-2.092-2.97-4.974-3.634-.223-6.344 2.786-.661 5.538-1.513 8.411-1.734l.593 4.078zM194.94 216.12c1.58 4.654 2.34 9.523 3.2 14.345 1.177 4.63.907 9.197.617 13.848.271.256-.727 2.086-.814 2.335l-.9-.078c-.262-.688-.495-1.387-.786-2.065-1.24-4.347-2.411-8.674-2.914-13.205-.858-4.56-1.661-9.141-2.954-13.604l4.551-1.576z" style="fill:#000;fill-opacity:1;stroke-width:1;stroke-miterlimit:4;stroke-dasharray:none"/><path transform="matrix(.2921 0 0 .2921 -22.102 1.793)" d="M183.862 235.953c5.703-1.9 11.464-3.619 17.216-5.362 4.683-1.743 9.48-2.602 14.383-3.236.626-.034 1.253-.007 1.879-.01l.427.707c-.078.093-1.143 1.842-1.377 1.646-4.365 2.566-8.742 4.746-13.826 5.797-5.747 1.752-11.49 3.516-17.25 5.223l-1.452-4.765z" style="fill:#000;fill-opacity:1;stroke-width:1;stroke-miterlimit:4;stroke-dasharray:none"/><g style="fill:#000"><path style="opacity:1;fill:#000;fill-opacity:1;stroke-width:1;stroke-miterlimit:4;stroke-dasharray:none" d="M561.443 119.826c-.066 4.26-.026 8.52.036 12.778-.002 2.341.4 4.656.645 6.969-7.407.152-4.513-4.386-3.818-10.007.92-7.41 2.46-14.708 4.074-21.989 1.538-6.72 1.908-8.608 8.067-8.436 1.889 3.363 2.764 7.227 3.92 10.902.468.798.715 1.706 1.073 2.559-.534-.547 1.33-3.426 1.886-4.502 1.221-4.312 3.285-4.645 6.6-6.217 3.569 2.19 4.092 5.86 5.325 9.632 1.379 4.639 2.444 9.363 3.531 14.076.98 2.894 1.077 5.968 1.408 8.907.565 1.031-.834.768-1.006.926l-.024 1.083c-.691-.293-1.9.052-2.318-.984-1.125-2.816-2.633-5.608-2.877-8.817-1.113-4.59-2.18-9.194-3.5-13.73-.54-1.624-2.613-5.71-1.407-6.063-.372 1.12-.455 2.382-1.115 3.362-1.525 3.032-2.497 6.012-5.82 7.428-3.403-1.422-5.296-1.77-6.441-6.051-.917-2.954-1.936-5.914-2.672-8.904.014 1.976 1.114 4.267.043 5.928-1.586 7.106-3.09 14.236-3.88 21.485-.64 5.784 1.186 10.275-5.917 9.967-.057-2.49-.115-4.98-.157-7.47.032-4.298.073-8.595.145-12.892l4.2.06z" transform="matrix(.2921 0 0 .2921 -26.098 3.874)"/><path style="opacity:1;fill:#000;fill-opacity:1;stroke-width:1;stroke-miterlimit:4;stroke-dasharray:none" d="M612.03 120.22c1.63-2.159-1.563-2.7-2.035-3.515-3.75-.369-5.843 1.945-8.662 3.904-3.016 2.792-3.457 5.871-3.787 9.531.948 1.867 3.253-.038 4.543-.053 2.903-1.153 3.716-3.663 5.234-6 1.226-3.865 1.982-1.795 5.825-.613.176 2.38.94 4.638 1.513 6.933.527 1.25.826 2.896 1.153 4.044-1.368.548 1.626-2.208 2.12-2.88 2.587-4.692 3.359-10.001 4.304-15.194.665-4.423.999-8.884 1.367-13.337 3.85-2.798 4.452.498 4.261 4.883-.37 5.76-.255 11.517-.051 17.277.532 1.786-.138 3.726-.206 5.589-2.813.584.954-4.611 1.656-6.098 1.685-4.135 4.75-7.14 7.69-10.326 2.16-2.273 5.003-2.78 7.735-3.738.379-.177.998.317 1.306.414l.51 2.522c-.06.126.027 1.033-.427.9-1.925 1.188-3.918 2.313-5.725 3.688-2.522 2.68-5.093 5.226-6.517 8.743-1.707 3.678-2.615 7.283-6.474 9.046-3.189-3.288-4.858-4.881-4.385-10.53-.168-5.922-.274-11.847.161-17.763.384-5.02 1.195-5.873 4.438-3.984-1.107 4.402-2.195 8.814-3.613 13.13-1.67 5.081-3.366 10.155-5.349 15.126-1.403 3.158-1.537 5.07-5.116 5.249-1.258-1.659-3.204-2.81-3.53-5.196-.829-2.622-1.784-5.213-2.013-7.983 8.364-2.273 2.941-1.992 4.115 2.11-2.205 3.658-3.957 7.055-8.27 8.734-5.112 1.178-8.807 1.46-11.116-4.068.189-5.425 1.463-9.704 5.549-13.68 4.272-3.156 7.982-5.845 13.565-4.45 3.045 3.055 5.41 4.026 3.764 9.024l-3.533-1.44z" transform="matrix(.2921 0 0 .2921 -26.098 3.874)"/><path style="opacity:1;fill:#000;fill-opacity:1;stroke-width:1;stroke-miterlimit:4;stroke-dasharray:none" d="M639.512 122.25c-.527 2.816 1.065 4.576 2.103 6.808 1.64 1.494 3.816 1.648 5.813 2.23.832.156 1.588-.226 2.382-.34l.29.47c-.726.67-1.214 1.597-2.178 2.01-4.118 1.03-6.439 1.95-10.082-1.296-1.696-3.468-3.589-6.147-2.555-10.328l4.227.446zM656.876 123.892c3.795-.561 7.244-2.13 10.764-3.516 1.881.324 3.201-3.337 3.22-3.356-1.84-.77-3.715.158-5.533.31-4.285 1.711-4.945 4.76-6.448 8.553-.127 4.809 2.446 6.36 5.636 9.174 4.244 2.162 8.35 1.991 12.9 1.426l.3.775c-5.296 2.749-9.909 4.607-15.813 2.138-5.26-3.965-8.665-7.47-8.086-14.605 1.992-5.738 4.105-10.049 10.277-12.223 4.999-.735 8.202-1.09 11.375 3.304-1 4.249-1.186 6.533-5.983 8.58-3.952 1.539-7.903 2.998-12.208 3.139l-.401-3.699zM712.234 104.064c.411 5.428.306 10.877.297 16.315.092 5.87-.118 11.71-.814 17.523.028 1.448-.825 2.686-1.225 3.988l-.93-.054c-.43-1.28-1.164-2.483-1.301-3.864-.865-5.827-1.046-11.682-.908-17.593-.029-5.277.044-10.565-.339-15.832l5.22-.483z" transform="matrix(.2921 0 0 .2921 -26.098 3.874)"/><path style="opacity:1;fill:#000;fill-opacity:1;stroke-width:1;stroke-miterlimit:4;stroke-dasharray:none" d="M692.194 120.908c4.632-.128 8.628-2.072 12.696-4.038 4.833-2.638 7.91-6.773 10.84-11.254 1.48-3.194 2.818-6.542 4.083-9.783 7.233.631 5.007 7.838 5.085 13.648.067 6.807.239 13.61.534 20.41.495.915-.62 1.986-.93 2.979 2.052-2.078 4.093-4.167 6.128-6.26 3.71-3.594 5.185-2.189 9.083-.793 1.72 2.594 1.607 5.595 1.99 8.536.81 1.813-.808 3.378-1.132 4.731l-.32.076-.407.66-.729-.177c-.882-1.53-2.616-2.537-2.31-4.755-.367-1.864-.643-3.754-1.176-5.579-.432.383-.803.85-1.298 1.149-2.418 2.49-4.714 5.162-7.48 7.266-5.379-.366-6.42-1.665-6.59-7.585a1112.45 1112.45 0 0 1-.435-20.579c-.11-6.647-2.707-9.805 3.857-10.379-.3.82-2.37 6.805-3.766 8.971-3.497 5.156-7.133 9.934-12.783 12.956-4.787 2.246-9.473 4.448-14.907 4.393l-.033-4.593zM748.189 123.452c3.818-.301 6.832-2.343 10.056-4.106 2.786-1.173 2.174-3.612 2.775-5.31-1.5-.77-2.644 1.06-3.77 1.511-3.167 3.626-3.272 7.552-3.219 12.102.89 5.162 3.934 6.33 7.977 8.452 3.695 1.38 6.934.172 10.513-.474l.471.78c-3.857 2.862-7.232 5.083-12.344 4.526-6.52-2.59-10.597-5.427-11.91-12.895.112-6.385.49-11.942 5.438-16.647 5.001-2.59 7.695-3.434 11.563 1.214-.374 4.622-.265 7.711-4.87 10.682-3.871 2.249-7.697 4.311-12.281 4.656l-.4-4.491zM571.443 170.535c-1.587 6.505-2.137 13.202-2.78 19.849-.612 8.513-2.04 16.927-3.45 25.333l-.783-.048c-.448-8.546-1.099-17.113-.389-25.665.478-7.019.942-14.097 2.704-20.935l4.698 1.466z" transform="matrix(.2921 0 0 .2921 -26.098 3.874)"/><path style="opacity:1;fill:#000;fill-opacity:1;stroke-width:1;stroke-miterlimit:4;stroke-dasharray:none" d="M557.916 190.438c-1.896 1.127-3.403 2.74-5.067 4.144-.702 1.189-.883-2.62-1.202-3.964 4.393-1.518 8.85-2.832 13.305-4.154 5.426-1.626 10.922-2.968 16.465-4.103 2.35-.803 3.988.541 5.966 1.146l-.162.89c-1.567.84-2.863 2.261-4.726 2.532-5.33 1.603-10.684 3.122-16.03 4.67-4.435 1.344-8.869 2.69-13.273 4.133-1.167-.82-7.44-1.377-3.515-4.82 1.957-1.348 3.837-2.815 5.974-3.889l2.265 3.415zM581.66 195.277c4.27-1.261 8.3-3.112 12.313-5.001 2.593-.752 4.422-3.237 6.114-4.692 1.565 3.33-1.224 1.537-2.525 3.17-4.022 1.696-6.76 4.757-9.477 8.013-2.94 1.772-.423 4.545-.527 5.666 3.508 1.356 7.03.549 10.614-.026 4.926-.887 9.24-3.15 13.493-5.646 2.85-1.426 4.009-3.955 5.589-6.381.24.2-.721 1.627-1.018 2.299-2.5.915-4.826 2.21-7.207 3.374-1.003-.282.618-1.99.927-2.986 4.46.358 8.694 1.56 12.914 2.936 5.49 2.55 6.049 5.24 4.494 10.502-3.475 3.661-7.692 4.202-12.45 4.478-5.788-1.158-5.195-2.92-5.516-7.606.945-1.845 2.853-2.812 4.263-4.2l.344.297c-.585 1.481-1.942 2.804-1.798 4.55.573.403.756 3.129 2.72 1.915 2.818-.412 5.575-.405 7.894-2.403-.617-.851-.819-2.354-1.851-2.555-3.872-1.162-7.695-2.483-11.796-2.701-3.527-2.076-7.095-2.866-2.38-6.768 2.728-1.165 5.423-2.446 8.32-3.147 3.04 1.048 5.17-.943 4.045 3.525-2.42 1.735-4.908 3.37-7.045 5.47-3.96 3.46-7.909 6.997-12.83 9.049-5.36 1.588-10.152 2.998-15.313-.064-3.064-4.678-3.47-7.764-.053-12.769 3.42-3.974 6.88-7.726 11.907-9.7 4.64-.831 8.313-2.433 9.057 3.664-2.468 3.012-4.796 5.733-8.73 7.183-4.268 1.958-8.551 3.9-13.107 5.12l-1.384-4.566zM638.456 176.231c-.141 4.886.006 9.774.113 14.659.292 4.931.03 9.843-.257 14.754.256 1.525-1.288 2.435-1.823 3.446l-.853-.302c-.445-.873-1.776-1.793-1.582-3.101-.412-4.878-.791-9.758-.775-14.666-.124-4.986-.293-9.977-.083-14.963l5.26.173z" transform="matrix(.2921 0 0 .2921 -26.098 3.874)"/><path style="opacity:1;fill:#000;fill-opacity:1;stroke-width:1;stroke-miterlimit:4;stroke-dasharray:none" d="M626.104 194.087c4.678-1.466 9.439-2.62 14.204-3.758 3.996-.863 8.108-.716 12.171-.7l.2.988c-3.67 1.563-7.307 3.245-11.116 4.437-4.638 1.366-9.287 2.7-13.908 4.125l-1.551-5.092zM694.659 197.458c-1.708 4.39-2.506 9.006-3.263 13.627.294 4.032-.805 6.926-2.164 10.282-6.182-1.522-5.448-7.19-6.375-12.669-1.2-7.18-1.64-14.438-2-21.695-.36-5.761.688-8.996 4.981-12.39 4.997-.65 7.866 2.013 11.163 5.299 3.364 4.472 1.697 7.426.117 11.9-1.658 2.512-4.364 2.529-6.799 3.498l-.406-.68c1.123-1.695 2.436-3.274 3.268-5.152.181-2.31 1.729-3.832-.276-6.117-1.618-1.308-2.802-3.212-5.032-3.703-.502 1.351-2.803 4.462-1.721 7.173.336 7.026.741 14.056 1.965 20.998 1.213 6.722 3.784 7.966-1.67 8.765.005-2.09-.483-4.24.015-6.268.913-4.956 1.825-9.927 3.907-14.56l4.29 1.692z" transform="matrix(.2921 0 0 .2921 -26.098 3.874)"/><path style="opacity:1;fill:#000;fill-opacity:1;stroke-width:1;stroke-miterlimit:4;stroke-dasharray:none" d="M709.391 185.72c1.371-2.218-1.741-2.96-2.275-3.868-2.987-.084-4.233 1.822-6.215 3.632-2.28 2.76-1.243 5.049-1.026 7.955.904 2.163 3.21.423 4.473.59 2.586-1.38 3.363-3.796 4.565-6.25 1.365-5.318 2.524-4.304 6.737-2.361.49 2.474 1.264 4.872 1.958 7.292-.286 1.425 1.13 2.225 1.626 3.205l-.154.618c-1.617-.59-3.87.16-5.073-1.85-1.423-2.472-3.084-4.757-3.49-7.724 9.693-1.448 1.316-.284 3.355 2.736-2.03 3.844-3.471 7.531-7.833 9.36-4.786.887-8.117.844-11.006-3.684-1.146-4.913-1.163-8.822 1.992-13.161 3.64-3.51 6.708-6.124 12.096-4.872 3.138 3.008 5.619 4.234 4.683 9.338l-4.413-.956zM736.474 180.51c-2.892-.244-5.579.742-8.308 1.346-.407-1.478 1.44-.535 1.857-.69 2.91 1.713 4.822 4.318 6.927 6.82 2.115 4.306.416 6.242-1.626 9.844-3.438 2.653-5.217 1.801-8.695.624-1.548-.927-.32-2.662-.45-3.757l.327-.001c.36.323.472 1.58 1.373 1.233 1.219-.56 2.7-.693 3.706-1.703.257-.968 2.282-2.062.909-3.426-1.78-1.99-3.26-4.276-5.743-5.602-2.653-3.386-4.36-4.797-.35-8.065 3.376-.8 6.702-1.753 10.247-1.392l-.174 4.769zM759.263 172.581c-3.428 1.215-6.558 3.044-9.73 4.775-.097.076.12-.214.18-.32 4.104 1.35 8.213 2.648 12.275 4.118 5.863 2.576 6.65 5.333 5.543 11.06-3.311 4.473-8.239 6.354-13.237 8.275-2.306.816-4.382-.063-6.551-.37l.019-1.394c1.58-.955 3.145-1.938 4.743-2.866 3.59-1.682 7.35-3.203 10.156-6.102-.129-.18.875-4.011-2.64-3.688-4.202-1.552-8.492-2.808-12.71-4.315-2.782-3.767-5.399-4.89-.42-8.81 3.48-1.837 6.913-3.782 10.647-5.09l1.725 4.727z" transform="matrix(.2921 0 0 .2921 -26.098 3.874)"/></g><g style="fill:#000"><path style="opacity:1;fill:#000;fill-opacity:1;stroke-width:1;stroke-miterlimit:4;stroke-dasharray:none" d="M402.099 416.195c-1.818 5.415-2.087 11.169-2.602 16.814-.502 4.47-.713 8.961-.89 13.453-7.205-.296-5.389-1.797-5.341-7.754.03-7.092.216-14.176.528-21.26.176-6.005 1.23-11.816 2.839-17.565 1.071-4.062 3.769-6.554 6.549-9.344 4.05-2.127 5.908-.577 9.398 1.28 2.868 3.81 2.392 7.515 1.799 11.97-1.138 5.346-4.037 9.893-6.884 14.453-2.484 2.776-4.255 6.074-6.175 9.147.354 2.323 2.953 3.16 4.748 4.437 4.725 2.597 9.847 4.32 14.899 6.15 1.822 1.174 3.937 1.315 5.942 1.813l.26.933c-2.433.782-4.498 2.278-7.332 1.626-5.757-1.293-11.424-2.874-16.58-5.893-4.52-3.082-7.694-5.083-7.062-10.97 2.021-3.543 4.032-7.043 6.785-10.151 2.494-3.966 5.08-7.905 6.119-12.551.262-2.45 1.021-4.738-.261-7.044-.691-.21-1.484-1.835-2.544-.774-1.79 2.021-3.89 3.708-4.545 6.605-1.52 5.28-2.432 10.644-2.646 16.161-.293 6.997-.48 13.994-.41 20.999.042 5.974 1.982 9.048-5.596 7.339.428-4.506.804-9.017 1.294-13.517.581-6.217.91-12.56 3.009-18.496l4.699 2.14z" transform="matrix(.2921 0 0 .2921 -40.834 23.796)"/><path style="opacity:1;fill:#000;fill-opacity:1;stroke-width:1;stroke-miterlimit:4;stroke-dasharray:none" d="M428.753 424.296c3.24-.388 5.461-2.361 7.98-4.15 2.238-.82 1.922-4.074 2.356-4.993-1.901.038-3.2 1.573-4.734 2.376-3.929 3.783-4.629 8.124-4.81 13.262 1.018 5.29 3.947 6.776 8.647 8.293 4.678.789 8.639-.734 12.884-2.347l.538.832c-4.472 3.34-8.393 6.385-14.335 6.09-7.206-2.146-11.668-4.566-13.03-12.676.466-6.913 1.46-12.705 6.96-17.61 4.687-2.71 8.46-4.842 12.63-.112-.135 4.463.164 7.336-3.862 10.679-3.306 2.457-6.459 4.662-10.734 4.955l-.49-4.599z" transform="matrix(.2921 0 0 .2921 -40.834 23.796)"/><path style="opacity:1;fill:#000;fill-opacity:1;stroke-width:1;stroke-miterlimit:4;stroke-dasharray:none" d="M454.05 418.89c2.605-2.805 3.506-6.299 4.495-9.873 1.262-4.8-.279-8.74-1.777-13.102-1.792-3.792-2.815 1.166-3.706 1.534-2.34 7.395-1.662 15.218-1.082 22.835.764 8.82 2.307 17.54 3.9 26.24 1.405 6.164 1.398 7.934-3.791 10.306-3.724-1.812-5.51-5.336-7.717-8.621-2.645-4.973-1.857-7.635.993-12.099 5.617-4.67 12.575-7.304 19.238-10.128 6.725-2.823 13.579-5.322 20.393-7.914 4.357-3.027.19.174 2.111 1.926-3.156-.223-5.354 1.546-7.934 2.944-3.38 2.618-3.89 6.022-4.853 9.832.04.897.384 1.754.577 2.631 1.758-1.767 2.822-4.028 4.097-6.136 1.214-4.496 3.401-5.363 6.69-7.423 3.415 2.16 3.54 5.573 4.478 9.256 1.05 3.39 2.776 3.792 5.609 5.21l-.003.885c-4.93-.06-7.746.588-10.531-4.403-.41-1.364-3.528-7.358-.15-5.494-.478 1.496-.508 3.218-1.432 4.488-2.166 3.74-3.99 7.31-8.246 8.89-4.42-2.184-6.457-2.375-6.211-8.526 1.102-5.302 2.544-9.897 7.032-13.41 3.802-2.255 7.284-4.24 11.893-3.811 4.557 3.327 3.812 5.49-1.32 7.843-6.806 2.465-13.638 4.872-20.311 7.683-6.002 2.527-12.213 4.95-17.42 8.936-.58 2.518-2.865 3.103-.41 6.307 1.4 2.086 2.737 4.397 4.476 6.126-.734-1.468-2.438-2.779-2.203-4.403-1.564-8.88-3.112-17.773-3.902-26.763-.638-8.601-1.392-17.408 1.614-25.666 4.177-4.956 7.63-7.302 12.597-1.393 2.224 5.458 3.529 10.605 2.139 16.57-1.28 4.447-2.491 8.76-5.82 12.192l-3.512-3.47z" transform="matrix(.2921 0 0 .2921 -40.834 23.796)"/><path style="opacity:1;fill:#000;fill-opacity:1;stroke-width:1;stroke-miterlimit:4;stroke-dasharray:none" d="M508.439 421.503c-.34-2.898-2.778-.527-3.66-.694-3.53 2.443-4.084 5.991-5.27 9.712 1.029 4.516 2.902 4.168 7.016 5.386 6.67.323 12.319-2.296 18.06-5.238l2.674-2.105.413.407-2.206 2.829c-5.884 5.1-11.345 9.278-19.592 9.15-6.842-1.617-11.433-3.293-11.636-11.27 1.486-5.608 3.174-10.4 8.415-13.645 4.726-1.052 7.314-1.248 10.066 3.287l-4.28 2.18z" transform="matrix(.2921 0 0 .2921 -40.834 23.796)"/><path style="opacity:1;fill:#000;fill-opacity:1;stroke-width:1;stroke-miterlimit:4;stroke-dasharray:none" d="M533.064 397.865c-1.83 4.562-1.81 9.449-1.998 14.273-.007 5.562.68 11.065 1.535 16.547.736 5.17-.313 3.783-3.946 4.89-2.212-1.716-4.223-3.665-6.277-5.558-3.196-4.084-1.562-4.592.628-8.346 4.835-2.656 10.29-3.767 15.598-5.07 4.725-1.617 9.144-1.162 13.783-.492 3.385 4.41.349 7.487-2.355 11.537-2.684 2.842-2.577 6.24-3.132 9.517 1.9.554 3.801-.698 5.564-1.263 3.504-1.3 3.92-3.909 5.264-6.592-.463-2.554-2.612-3.634-4.295-5.282-5.302-3.902 1.02-4.344 2.863-5.713 4.525 1.349 8.85 3.253 13.183 5.103 3.738 1.636 7.404 3.426 11.082 5.188 1.705 8.365-4.014 1.31-4.89 1.406-2.356-4.71-1.543-8.664-.147-13.443 2.854-5.476 7.348-7.467 12.882-9.203 2.38-.474 4.625.177 6.94.5l.004 1.675c-1.826.67-3.87.867-5.52 2.023-3.565 1.836-7.096 3.494-9.242 7.057-.75 3.086-1.768 5.488-.158 8.611-.276 1.105 3.4 8.127-2.426 6.119-3.48-1.822-6.968-3.656-10.601-5.176-4.09-1.74-8.167-3.551-12.446-4.786-.114-1.044-3.202-6.574 1.617-3.58 3.202 2.973 6.266 5.224 6.426 10.04-1.385 5.066-3.428 8.458-8.435 10.902-5.302 1.76-9.525 3-12.799-2.541-.125-5.03.85-9.163 3.962-13.385 1.317-2 2.268-5.603 4.448-4.119-3.312-.18-7.049-.61-10.51.606-4.74 1.117-9.577 2.082-14.01 4.164-.039.26-2.824.021-.248 1.675 1.758 1.802 3.38 3.76 5.4 5.296-1.872-.604-2.342 4.208-2.667-.861-1.23-5.77-2.077-11.587-2.057-17.51.252-5.681.22-11.471 2.965-16.633l4.015 2.424z" transform="matrix(.2921 0 0 .2921 -40.834 23.796)"/></g><g style="fill:#32cd32"><path style="opacity:1;fill:#32cd32;fill-opacity:1;stroke-width:1;stroke-miterlimit:4;stroke-dasharray:none" d="M742.37 358.805c-.407 4.218-1.14 8.39-1.845 12.566-1.142 6.108-2.612 12.148-4.015 18.2-1.46 6.563-3.27 13.031-5.17 19.477-1.916 6.188-4.638 12.062-7.358 17.924-2.84 5.984-5.965 11.822-9.115 17.646-2.919 5.388-6.16 10.585-9.42 15.77-2.86 4.559-5.975 8.944-9.12 13.307-2.781 3.871-5.862 7.501-8.997 11.084-2.66 2.99-5.433 5.878-8.18 8.788-2.408 2.642-4.975 5.13-7.518 7.64-2.303 2.16-4.505 4.422-6.714 6.678-1.898 2.146-4.078 3.987-6.22 5.873-2.303 2.112-5.117 2.721-8.01 3.523l-1.353.176-.315-.66.868-.884c1.775-2.102 3.301-4.388 5.637-5.943 1.942-1.844 3.969-3.607 5.74-5.627 2.248-2.285 4.488-4.578 6.827-6.771 2.495-2.458 5.014-4.892 7.377-7.478 2.717-2.87 5.446-5.728 8.091-8.664 3.022-3.47 6.003-6.976 8.718-10.695 3.088-4.272 6.142-8.57 8.974-13.018 3.21-5.088 6.405-10.187 9.278-15.476 3.106-5.737 6.185-11.489 8.978-17.387 2.62-5.649 5.264-11.303 7.126-17.26 1.898-6.33 3.702-12.687 5.13-19.145 1.414-5.959 2.863-11.913 4.025-17.928.716-4.043 1.439-8.085 1.863-12.171l4.717.455z" transform="matrix(.2921 -.00072 .00072 .2921 -50.87 -21.661)"/><path style="opacity:1;fill:#32cd32;fill-opacity:1;stroke-width:1;stroke-miterlimit:4;stroke-dasharray:none" d="M657.8 484.21c-1.364 3.955-2.397 8.009-3.437 12.057-1.07 4.147-1.72 8.38-2.431 12.596-.411 2.745-.754 5.5-1.117 8.25-.057 1.713-.623 3.342-.933 5.003-.173.978-1.221-1.567-1.832-2.35 3.726-1.31 7.573-2.201 11.404-3.137 5.004-1.467 9.965-1.926 15.12-1.628 1.17-.11 2.06.646 3.09.968l-.089.833c-.908.259-1.847.409-2.725.776-4.652 1.667-9.38 2.934-14.232 3.905-3.683.921-7.39 1.787-10.956 3.11-2.807-.678-5.37.394-4.547-3.941.27-1.377.773-2.73.816-4.159.408-2.803.818-5.605 1.248-8.405.763-4.342 1.46-8.7 2.56-12.974 1.085-4.153 2.198-8.298 3.523-12.382l4.539 1.477z" transform="matrix(.2921 -.00072 .00072 .2921 -50.02 -22.67)"/></g><g style="fill:#32cd32"><path style="fill:#32cd32;fill-opacity:1;stroke-width:1;stroke-miterlimit:4;stroke-dasharray:none" d="M296.405 381.262c.69 3.911 1.828 7.723 2.898 11.543 1.452 5.13 3.149 10.185 4.804 15.252 1.651 5.345 3.703 10.543 5.786 15.729 2.19 5.253 4.605 10.405 6.97 15.58 2.226 4.906 4.34 9.862 6.424 14.83 1.94 4.614 4.186 9.076 6.538 13.49 2.402 4.266 4.916 8.47 7.408 12.686 2.189 4.015 4.768 7.787 7.359 11.547 2.646 3.78 5.367 7.506 8.078 11.239 2.586 3.76 5.494 7.274 8.414 10.774 2.915 3.525 5.912 6.98 8.858 10.479 2.477 3.087 5.17 5.987 7.825 8.918 2.79 3.067 5.802 5.915 8.823 8.75 3.12 2.87 6.45 5.499 9.736 8.173 2.828 1.616 4.002 4.27 5.683 6.76.377.326.126.732.189 1.097l-.214.803c-.344.02-1.356.538-1.699.1-2.602-1.356-5.344-2.21-7.31-4.69-3.36-2.744-6.76-5.446-9.957-8.383-3.126-2.928-6.244-5.868-9.13-9.036-2.718-3.002-5.488-5.961-7.985-9.154-2.932-3.498-5.923-6.945-8.83-10.462-2.994-3.588-5.975-7.186-8.606-11.054-2.75-3.75-5.484-7.513-8.144-11.328-2.667-3.873-5.307-7.765-7.552-11.905-2.522-4.27-5.065-8.528-7.496-12.85-2.43-4.571-4.769-9.185-6.737-13.98-2.06-4.919-4.136-9.833-6.31-14.703-2.384-5.232-4.836-10.436-7.015-15.758-2.13-5.299-4.201-10.62-5.857-16.092-1.66-5.139-3.33-10.275-4.803-15.472-1.092-3.986-2.232-7.968-2.986-12.037l4.838-.846z" transform="matrix(.28815 -.04786 .04786 .28815 -80.251 -4.63)"/><path style="fill:#32cd32;fill-opacity:1;stroke-width:1;stroke-miterlimit:4;stroke-dasharray:none" d="M281.441 409.72c.478-5.12 1.879-10.067 3.201-15.014 1.498-5.158 3.061-10.296 4.567-15.451.665-2.766 1.557-5.47 2.367-8.188 2.71-3.588 3.498-1.54 6.609-.813 1.11 1.59 1.8 3.418 2.643 5.153 2.162 3.976 5.326 7.218 8.355 10.525 4.169 3.786 7.735 7.871 10.603 12.688.218-.03 1.105 2.571 1.214 2.825l-.863.72c-.848-.54-1.78-.949-2.545-1.623-4.42-3.296-8.38-7.044-12.175-11.051-3.36-3.696-6.857-7.33-9.217-11.785-.638-1.392-1.225-2.813-1.934-4.17.427-.126 2.198.409 1.936-.572-.794 2.543-1.65 5.087-2.331 7.672-1.58 5.111-3.186 10.215-4.702 15.347-1.27 4.652-2.637 9.3-3.085 14.124l-4.643-.387z" transform="matrix(.28815 -.04786 .04786 .28815 -80.251 -4.63)"/></g><g style="fill:red"><path style="fill:red;fill-opacity:1;stroke-width:1;stroke-miterlimit:4;stroke-dasharray:none" d="M409.109 195.002c4.445-5.07 9.943-9.04 15.386-12.957 10.412-7.302 21.71-13.135 33.209-18.502 15.384-7.018 31.616-11.779 47.966-15.919 17.427-4.327 35.218-6.699 53.082-8.218 17.961-1.51 35.98-.967 53.941.124 17.37 1.082 34.599 3.527 51.712 6.62 14.996 2.749 29.633 6.956 43.983 12.05 10.976 3.924 21.394 9.121 31.29 15.248 5.975 3.61 11.23 8.146 16.24 12.96 2.515 2.104 3.823 4.979 5.435 7.685.416.838-.31 1.663-.442 2.366l-.81.898c-.844-.39-1.967-.362-2.611-1.204-1.562-2.205-3.032-4.486-4.961-6.401-4.698-4.615-9.63-8.962-15.263-12.437-9.585-6.019-19.7-11.108-30.36-14.957-14.111-5.056-28.529-9.206-43.282-11.938-16.932-3.132-33.995-5.534-51.188-6.664-17.756-1.084-35.572-1.65-53.33-.176-17.638 1.5-35.217 3.769-52.425 8.051-16.107 4.047-32.076 8.763-47.234 15.644-11.262 5.263-22.338 10.98-32.543 18.127-5.12 3.665-10.305 7.374-14.462 12.15l-3.333-2.55z" transform="matrix(.27496 -.0038 .00348 .30038 -68.097 -39.373)"/><path style="fill:red;fill-opacity:1;stroke-width:1;stroke-miterlimit:4;stroke-dasharray:none" d="M755.174 164.98c.768 4.527 1.417 9.073 2.077 13.617.648 4.775 1.557 9.506 2.448 14.24.574 2.454 1.072 4.925 1.6 7.39-.394 4.142 2.367.808-3.522 4.064-1.35-1.294-3.145-1.868-4.734-2.756-4.41-1.857-9.133-2.647-13.802-3.54-4.325-.649-8.594-1.612-12.873-2.506l.021-1.206c4.497-.675 8.996-1.363 13.55-.647 5.07.858 10.176 1.656 14.955 3.661 1.855.977 3.892 1.656 5.486 3.088-1.95.384-4.127 4.096-3.363.663-.476-2.466-.932-4.937-1.459-7.394-.858-4.812-1.751-9.62-2.366-14.472-.633-4.516-1.226-9.04-1.97-13.539l3.952-.664z" transform="matrix(.27496 -.0037 .00348 .29207 -66.946 -38.2)"/></g></svg>