<svg id="Layer_1" data-name="Layer 1" xmlns="http://www.w3.org/2000/svg" viewBox="0 0 346.24 239.04"><defs><style>.cls-1{fill:#333e48}</style></defs><path class="cls-1" d="M202.63 395.66V395.45l-28.93-94.74a4.25 4.25 0 0 0-4.05-3h-38.42a4.23 4.23 0 0 0-3.44 1.78 4.34 4.34 0 0 0-.59 3.86l30 92 .8 2.65a4.07 4.07 0 0 0 3.89 2.9h36.83a4.05 4.05 0 0 0 3.3-1.7 4.35 4.35 0 0 0 .58-3.54" transform="translate(-126.98 -296.61)"/><path d="M310.93 299.46a4.23 4.23 0 0 0-3.44-1.78h-38.73a4.25 4.25 0 0 0-4.05 3l-44 144.23a1.67 1.67 0 0 1-3.07 0l-4-13.27-.82-2.79A4 4 0 0 0 209 426h-36.2a4 4 0 0 0-3.24 1.68 4.09 4.09 0 0 0-.56 3.62l32.14 98.44a4.24 4.24 0 0 0 4 2.95h28.09a4.25 4.25 0 0 0 4-2.94l74.24-226.49a4.33 4.33 0 0 0-.59-3.86" transform="translate(-126.98 -296.61)" style="fill:#b2d235"/><path class="cls-1" d="M378.41 396c12.87 0 23.14 6.45 28.13 17.6a45.58 45.58 0 0 1 3.8 16.62 1.67 1.67 0 0 1-.47 1 1.63 1.63 0 0 1-.94.45h-61a1.61 1.61 0 0 1-.94-.45 1.66 1.66 0 0 1-.48-1 45.75 45.75 0 0 1 3.79-16.6c5-11.19 15.27-17.61 28.14-17.61m0-36c-45.77 0-74.2 33.58-74.2 87.64 0 57.55 27.24 88 78.77 88 30.39 0 46.65-9.62 61.7-24.08a4.31 4.31 0 0 0 0-6.16l-20-19.67a4.21 4.21 0 0 0-5.85-.07c-9 8.46-17.72 13.36-35.55 13.36-22.21 0-36.17-13.83-36.85-36.2a1.64 1.64 0 0 1 1.55-1.45h100.36a4.26 4.26 0 0 0 4.24-4.28v-15c0-49.85-29.13-82.06-74.2-82.06" transform="translate(-126.98 -296.61)"/><circle cx="338.85" cy="7.39" r="6.89" style="fill:none;stroke:#333e48;stroke-miterlimit:10"/><path class="cls-1" d="M467.41 302.39a1.14 1.14 0 0 1-1.28 1.17h-1.69v-2.35h1.69a1.15 1.15 0 0 1 1.28 1.18m1.37 5.3-1.73-3.32a2 2 0 0 0 1.5-2 2.14 2.14 0 0 0-2.33-2.19h-2.91v7.5h1.14v-3.16h1.42l1.58 3.16h1.33Z" transform="translate(-126.98 -296.61)"/></svg>