<svg width="482" height="159" fill="none" xmlns="http://www.w3.org/2000/svg"><path d="M136.051 37.975 71.261.579a4.303 4.303 0 0 0-4.314 0L2.157 37.975A4.313 4.313 0 0 0 0 41.708v34.88a11.103 11.103 0 0 1 10.521 1.683 9.913 9.913 0 0 1 3.51 5.919c1.306 6.45-.754 9.36-3.326 11.46l4.4 16.013-7.862 11.508 7.736 4.497 9.042-13.239-4.197-29.978 3.114-4.555a13.83 13.83 0 0 1-2.36-17.63 13.983 13.983 0 0 1 19.109-4.206 13.81 13.81 0 0 1-9.612 25.279l-2.505 3.665 2.756 18.17L58.892 63.35a13.838 13.838 0 0 1-1.083-16.981A13.983 13.983 0 0 1 76.666 42.5a13.81 13.81 0 0 1-11.12 24.95l-41.922 61.667 20.753-6.334 18.045-26.42a13.838 13.838 0 0 1-.639-16.73 13.983 13.983 0 0 1 18.76-3.683 13.82 13.82 0 0 1-11.604 24.804l-19.195 28.112-21.275 6.489 38.575 22.242a4.319 4.319 0 0 0 4.313 0l64.791-37.396a4.316 4.316 0 0 0 2.156-3.733v-74.8a4.315 4.315 0 0 0-2.253-3.694Z" fill="#03CCAB"/><path d="M.987 90.562c.648.433 1.393.71 2.174.807.781.097 1.575.012 2.315-.248a4.951 4.951 0 0 0 1.94-1.245 4.734 4.734 0 0 0 1.133-1.968 4.53 4.53 0 0 0 .096-2.253 4.615 4.615 0 0 0-1.004-2.034 4.914 4.914 0 0 0-1.707-1.291 5.075 5.075 0 0 0-4.228 0A4.914 4.914 0 0 0 0 83.62v6.083c.287.329.62.618.987.86ZM6.069 97.424A11.974 11.974 0 0 1 0 96.972v19.256c0 .77.21 1.525.605 2.191a4.454 4.454 0 0 0 1.65 1.604l7.283-10.361-3.47-12.238ZM73.045 58.026a5.564 5.564 0 1 0-7.787-7.95 5.564 5.564 0 0 0 7.787 7.95ZM78.244 89.623a5.57 5.57 0 0 0-3.188-7.408 5.56 5.56 0 0 0-7.237 3.551 5.572 5.572 0 0 0 1.333 5.568 5.574 5.574 0 0 0 9.092-1.711ZM37.718 71.314a5.572 5.572 0 0 0-3.227-7.39 5.562 5.562 0 0 0-7.218 3.59 5.57 5.57 0 0 0 1.363 5.56 5.574 5.574 0 0 0 9.082-1.76Z" fill="#03CCAB"/><path d="M187.686 63.819a9.387 9.387 0 0 0-8.203 4.308c-1.966 2.872-2.949 6.83-2.949 11.875 0 10.487 3.991 15.73 11.971 15.73a24.5 24.5 0 0 0 7.01-1.01 70.02 70.02 0 0 0 6.82-2.384v12.455a37.741 37.741 0 0 1-15.436 3.021c-8.224 0-14.53-2.385-18.917-7.154-4.388-4.769-6.582-11.658-6.582-20.666a33.01 33.01 0 0 1 3.18-14.872 22.8 22.8 0 0 1 9.172-9.864 27.694 27.694 0 0 1 14.077-3.45 38.773 38.773 0 0 1 16.891 3.84l-4.515 11.597a50.714 50.714 0 0 0-6.041-2.385 21.1 21.1 0 0 0-6.478-1.041ZM263.292 79.7c0 9.172-2.249 16.143-6.748 20.912-4.499 4.77-11.086 7.154-19.76 7.154-8.548 0-15.102-2.398-19.665-7.193-4.562-4.796-6.844-11.78-6.844-20.953 0-9.072 2.268-16 6.804-20.785 4.536-4.785 11.128-7.17 19.776-7.154 8.675 0 15.248 2.385 19.721 7.154 4.472 4.77 6.711 11.724 6.716 20.865Zm-37.501 0c0 10.54 3.667 15.81 11.001 15.81 3.709 0 6.475-1.28 8.298-3.84 1.823-2.56 2.724-6.55 2.702-11.97 0-5.442-.914-9.462-2.742-12.058-1.828-2.596-4.557-3.895-8.187-3.895-7.381-.005-11.072 5.313-11.072 15.953ZM316.571 78.619c0 9.098-2.504 16.106-7.511 21.024-5.008 4.917-12.048 7.379-21.12 7.384h-17.629V52.532h18.861c8.749 0 15.503 2.236 20.261 6.708 4.759 4.473 7.138 10.932 7.138 19.379Zm-15.285.525c0-4.998-.988-8.707-2.965-11.128-1.976-2.422-4.978-3.628-9.006-3.617h-4.284v30.53h3.299c4.472 0 7.752-1.298 9.84-3.895 2.088-2.596 3.127-6.562 3.116-11.899v.008ZM355.941 107.027h-32.359V52.532h32.359v11.82h-17.63v8.576h16.326v11.82h-16.326V95.04h17.63v12.002-.016Z" fill="#fff"/><path d="M401.12 90.47a16.083 16.083 0 0 1-2.575 9.006 16.846 16.846 0 0 1-7.416 6.112 27.496 27.496 0 0 1-11.374 2.178 45.936 45.936 0 0 1-9.133-.795 33.903 33.903 0 0 1-7.679-2.662V91.186a43.86 43.86 0 0 0 8.744 3.37 32.638 32.638 0 0 0 8.354 1.208c2.188 0 3.791-.38 4.809-1.137a3.497 3.497 0 0 0 1.526-2.925 3.225 3.225 0 0 0-.612-1.955 7.16 7.16 0 0 0-1.98-1.693c-.906-.573-3.322-1.74-7.249-3.505a34.795 34.795 0 0 1-7.996-4.698 14.427 14.427 0 0 1-3.974-5.222 17.324 17.324 0 0 1-1.288-6.971c0-5.018 1.826-8.932 5.477-11.74 3.651-2.809 8.672-4.213 15.062-4.213a42.26 42.26 0 0 1 17.264 3.91l-4.514 11.375c-5.093-2.337-9.491-3.505-13.195-3.505-1.913 0-3.304.336-4.173 1.01a3.049 3.049 0 0 0-1.303 2.495 3.604 3.604 0 0 0 1.661 2.87c1.107.842 4.109 2.384 9.005 4.626 4.695 2.12 7.957 4.387 9.785 6.804a14.773 14.773 0 0 1 2.774 9.18ZM466.282 106.916V52.405h14.8v54.503h-14.8v.008ZM442.332 51.745h-19.649l-17.781 54.725h16.184l2.758-10.214h17.709l2.687 10.214h16.103l-18.011-54.725Zm-11.494 34.631c3.108-4.824 2.154-14.482 2.154-14.482-.103 3.919-4.125 9.451-6.001 11.828-1.669-1.972-3.743-5.461-1.057-8.95 6.756-8.744 8.012-10.135 8.855-11.669.095-.175.373-.08.461.095a37.357 37.357 0 0 1 3.656 14.18c.382 7.194-6.208 8.728-8.068 9.006v-.008Z" fill="#03CCAB"/></svg>