<svg width="38" height="40" fill="none" xmlns="http://www.w3.org/2000/svg"><path d="M19 1C9.075 1 1 9.385 1 19.692c0 10.306 8.075 18.691 18 18.691s18-8.385 18-18.691C37 9.385 28.925 1 19 1Zm0 36.137c-9.263 0-16.8-7.826-16.8-17.445 0-9.62 7.537-17.446 16.8-17.446 9.263 0 16.8 7.826 16.8 17.446 0 9.619-7.537 17.445-16.8 17.445Z" stroke="#03CCAB" stroke-width="2"/><path d="M18.999 4.74c-.331 0-.6.278-.6.622v14.33h-9c-.331 0-.6.279-.6.624 0 .344.269.623.6.623h9.6c.331 0 .6-.279.6-.623V5.362a.612.612 0 0 0-.6-.623Z" stroke="#03CCAB" stroke-width="2"/></svg>