<svg width="38" height="40" viewBox="0 0 38 40" fill="none" xmlns="http://www.w3.org/2000/svg">
    <path d="M19 1C9.0748 1 1 9.38504 1 19.6916C1 29.9981 9.0748 38.3832 19 38.3832C28.9252 38.3832 37 29.9981 37 19.6916C37 9.38504 28.9252 1 19 1ZM19 37.1371C9.7366 37.1371 2.2 29.3109 2.2 19.6916C2.2 10.0723 9.7366 2.24611 19 2.24611C28.2634 2.24611 35.8 10.0723 35.8 19.6916C35.8 29.3109 28.2634 37.1371 19 37.1371Z" stroke="#03CCAB" stroke-width="2"/>
    <path d="M18.9988 4.73926C18.6676 4.73926 18.3988 5.01776 18.3988 5.36231V19.6925H9.39883C9.06763 19.6925 8.79883 19.971 8.79883 20.3156C8.79883 20.6601 9.06763 20.9386 9.39883 20.9386H18.9988C19.33 20.9386 19.5988 20.6601 19.5988 20.3156V5.36231C19.5988 5.01776 19.33 4.73926 18.9988 4.73926Z" stroke="#03CCAB" stroke-width="2"/>
</svg>
