<svg width="24" height="24" viewBox="0 0 24 24" fill="none" xmlns="http://www.w3.org/2000/svg">
<path d="M12 1C5.9346 1 1 5.9346 1 12C1 18.0654 5.9346 23 12 23C18.0654 23 23 18.0654 23 12C23 5.9346 18.0654 1 12 1ZM12 22.2667C6.33903 22.2667 1.73333 17.661 1.73333 12C1.73333 6.33903 6.33903 1.73333 12 1.73333C17.661 1.73333 22.2667 6.33903 22.2667 12C22.2667 17.661 17.661 22.2667 12 22.2667Z" stroke="white" stroke-width="2"/>
<path d="M11.9998 3.20004C11.7975 3.20004 11.6332 3.36394 11.6332 3.56671V12H6.13326C5.93087 12 5.7666 12.1639 5.7666 12.3667C5.7666 12.5695 5.93087 12.7334 6.13326 12.7334H11.9998C12.2022 12.7334 12.3665 12.5695 12.3665 12.3667V3.56671C12.3665 3.36394 12.2022 3.20004 11.9998 3.20004Z" stroke="white" stroke-width="2"/>
</svg>
