<svg width="31" height="33" fill="none" xmlns="http://www.w3.org/2000/svg"><path d="m19.407 13.63-2.883 2.883V1.873A1.02 1.02 0 0 0 15.5.85a1.02 1.02 0 0 0-1.024 1.024v14.64l-2.882-2.883c-.401-.401-1.053-.403-1.45 0a1.021 1.021 0 0 0 .001 1.448l4.634 4.633c.196.197.461.303.721.303.257 0 .523-.098.722-.303v-.002l4.633-4.631a1.021 1.021 0 0 0 0-1.449 1.021 1.021 0 0 0-1.448 0Z" fill="#fff" stroke="#fff" stroke-width=".3"/><path d="M26.886 9.852a1.035 1.035 0 0 0-.56-.658v-.001l-.084-.039h-.002a1.04 1.04 0 0 0-.424-.091h-5.481a1.02 1.02 0 0 0-1.024 1.023 1.02 1.02 0 0 0 1.024 1.024h4.778l2.487 9.007H21a1.02 1.02 0 0 0-1.023 1.023v.79a1.946 1.946 0 0 1-1.947 1.947h-5.333a1.946 1.946 0 0 1-1.947-1.947v-.79a1.02 1.02 0 0 0-1.024-1.023H3.394l2.5-9.026h4.778a1.02 1.02 0 0 0 1.024-1.024 1.02 1.02 0 0 0-1.024-1.024H5.184c-.144 0-.288.03-.423.09l-.002.002-.084.039h-.001c-.269.127-.483.36-.56.66L1.072 20.835v.004a1.11 1.11 0 0 0-.037.269v4.588a6.461 6.461 0 0 0 6.453 6.454h16.024a6.461 6.461 0 0 0 6.454-6.453v-4.57a.831.831 0 0 0-.04-.278l-3.04-10.997Zm1.045 15.695h-.012v.15a4.413 4.413 0 0 1-4.407 4.406H7.488a4.413 4.413 0 0 1-4.406-4.407v-3.532h5.64a3.998 3.998 0 0 0 3.989 3.754h5.333a3.998 3.998 0 0 0 3.988-3.754h5.9v3.383Z" fill="#fff" stroke="#fff" stroke-width=".3"/></svg>