<svg width="19" height="22" viewBox="0 0 19 22" fill="none" xmlns="http://www.w3.org/2000/svg">
<path d="M18.4685 19.7068L18.4682 19.7063C18.2217 19.1038 17.9721 18.5051 17.7003 17.9164L17.6999 17.9156C17.59 17.675 17.4838 17.5635 17.3774 17.5113C17.2706 17.4589 17.1143 17.4422 16.8497 17.5026C16.5359 17.5747 16.2247 17.6569 15.9093 17.7402C15.86 17.7532 15.8105 17.7663 15.7609 17.7793C15.3963 17.8753 15.0262 17.9705 14.651 18.0473C13.2003 18.3504 11.7295 18.3814 10.2755 17.9222C8.41595 17.3379 7.43442 15.9846 6.84266 14.2944L6.72621 13.9617H7.07862H11.8495C12.0862 13.9617 12.2758 13.7721 12.2758 13.5356V12.0326C12.2758 11.7961 12.0862 11.6065 11.8495 11.6065H6.62164H6.37164V11.3565C6.37164 11.2171 6.37113 11.0787 6.37062 10.9411C6.36961 10.6679 6.36861 10.3978 6.37166 10.1293L6.37447 9.88216H6.62164H11.8495C12.0862 9.88216 12.2758 9.6925 12.2758 9.45603V7.95303C12.2758 7.71656 12.0862 7.52691 11.8495 7.52691H7.27969H7.02969V7.27691C7.02969 7.27658 7.02969 7.27614 7.02969 7.27558C7.02964 7.26837 7.0295 7.24222 7.03335 7.21527C7.03592 7.19725 7.04295 7.15622 7.06823 7.11188C7.63348 5.83454 8.47147 4.78028 9.85619 4.23042L9.85659 4.23026C11.4417 3.60399 13.0525 3.62225 14.6551 3.95286M18.4685 19.7068L14.6051 4.1978M18.4685 19.7068C18.5648 19.9408 18.5679 20.1181 18.5177 20.2508C18.4682 20.382 18.3493 20.5154 18.1063 20.627L18.106 20.6271C17.5344 20.8906 16.935 21.1053 16.3304 21.2709L16.3301 21.271C14.0001 21.9128 11.6786 21.9337 9.37664 21.1874C6.60762 20.2899 4.7673 18.4107 3.66308 15.7475C3.51106 15.3755 3.39835 14.9918 3.28124 14.5932C3.23731 14.4436 3.19276 14.292 3.14529 14.1381L3.09091 13.9617H2.90639H0.67633C0.439606 13.9617 0.25 13.7721 0.25 13.5356V12.0326C0.25 11.7961 0.439605 11.6065 0.67633 11.6065H2.5271H2.7771V11.3565V11.3541V11.3516V11.3492V11.3468V11.3443V11.3419V11.3394V11.337V11.3346V11.3322V11.3297V11.3273V11.3249V11.3224V11.32V11.3176V11.3151V11.3127V11.3103V11.3079V11.3054V11.303V11.3006V11.2981V11.2957V11.2933V11.2909V11.2884V11.286V11.2836V11.2812V11.2787V11.2763V11.2739V11.2715V11.2691V11.2666V11.2642V11.2618V11.2594V11.257V11.2545V11.2521V11.2497V11.2473V11.2449V11.2424V11.24V11.2376V11.2352V11.2328V11.2304V11.2279V11.2255V11.2231V11.2207V11.2183V11.2159V11.2135V11.211V11.2086V11.2062V11.2038V11.2014V11.199V11.1966V11.1942V11.1917V11.1893V11.1869V11.1845V11.1821V11.1797V11.1773V11.1749V11.1725V11.1701V11.1677V11.1652V11.1628V11.1604V11.158V11.1556V11.1532V11.1508V11.1484V11.146V11.1436V11.1412V11.1388V11.1364V11.134V11.1316V11.1292V11.1268V11.1244V11.122V11.1196V11.1172V11.1148V11.1124V11.11V11.1076V11.1052V11.1028V11.1004V11.098V11.0956V11.0932V11.0908V11.0884V11.086V11.0836V11.0812V11.0788V11.0764V11.074V11.0716V11.0692V11.0668V11.0644V11.062V11.0596V11.0572V11.0548V11.0524V11.05V11.0476V11.0452V11.0428V11.0404V11.038V11.0357V11.0333V11.0309V11.0285V11.0261V11.0237V11.0213V11.0189V11.0165V11.0141V11.0117V11.0093V11.007V11.0046V11.0022V10.9998V10.9974V10.995V10.9926V10.9902V10.9878V10.9855V10.9831V10.9807V10.9783V10.9759V10.9735V10.9711V10.9687V10.9664V10.964V10.9616V10.9592V10.9568V10.9544V10.952V10.9496V10.9473V10.9449V10.9425V10.9401V10.9377V10.9353V10.933V10.9306V10.9282V10.9258V10.9234V10.921V10.9187V10.9163V10.9139V10.9115V10.9091V10.9067V10.9044V10.902V10.8996V10.8972V10.8948V10.8924V10.8901V10.8877V10.8853V10.8829V10.8805V10.8782V10.8758V10.8734V10.871V10.8686V10.8663V10.8639V10.8615V10.8591V10.8567V10.8544V10.852V10.8496V10.8472V10.8448V10.8425V10.8401V10.8377V10.8353V10.8329V10.8306V10.8282V10.8258V10.8234V10.821V10.8187V10.8163V10.8139V10.8115V10.8092V10.8068V10.8044V10.802V10.7996V10.7973V10.7949V10.7925V10.7901V10.7878V10.7854V10.783V10.7806V10.7783V10.7759V10.7735V10.7711V10.7687V10.7664V10.764V10.7616V10.7592V10.7569V10.7545V10.7521V10.7497V10.7474V10.745V10.7426V10.7402V10.7379V10.7355V10.7331V10.7307V10.7284V10.726V10.7236V10.7212V10.7189V10.7165V10.7141V10.7117V10.7094V10.707V10.7046V10.7022V10.6999V10.6975V10.6951V10.6927V10.6904V10.688V10.6856V10.6832V10.6809V10.6785V10.6761V10.6737V10.6714V10.669V10.6666V10.6642V10.6619V10.6595V10.6571V10.6547V10.6524V10.65V10.6476V10.6452V10.6429V10.6405V10.6381V10.6357V10.6334V10.631V10.6286V10.6262V10.6239V10.6215V10.6191V10.6167V10.6144V10.612V10.6096V10.6072V10.6049V10.6025V10.6001V10.5977V10.5954V10.593V10.5906V10.5882V10.5859V10.5835V10.5811V10.5787V10.5764V10.574V10.5716V10.5692V10.5669V10.5645V10.5621V10.5597V10.5574V10.555V10.5526V10.5502V10.5479V10.5455V10.5431V10.5407V10.5383V10.536V10.5336V10.5312V10.5288V10.5265V10.5241V10.5217V10.5193V10.517V10.5146V10.5122V10.5098V10.5074V10.5051V10.5027V10.5003V10.4979V10.4956V10.4932V10.4908V10.4884V10.486V10.4837V10.4813V10.4789V10.4765V10.4742V10.4718V10.4694V10.467V10.4646V10.4623V10.4599V10.4575V10.4551V10.4527V10.4504V10.448V10.4456V10.4432V10.4408V10.4385V10.4361V10.4337V10.4313V10.4289V10.4266V10.4242V10.4218V10.4194V10.417V10.4146V10.4123V10.4099V10.4075V10.4051V10.4027V10.4003V10.398V10.3956V10.3932V10.3908V10.3884V10.386V10.3837V10.3813V10.3789V10.3765V10.3741V10.3717V10.3694V10.367V10.3646V10.3622V10.3598V10.3574V10.355V10.3527V10.3503V10.3479V10.3455V10.3431V10.3407V10.3383V10.3359V10.3336V10.3312V10.3288V10.3264V10.324V10.3216V10.3192V10.3168V10.3145V10.3121V10.3097V10.3073V10.3049V10.3025V10.3001V10.2977V10.2953V10.2929V10.2905V10.2882V10.2858V10.2834V10.281V10.2786V10.2762V10.2738V10.2714V10.269V10.2666V10.2642V10.2618V10.2594V10.257V10.2546V10.2523V10.2499V10.2475V10.2451V10.2427V10.2403V10.2379V10.2355V10.2331V10.2307V10.2283V10.2259V10.2235V10.2211V10.2187V10.2163V10.2139V10.2115V10.2091V10.2067V10.2043V10.2019V10.1995V10.1971V10.1947V10.1923V10.1899V10.1875V10.1851V10.1827V10.1803V10.1779V10.1755V10.1731V10.1707V10.1683V10.1659V10.1635V10.161V10.1586V10.1562V10.1538V10.1514V10.149V10.1466V10.1442V10.1418V10.1394V10.137V10.1346V10.1322V9.88216H2.5271H0.67633C0.439606 9.88216 0.25 9.6925 0.25 9.45603V7.95303C0.25 7.71656 0.439606 7.52691 0.67633 7.52691H3.02521H3.20538L3.26237 7.35598L3.34006 7.123L3.3401 7.12301L3.34148 7.1186C3.95908 5.14558 5.02012 3.47824 6.65123 2.21641L6.65157 2.21614M18.4685 19.7068L6.65157 2.21614M14.6551 3.95286C14.6553 3.95289 14.6554 3.95293 14.6556 3.95296L14.6051 4.1978M14.6551 3.95286C14.655 3.95283 14.6548 3.9528 14.6547 3.95277L14.6051 4.1978M14.6551 3.95286C15.0351 4.02979 15.4101 4.12619 15.7791 4.22328C15.8262 4.23565 15.873 4.24802 15.9198 4.26036C16.2425 4.3455 16.5606 4.42943 16.8813 4.50221M14.6051 4.1978C15.0247 4.28273 15.4399 4.3923 15.8557 4.50201C16.1781 4.58706 16.5007 4.6722 16.826 4.74601M16.8813 4.50221C16.8813 4.50221 16.8813 4.5022 16.8813 4.5022L16.826 4.74601M16.8813 4.50221C17.1232 4.55706 17.2725 4.53917 17.3768 4.48698C17.4818 4.43452 17.5868 4.32475 17.691 4.09797L17.6912 4.09769C17.9584 3.51814 18.2034 2.9286 18.4502 2.32996L18.4504 2.32948C18.5531 2.08189 18.5588 1.90804 18.514 1.77705C18.4688 1.64534 18.3561 1.50883 18.1208 1.37094C18.0016 1.30108 17.8769 1.24273 17.7457 1.19195L17.7451 1.19172C15.5785 0.346905 13.3523 0.0349072 11.0573 0.401621L16.826 4.74601M16.8813 4.50221L16.826 4.74601M7.28883 7.23122C7.31911 7.16235 7.35016 7.09423 7.38202 7.02691H7.27969V7.22208L7.28883 7.23122ZM7.28883 7.23122L7.27969 7.2272V7.27691C7.27969 7.25863 7.27969 7.24036 7.28883 7.23122ZM7.07862 14.2117H7.34393C7.33404 14.1843 7.32426 14.1568 7.31458 14.1291L7.07862 14.2117ZM7.07862 14.2117V14.4617H7.17009C7.13861 14.3794 7.10814 14.2961 7.07862 14.2117ZM18.6996 19.6116C18.4529 19.0086 18.2015 18.4055 17.9273 17.8116C17.6851 17.2817 17.3744 17.1264 16.794 17.2589L18.6996 19.6116ZM18.6996 19.6116C18.9235 20.1552 18.7773 20.5938 18.2107 20.8542M18.6996 19.6116L18.2107 20.8542M18.2107 20.8542C17.6257 21.1237 17.0134 21.343 16.3964 21.5121L18.2107 20.8542ZM6.65157 2.21614C7.94092 1.2151 9.43891 0.661586 11.0572 0.401632L6.65157 2.21614ZM7.52934 7.27691C7.52912 7.27949 7.5288 7.28264 7.52832 7.286C7.52716 7.29414 7.52426 7.31056 7.51635 7.33077C7.51629 7.33091 7.51624 7.33105 7.51618 7.33119C7.50801 7.35194 7.49296 7.38066 7.46558 7.40803L7.49879 7.37483L7.51769 7.33185C7.52577 7.31347 7.5339 7.29516 7.54209 7.27691H7.52969H7.52934Z" fill="white" stroke="#3BF590" stroke-width="0.5"/>
</svg>
