<svg width="19" height="22" xmlns="http://www.w3.org/2000/svg"><path d="M18.468 19.707c.085.204.11.39.047.55-.06.155-.202.275-.409.37a11.56 11.56 0 0 1-1.776.644c-2.324.64-4.647.664-6.953-.084-2.774-.899-4.615-2.788-5.714-5.439-.173-.424-.297-.87-.429-1.313L.697 13.96.25 12.033l2.527-.426V9.882h-2.1L.25 7.953l2.96-.426c.69-2.28 1.76-4.01 3.442-5.31C7.948 1.21 9.45.66 11.057.401c2.295-.367 4.519-.054 6.675.785.386.209.624.389.736.583.1.175.068.354-.018.56-.245.595-.49 1.186-.759 1.768-.087.189-.181.323-.315.39-.817-.059-1.137-.143-1.457-.228a22.35 22.35 0 0 0-1.263-.307c-1.621-.334-3.227-.344-4.8.277-1.495.594-2.363 1.776-2.94 3.247l4.934.05.426 1.929-5.9.426c-.01.426-.006.848-.005 1.286l5.47.439.435 1.929-5.544.426c.592 1.885 1.587 3.345 3.543 3.96 1.445.456 2.913.431 4.376.125.422-.086.84-.196 1.258-.307.313-.082.626-.165.94-.237.219-.05.39-.06.528.008.137.067.232.206.323.405.273.59.523 1.19.768 1.79Z" fill="#FFF" fill-rule="nonzero"/></svg>