<svg width="24" height="24" fill="none" xmlns="http://www.w3.org/2000/svg"><g clip-path="url(#a)"><path d="M12 0C5.41 0 0 5.409 0 12c0 5.625 3.947 10.734 9.188 12v-3.97c-.52.114-.998.117-1.526-.039-.71-.209-1.286-.681-1.713-1.402-.273-.46-.756-.959-1.26-.922l-.124-1.4c1.09-.094 2.033.663 2.593 1.604.248.418.535.663.902.772.355.104.736.054 1.18-.103.112-.89.52-1.222.827-1.69v-.002c-3.125-.466-4.371-2.124-4.865-3.433-.656-1.738-.304-3.909.854-5.28.023-.028.064-.098.048-.146-.531-1.605.116-2.932.14-3.073.613.181.712-.183 2.663 1.002l.337.203c.14.084.096.036.237.025A10.183 10.183 0 0 1 12 5.792c.852.011 1.705.133 2.553.363l.11.011c-.01-.001.029-.007.095-.046 2.436-1.475 2.348-.993 3.002-1.206.023.141.662 1.49.136 3.075-.07.218 2.113 2.217.902 5.426-.494 1.309-1.74 2.967-4.865 3.433v.001c.4.61.882.936.88 2.195V24C20.052 22.734 24 17.625 24 12 24 5.41 18.591 0 12 0Z" fill="#fff"/></g><defs><clipPath id="a"><path fill="#fff" d="M0 0h24v24H0z"/></clipPath></defs></svg>