<svg width="24" height="24" fill="none" xmlns="http://www.w3.org/2000/svg"><path d="M23.407 5.175a9.508 9.508 0 0 1-2.647.732 4.603 4.603 0 0 0 2.02-2.562 9.128 9.128 0 0 1-2.912 1.122A4.584 4.584 0 0 0 16.512 3c-2.543 0-4.59 2.083-4.59 4.638 0 .367.03.72.106 1.057C8.21 8.507 4.83 6.659 2.56 3.845a4.701 4.701 0 0 0-.629 2.344c0 1.605.82 3.029 2.04 3.853a4.505 4.505 0 0 1-2.075-.571v.05c0 2.254 1.593 4.125 3.68 4.556a4.544 4.544 0 0 1-1.204.153c-.294 0-.59-.017-.87-.08.596 1.837 2.285 3.187 4.293 3.23a9.176 9.176 0 0 1-5.696 1.978c-.376 0-.738-.017-1.099-.064a12.846 12.846 0 0 0 7.047 2.081c8.453 0 13.074-7.067 13.074-13.193 0-.205-.007-.403-.017-.6a9.211 9.211 0 0 0 2.303-2.407Z" fill="#03CCAB"/></svg>