<svg width="24" height="24" fill="none" xmlns="http://www.w3.org/2000/svg"><path d="M5.203 3.755C7.954 5.818 10.913 9.999 12 12.243c1.087-2.244 4.046-6.425 6.797-8.488C20.781 2.267 24 1.124 24 4.796c0 .733-.42 6.157-.667 7.038-.856 3.06-3.978 3.84-6.754 3.367 4.853.825 6.089 3.561 3.422 6.297-5.063 5.197-7.276-1.304-7.843-2.97-.104-.305-.152-.448-.158-.327-.006-.121-.054.022-.158.327-.567 1.666-2.78 8.167-7.843 2.97-2.667-2.736-1.431-5.472 3.422-6.297-2.776.473-5.898-.307-6.754-3.367C.42 10.953 0 5.529 0 4.796 0 1.124 3.219 2.267 5.203 3.755Z" fill="#03CCAB"/></svg>
