<svg width="22" height="21" fill="none" xmlns="http://www.w3.org/2000/svg"><path d="M11.341 0C5.662 0 1 4.733 1 10.5c0 4.921 3.401 9.392 7.918 10.5v-3.474c-.448.1-.86.102-1.315-.034-.611-.183-1.108-.596-1.477-1.227-.235-.402-.651-.838-1.085-.806l-.107-1.226c.94-.082 1.752.581 2.234 1.404.215.366.461.58.778.675.306.092.634.048 1.017-.09.096-.778.447-1.069.713-1.48-2.694-.408-3.767-1.859-4.193-3.004-.565-1.52-.262-3.42.736-4.62.02-.024.055-.085.041-.128-.458-1.404.1-2.565.12-2.689.53.159.615-.16 2.296.878l.29.177c.122.073.083.031.205.022a8.653 8.653 0 0 1 2.17-.31 8.69 8.69 0 0 1 2.2.318l.095.01c-.009-.002.025-.007.082-.04 2.1-1.292 2.024-.87 2.587-1.056.02.123.57 1.304.118 2.69-.061.19 1.82 1.94.777 4.748-.426 1.145-1.5 2.596-4.193 3.004.345.535.76.82.758 1.922V21c4.517-1.108 7.918-5.579 7.918-10.5 0-5.767-4.661-10.5-10.341-10.5Z" fill="#03CCAB"/></svg>