<svg width="21" height="21" fill="none" xmlns="http://www.w3.org/2000/svg"><path d="M5.613 7.732H1.634c-.176 0-.32.152-.32.34v13.543c0 .187.144.338.32.338h3.98c.176 0 .319-.151.319-.338V8.07c0-.187-.143-.339-.32-.339ZM3.626 1C2.178 1 1 2.247 1 3.779c0 1.533 1.178 2.78 2.626 2.78 1.446 0 2.623-1.247 2.623-2.78C6.25 2.247 5.072 1 3.626 1ZM15.735 7.396c-1.598 0-2.78.728-3.496 1.555v-.88c0-.186-.143-.338-.32-.338H8.11c-.177 0-.32.152-.32.339v13.543a.33.33 0 0 0 .32.339h3.97a.33.33 0 0 0 .32-.339v-6.7c0-2.259.579-3.138 2.065-3.138 1.617 0 1.746 1.41 1.746 3.254v6.584a.33.33 0 0 0 .32.34h3.972a.33.33 0 0 0 .32-.34v-7.428c0-3.358-.605-6.79-5.087-6.79Z" fill="#03CCAB"/></svg>