<svg width="24" height="24" fill="none" xmlns="http://www.w3.org/2000/svg"><path d="M5.366 7.712H.738a.38.38 0 0 0-.371.388v15.512A.38.38 0 0 0 .738 24h4.628a.38.38 0 0 0 .372-.388V8.1a.38.38 0 0 0-.372-.388ZM3.054 0C1.37 0 0 1.428 0 3.183c0 1.756 1.37 3.184 3.054 3.184 1.682 0 3.05-1.428 3.05-3.184C6.105 1.428 4.737 0 3.055 0ZM17.136 7.326c-1.858 0-3.232.834-4.066 1.781V8.1a.38.38 0 0 0-.372-.388H8.267a.38.38 0 0 0-.372.388v15.512a.38.38 0 0 0 .372.388h4.617a.38.38 0 0 0 .372-.388v-7.675c0-2.586.673-3.594 2.401-3.594 1.882 0 2.031 1.615 2.031 3.727v7.542a.38.38 0 0 0 .372.388h4.62a.38.38 0 0 0 .37-.388v-8.509c0-3.845-.702-7.777-5.914-7.777Z" fill="#fff"/></svg>