<svg width="72" height="72" viewBox="0 0 72 72" fill="none" xmlns="http://www.w3.org/2000/svg">
<g clip-path="url(#clip0)">
<path d="M14.9285 27.4893V38.1677H4.25V71.0147H39.2678V27.4893H14.9285ZM25.5654 45.7596L27.5698 44.1826L33.5671 51.8043L27.5698 59.426L25.5654 57.849L30.322 51.8043L25.5654 45.7596ZM20.4837 44.1487H23.034V59.4599H20.4837V44.1487ZM15.9479 44.1826L17.952 45.7596L13.1957 51.8043L17.952 57.849L15.9479 59.426L9.95036 51.8043L15.9479 44.1826Z" fill="#2C2C2C"/>
<path d="M12.3798 35.6171V29.0869L5.84961 35.6171H12.3798Z" fill="#2C2C2C"/>
</g>
<g clip-path="url(#clip1)">
<path d="M44.355 16.6934L38.3574 24.3151L44.355 31.9368L46.3591 30.3598L41.6028 24.3151L46.3591 18.2704L44.355 16.6934Z" fill="#2C2C2C"/>
<path d="M55.977 31.9368L61.9743 24.3151L55.977 16.6934L53.9727 18.2704L58.7293 24.3151L53.9727 30.3598L55.977 31.9368Z" fill="#2C2C2C"/>
<path d="M48.8906 16.6592H51.4409V31.9704H48.8906V16.6592Z" fill="#2C2C2C"/>
<path d="M42.3823 0L32.6562 9.72608V43.5255H67.674V0H42.3823ZM41.6352 4.35381V8.97892H37.0101L41.6352 4.35381ZM65.1237 40.9751H35.2066V11.5292H44.1855V2.55032H65.1237V40.9751Z" fill="#2C2C2C"/>
</g>
<path d="M27.4579 7.93318C27.4005 7.1068 26.6846 6.49164 25.8589 6.55919L12.4037 7.65992C11.578 7.72746 10.9552 8.45213 11.0126 9.27851C11.0701 10.1049 11.786 10.72 12.6117 10.6525L24.5719 9.67408L25.4039 21.6444C25.4613 22.4708 26.1773 23.086 27.0029 23.0184C27.8286 22.9509 28.4514 22.2262 28.394 21.3998L27.4579 7.93318ZM19.5057 17.8563L27.0936 9.02704L24.8322 7.08392L17.2443 15.9132L19.5057 17.8563Z" fill="#2C2C2C"/>
<path d="M44.8799 63.0073C44.9374 63.8336 45.6533 64.4488 46.479 64.3812L59.9342 63.2805C60.7599 63.213 61.3827 62.4883 61.3253 61.6619C61.2678 60.8355 60.5519 60.2204 59.7262 60.2879L47.766 61.2664L46.934 49.296C46.8765 48.4696 46.1606 47.8545 45.335 47.922C44.5093 47.9896 43.8865 48.7142 43.9439 49.5406L44.8799 63.0073ZM52.8322 53.0841L45.2443 61.9134L47.5057 63.8565L55.0936 55.0272L52.8322 53.0841Z" fill="#2C2C2C"/>
<defs>
<clipPath id="clip0">
<rect width="43.5255" height="43.5255" fill="white" transform="translate(0 27.4893)"/>
</clipPath>
<clipPath id="clip1">
<rect width="43.5255" height="43.5255" fill="white" transform="translate(28.4062)"/>
</clipPath>
</defs>
</svg>
