<svg width="26" height="17" fill="none" xmlns="http://www.w3.org/2000/svg"><path d="m3.447 6.048 8.741-3.575a2.169 2.169 0 0 1 1.654 0l8.713 3.575L13.87 9.79 3.447 6.048Zm0 0 8.714 3.742-8.714-3.742Zm9.568 3.917c.294 0 .584-.06.854-.175l-.854.175Zm0 0c-.293 0-.584-.06-.854-.175l.854.175Zm12.135-3.95v-.002a.73.73 0 0 0-.438-.657l-.003-.001-10.318-4.232a3.599 3.599 0 0 0-2.752 0L1.293 5.355l-.004.001a.73.73 0 0 0-.315.264l.125.083-.125-.083a.73.73 0 0 0-.122.388.73.73 0 0 0 0 .1v8.95a.73.73 0 0 0 1.459 0V7.113l2.453 1.059v5.41a.73.73 0 0 0 .365.62l.008.005.171.085a15.86 15.86 0 0 0 15.415 0l.17-.085.008-.004a.728.728 0 0 0 .365-.62V8.171l3.475-1.497.008-.004a.73.73 0 0 0 .401-.657ZM6.224 13.171V8.823l5.355 2.315a3.628 3.628 0 0 0 2.872 0l5.356-2.315v4.349a14.4 14.4 0 0 1-13.583 0Z" fill="#fff" stroke="#fff" stroke-width=".3"/></svg>