<svg width="24" height="17" fill="none" xmlns="http://www.w3.org/2000/svg"><path d="M23.495 2.992A2.827 2.827 0 0 0 20.673.17c-1.554 0-2.798 1.267-2.798 2.822 0 1.244.837 2.296 1.961 2.679v2.51L15.627 9.33v6.816h1.698v-5.5l4.21-1.149v-3.85c1.123-.359 1.96-1.411 1.96-2.655Zm-2.822 1.1a1.123 1.123 0 0 1-1.124-1.124 1.123 1.123 0 1 1 2.248 0c0 .622-.502 1.124-1.124 1.124ZM4.435 5.647a2.815 2.815 0 0 0 1.96-2.678A2.827 2.827 0 0 0 3.575.146C2.019.146.775 1.438.775 2.993c0 1.243.837 2.295 1.962 2.678v3.803l4.209 1.148v5.5h1.698V9.307l-4.21-1.148v-2.51Zm-.837-3.779c.621 0 1.124.503 1.124 1.125 0 .621-.503 1.124-1.124 1.124a1.138 1.138 0 0 1-1.125-1.124c0-.598.503-1.125 1.125-1.125ZM12.137.17a2.827 2.827 0 0 0-2.823 2.822c0 1.244.838 2.296 1.962 2.679v10.451h1.698V5.647a2.815 2.815 0 0 0 1.96-2.679C14.96 1.438 13.692.17 12.138.17Zm0 3.922a1.123 1.123 0 0 1-1.125-1.124c0-.622.503-1.124 1.125-1.124.621 0 1.124.502 1.124 1.124 0 .622-.503 1.124-1.124 1.124Z" fill="#fff"/></svg>