<svg width="19" height="17" fill="none" xmlns="http://www.w3.org/2000/svg"><path d="M18.342 8.35a1.78 1.78 0 0 0-1.225-1.675.504.504 0 0 0-.275-.075h-4.176c-.075 0-.125-.05-.15-.075-.025-.025-.05-.1 0-.175.25-.45.675-.875.675-.9.025-.025.05-.05.05-.075.65-1 .65-2.05.55-2.776A2.42 2.42 0 0 0 12.516.8c-.575-.275-1-.175-1.275-.025-.75.425-.9 1.55-.925 1.775-.2 1.2-.95 1.6-.975 1.625-1.55.776-2.35 2.65-2.475 2.976-.3.5-.65.75-.9.85a1.086 1.086 0 0 0-1-.625H1.94C1.34 7.35.84 7.85.84 8.45v7.05c0 .6.5 1.101 1.1 1.101h3.05c.325 0 .6-.15.8-.35.225.175.475.3.676.35.05 0 .075.025.125.025h9.5a1.505 1.505 0 0 0 1.226-2.375c.325-.275.525-.675.525-1.125v-.25c0-.325-.1-.625-.275-.876.325-.275.525-.675.525-1.125v-.25c0-.35-.125-.7-.325-.95.35-.35.575-.8.575-1.325ZM5.09 15.5c0 .05-.05.1-.1.1H1.94c-.05 0-.1-.05-.1-.1V8.45c0-.05.05-.1.1-.1h3.05c.05 0 .1.05.1.1V15.501Zm12.002-4.9v.25c0 .275-.225.5-.5.5h-.75c-.275 0-.5.225-.5.5s.225.5.5.5h.5c.275 0 .5.226.5.5v.25c0 .276-.225.5-.5.5h-.75c-.275 0-.5.226-.5.5 0 .276.225.5.5.5h.5c.275 0 .5.226.5.5 0 .276-.225.5-.5.5H6.666c-.15-.05-.576-.25-.576-.874V9c.45-.15 1.126-.5 1.676-1.4.025-.025.025-.05.05-.075 0-.025.7-1.825 2-2.475.05-.025 1.225-.625 1.525-2.376V2.65c.025-.35.2-.875.4-1 .075-.05.175-.025.325.05.375.2.65.575.725 1.05.075.55.1 1.325-.375 2.05-.125.126-.55.6-.825 1.076-.2.375-.2.8.025 1.175.2.35.575.575 1 .575h3.976c.425 0 .75.325.75.75s-.325.75-.75.75h-.75c-.275 0-.5.225-.5.5s.225.5.5.5h.75c.275-.025.5.2.5.475Z" fill="#fff" stroke="#fff" stroke-width=".2"/></svg>