<svg width="24" height="24" fill="none" xmlns="http://www.w3.org/2000/svg"><path d="M24 4.295c-.892.389-1.843.647-2.835.772a4.869 4.869 0 0 0 2.165-2.703 9.868 9.868 0 0 1-3.12 1.184A4.944 4.944 0 0 0 16.614 2C13.893 2 11.7 4.198 11.7 6.892c0 .388.033.76.114 1.116A13.954 13.954 0 0 1 1.67 2.892a4.902 4.902 0 0 0-.673 2.472 4.89 4.89 0 0 0 2.185 4.065A4.881 4.881 0 0 1 .96 8.826v.054c0 2.377 1.706 4.351 3.942 4.806-.4.109-.837.161-1.29.161-.315 0-.633-.018-.932-.083a4.963 4.963 0 0 0 4.598 3.407 9.923 9.923 0 0 1-6.1 2.086c-.404 0-.791-.018-1.178-.067a13.911 13.911 0 0 0 7.548 2.195c9.054 0 14.004-7.456 14.004-13.919 0-.216-.008-.425-.018-.632A9.784 9.784 0 0 0 24 4.294Z" fill="#fff"/></svg>